{"glyphs":{"0":{"ha":875,"x_min":74,"x_max":851,"o":"m 339 -121 q 189 -70 247 -121 q 102 63 131 -19 q 74 242 74 146 q 97 441 74 336 q 165 645 121 546 q 272 824 210 744 q 410 952 333 904 q 576 1000 488 1000 q 722 958 661 1000 q 817 839 783 915 q 851 658 851 763 q 826 433 851 546 q 755 222 801 321 q 645 45 708 122 q 504 -76 582 -32 q 339 -121 426 -121 m 358 -74 q 478 -25 421 -74 q 585 106 536 24 q 669 288 633 188 q 726 492 706 388 q 746 688 746 596 q 729 828 746 767 q 676 926 713 890 q 578 963 639 963 q 462 925 515 963 q 365 824 408 888 q 290 683 322 761 q 235 519 257 604 q 201 356 213 435 q 190 213 190 276 q 235 5 190 83 q 358 -74 281 -74 z "},"1":{"ha":507,"x_min":-64,"x_max":440,"o":"m 42 -121 q -14 -106 17 -121 q -64 -64 -44 -92 q -42 -66 -53 -65 q -19 -67 -31 -67 q 56 -62 17 -67 q 131 -51 94 -57 q 178 92 156 7 q 222 276 201 178 q 262 474 243 375 q 298 661 281 574 q 331 811 315 749 q 217 738 251 756 q 171 719 183 719 q 145 727 154 719 q 136 760 136 735 q 212 810 163 774 q 319 896 261 846 q 428 1000 378 946 q 438 981 435 994 q 440 957 440 968 q 428 883 440 922 q 408 801 415 843 q 374 592 394 706 q 326 362 353 478 q 267 141 299 246 q 197 -42 235 36 q 226 -38 213 -39 q 253 -37 240 -37 q 342 -52 306 -37 q 388 -115 378 -67 q 333 -110 360 -112 q 278 -108 306 -108 q 194 -111 235 -108 q 117 -117 154 -114 q 42 -121 79 -121 z "},"2":{"ha":776,"x_min":-26,"x_max":694,"o":"m 553 -121 q 460 -106 513 -121 q 348 -66 407 -90 q 226 -15 289 -42 q 144 -59 183 -43 q 68 -75 104 -75 q 0 -54 26 -75 q -26 0 -26 -33 q -1 49 -26 32 q 78 67 24 67 q 145 61 108 67 q 224 47 182 56 q 353 188 288 104 q 473 370 418 271 q 562 572 528 469 q 596 765 596 674 q 554 916 596 869 q 449 963 513 963 q 345 926 388 963 q 281 825 303 889 q 258 682 258 761 q 262 634 258 654 q 275 588 265 614 q 272 588 274 588 q 268 588 271 588 q 196 627 221 600 q 171 711 171 654 q 209 852 171 786 q 315 959 247 918 q 471 1000 382 1000 q 590 966 540 1000 q 666 875 639 932 q 693 747 693 818 q 675 608 693 678 q 628 474 657 539 q 538 312 592 393 q 420 158 483 231 q 290 32 357 86 q 466 -5 393 10 q 589 -19 539 -19 q 638 -12 615 -19 q 694 15 661 -4 q 642 -88 676 -56 q 553 -121 608 -121 m 67 -37 q 115 -26 89 -37 q 171 6 142 -14 q 112 24 139 17 q 65 31 85 31 q 27 19 38 31 q 17 -3 17 7 q 33 -28 17 -18 q 67 -37 49 -37 z "},"3":{"ha":708,"x_min":8,"x_max":650,"o":"m 236 -121 q 101 -90 151 -121 q 30 -12 51 -58 q 8 76 8 33 q 21 147 8 113 q 58 203 33 181 q 121 226 83 226 q 134 226 128 226 q 146 225 140 226 q 114 170 126 208 q 101 96 101 132 q 119 13 101 53 q 171 -51 138 -26 q 249 -76 204 -76 q 356 -37 304 -76 q 440 72 407 1 q 474 233 474 142 q 459 340 474 288 q 411 433 444 393 q 319 488 378 472 q 438 576 388 518 q 517 701 489 633 q 544 828 544 769 q 506 932 544 901 q 419 963 468 963 q 344 945 381 963 q 285 894 308 928 q 261 813 261 861 q 267 767 261 792 q 283 719 272 743 q 260 693 276 706 q 228 681 243 681 q 199 698 211 681 q 182 741 188 715 q 176 790 176 767 q 215 905 176 858 q 314 976 254 951 q 436 1000 374 1000 q 540 981 492 1000 q 619 922 589 961 q 650 821 650 882 q 631 725 650 775 q 579 629 613 675 q 502 549 546 583 q 407 501 458 515 q 533 436 488 482 q 597 336 578 390 q 615 233 615 282 q 587 105 615 168 q 507 -9 558 42 q 387 -90 456 -60 q 236 -121 318 -121 z "},"4":{"ha":664,"x_min":-11,"x_max":631,"o":"m 413 -121 q 335 -101 365 -117 q 306 -56 306 -86 q 308 -35 306 -56 q 319 38 311 -14 q 344 181 328 89 q 354 229 346 189 q 375 328 363 269 q 314 328 344 328 q 260 329 283 329 q 192 328 224 329 q 131 326 160 328 q 78 321 103 324 q 31 315 53 318 q -11 307 8 311 q -5 341 -11 326 q 14 365 1 356 q 149 506 69 431 q 314 663 228 581 q 476 830 400 744 q 600 1000 551 915 q 610 990 606 999 q 615 964 615 981 q 589 888 615 932 q 566 784 582 856 q 531 614 550 713 q 489 400 511 515 q 517 400 503 400 q 547 400 532 400 q 593 401 574 400 q 631 408 613 403 q 568 349 604 372 q 506 326 532 326 q 490 326 499 326 q 475 326 482 326 q 467 285 471 306 q 460 243 463 264 q 446 159 454 211 q 430 51 438 107 q 417 -53 422 -6 q 413 -121 413 -100 m 111 400 q 177 406 142 404 q 251 407 213 407 q 326 406 292 407 q 392 404 361 406 q 434 589 411 493 q 479 757 457 685 q 368 651 428 706 q 251 542 308 596 q 149 440 194 489 q 128 419 138 429 q 111 400 119 408 z "},"5":{"ha":671,"x_min":-4,"x_max":663,"o":"m 231 -121 q 89 -90 140 -121 q 17 -13 38 -58 q -4 75 -4 32 q 8 146 -4 111 q 47 203 21 181 q 108 226 72 226 q 122 226 115 226 q 133 225 128 226 q 101 171 114 208 q 89 90 89 133 q 103 10 89 49 q 148 -52 117 -28 q 231 -76 179 -76 q 329 -48 286 -76 q 402 27 372 -19 q 448 130 432 74 q 464 242 464 186 q 445 348 464 299 q 386 428 426 397 q 278 458 346 458 q 220 454 254 458 q 150 443 186 450 q 169 540 156 482 q 201 663 183 597 q 238 794 219 729 q 272 910 257 858 q 294 990 288 961 q 373 976 336 981 q 442 972 410 972 q 550 981 499 972 q 657 1000 601 989 q 661 979 660 989 q 663 963 663 969 q 636 899 663 922 q 571 867 610 876 q 492 858 532 858 q 403 867 440 858 q 340 876 367 876 q 322 872 328 876 q 308 849 317 867 q 283 779 297 822 q 256 688 269 736 q 231 594 243 639 q 212 519 219 549 q 203 483 204 489 q 263 494 232 490 q 324 497 293 497 q 478 463 418 497 q 569 369 539 429 q 599 235 599 310 q 551 54 599 135 q 421 -74 504 -26 q 231 -121 338 -121 z "},"6":{"ha":779,"x_min":68,"x_max":733,"o":"m 351 -121 q 186 -75 249 -121 q 96 49 124 -29 q 68 222 68 128 q 92 424 68 317 q 163 633 117 531 q 276 818 210 735 q 424 951 342 901 q 603 1000 506 1000 q 697 981 660 1000 q 733 919 733 961 q 721 882 733 900 q 669 853 708 864 q 671 871 669 864 q 672 892 672 878 q 658 945 672 922 q 596 968 643 968 q 471 920 529 968 q 365 793 413 872 q 281 619 317 714 q 222 429 244 524 q 331 496 268 472 q 457 519 393 519 q 584 491 526 519 q 676 403 642 463 q 711 250 711 344 q 665 61 711 144 q 538 -72 619 -22 q 351 -121 457 -121 m 358 -76 q 454 -47 411 -76 q 528 32 497 -17 q 574 140 558 81 q 590 258 590 199 q 566 381 590 333 q 502 450 542 428 q 417 472 463 472 q 284 433 333 472 q 213 330 235 393 q 192 194 192 267 q 199 109 192 156 q 223 20 206 63 q 274 -49 240 -22 q 358 -76 307 -76 z "},"7":{"ha":560,"x_min":82,"x_max":681,"o":"m 132 -121 q 99 -105 114 -121 q 85 -58 85 -89 q 110 54 85 -18 q 178 220 136 126 q 271 415 221 314 q 210 413 246 415 q 140 408 175 411 q 82 401 106 406 q 113 462 83 443 q 188 486 143 481 q 278 492 233 492 q 294 492 286 492 q 311 492 303 492 q 430 697 367 596 q 540 882 493 799 q 474 880 515 882 q 391 876 433 878 q 317 874 349 874 q 206 892 236 874 q 175 939 175 911 q 193 997 175 964 q 266 985 232 992 q 342 974 300 978 q 447 969 385 969 q 575 976 513 969 q 681 997 638 983 q 649 949 671 981 q 606 893 626 917 q 497 714 554 817 q 383 488 440 611 q 454 483 422 486 q 521 481 486 481 q 549 482 540 481 q 565 485 557 483 q 516 433 543 451 q 456 414 489 414 q 410 414 436 414 q 350 415 385 414 q 297 288 326 358 q 247 147 268 218 q 226 15 226 76 q 230 -17 226 -3 q 243 -37 233 -31 q 186 -103 221 -85 q 132 -121 151 -121 z "},"8":{"ha":732,"x_min":40,"x_max":651,"o":"m 283 -121 q 166 -99 213 -121 q 92 -42 119 -78 q 52 33 64 -7 q 40 107 40 72 q 67 215 40 167 q 137 306 93 264 q 233 388 181 349 q 340 467 286 426 q 265 556 301 510 q 207 654 229 601 q 185 769 185 707 q 224 903 185 853 q 322 976 263 953 q 442 999 382 999 q 594 948 536 999 q 651 799 651 897 q 624 676 651 731 q 552 574 597 621 q 453 485 507 528 q 536 390 496 439 q 602 288 576 342 q 628 169 628 233 q 578 15 628 81 q 449 -85 528 -50 q 283 -121 369 -121 m 297 -67 q 398 -38 349 -67 q 481 42 447 -10 q 514 164 514 94 q 472 304 514 242 q 376 426 431 367 q 255 333 313 381 q 161 231 197 285 q 125 111 125 178 q 150 17 125 57 q 215 -45 175 -24 q 297 -67 254 -67 m 417 526 q 526 648 482 582 q 571 800 571 714 q 533 922 571 882 q 443 961 494 961 q 377 944 413 961 q 317 890 342 928 q 293 788 293 851 q 330 647 293 710 q 417 526 367 583 z "},"9":{"ha":786,"x_min":119,"x_max":763,"o":"m 254 -121 q 159 -101 197 -121 q 121 -37 121 -81 q 133 -1 121 -18 q 182 26 146 15 q 181 10 182 17 q 181 -8 181 3 q 196 -64 181 -39 q 260 -89 211 -89 q 383 -41 326 -89 q 485 86 439 7 q 563 260 531 165 q 614 450 596 356 q 509 383 571 407 q 383 360 447 360 q 252 390 313 360 q 156 482 192 419 q 119 642 119 544 q 163 824 119 743 q 285 953 207 906 q 467 1000 364 1000 q 640 951 575 1000 q 734 819 706 901 q 763 636 763 736 q 740 438 763 542 q 674 234 717 333 q 569 55 631 135 q 428 -73 507 -25 q 254 -121 349 -121 m 422 407 q 584 475 533 407 q 635 651 635 543 q 627 756 635 703 q 601 855 619 810 q 548 928 582 900 q 461 956 514 956 q 369 927 410 956 q 299 852 328 899 q 256 749 271 806 q 240 633 240 692 q 266 504 240 554 q 333 431 292 454 q 422 407 375 407 z "}," ":{"ha":361,"x_min":0,"x_max":0,"o":""},"A":{"ha":822,"x_min":-24,"x_max":796,"o":"m 24 -121 q -15 -83 -7 -103 q -24 -49 -24 -62 q 5 57 -24 -10 q 81 209 33 124 q 188 386 129 294 q 100 392 136 390 q 38 393 64 393 l -11 393 q 42 449 4 433 q 133 465 81 465 q 182 463 157 465 q 233 456 207 460 q 378 663 304 563 q 517 842 453 764 q 625 961 582 921 q 692 1000 665 1000 q 726 988 707 1000 q 765 956 744 976 q 730 897 751 944 q 684 776 708 849 q 636 618 660 704 q 592 442 613 532 q 560 272 572 353 q 549 131 549 192 q 560 49 549 78 q 600 19 572 19 q 682 69 636 19 q 782 225 728 119 l 796 211 q 690 29 754 100 q 556 -42 625 -42 q 473 9 499 -42 q 447 144 447 60 q 453 242 447 189 q 471 351 460 294 q 359 367 410 361 q 265 379 308 374 q 138 131 200 258 q 24 -121 76 3 m 481 400 q 529 585 501 492 q 588 764 557 679 q 647 913 619 849 q 548 819 604 886 q 429 655 492 751 q 301 443 367 558 q 395 422 349 433 q 481 400 442 410 z "},"B":{"ha":844,"x_min":26,"x_max":783,"o":"m 181 -121 q 65 -95 104 -121 q 26 -10 26 -69 q 33 -6 26 -6 q 68 -12 43 -6 q 164 -19 93 -19 q 385 8 283 -19 q 560 82 486 35 q 676 188 635 129 q 717 310 717 247 q 685 401 717 367 q 601 454 653 436 q 488 478 549 472 q 367 485 426 485 q 313 484 340 485 q 263 483 286 483 q 200 257 231 371 q 138 36 169 143 q 79 56 103 36 q 56 103 56 75 q 63 142 56 119 q 75 182 69 164 q 104 275 83 210 q 155 428 125 340 q 221 611 185 515 q 295 799 257 707 q 369 961 333 890 q 272 933 311 951 q 210 901 232 915 q 178 886 188 886 q 160 892 171 886 q 142 908 150 899 q 133 924 133 917 q 278 976 203 953 q 463 1000 354 1000 q 564 992 508 1000 q 669 962 619 985 q 751 895 719 939 q 783 779 783 851 q 754 663 783 711 q 678 584 725 615 q 575 535 631 553 q 465 508 519 517 q 631 479 568 503 q 727 423 694 456 q 771 354 760 390 q 782 285 782 318 q 740 139 782 204 q 631 25 699 74 q 482 -56 563 -24 q 322 -105 401 -89 q 181 -121 243 -121 m 271 515 q 423 533 347 518 q 561 579 499 547 q 662 663 624 611 q 700 790 700 714 q 666 901 700 863 q 578 956 632 940 q 465 971 525 971 q 452 971 458 971 q 439 969 446 971 q 348 756 389 872 q 271 515 307 639 z "},"C":{"ha":742,"x_min":31,"x_max":735,"o":"m 304 -121 q 145 -72 206 -121 q 58 56 85 -22 q 31 218 31 133 q 64 439 31 328 q 155 651 97 550 q 286 830 213 751 q 441 953 360 908 q 601 999 522 999 q 694 972 658 999 q 729 879 729 944 q 715 788 729 839 q 678 691 701 738 q 626 614 654 644 q 568 583 597 583 q 545 590 557 583 q 525 615 533 597 q 572 674 546 639 q 621 749 597 710 q 659 827 644 789 q 674 894 674 865 q 658 940 674 922 q 606 957 642 957 q 481 908 546 957 q 356 778 417 860 q 247 597 296 697 q 170 393 199 497 q 142 194 142 289 q 161 65 142 126 q 224 -35 181 3 q 338 -74 268 -74 q 484 -32 411 -74 q 618 78 557 10 q 715 225 679 146 l 735 211 q 624 45 689 121 q 478 -76 558 -31 q 304 -121 397 -121 z "},"D":{"ha":907,"x_min":78,"x_max":893,"o":"m 226 -121 q 144 -109 183 -121 q 78 -58 106 -97 q 112 85 92 8 q 156 244 132 163 q 203 403 179 325 q 250 550 228 482 q 290 669 272 618 q 318 747 308 721 q 332 780 322 758 q 356 824 342 801 q 388 862 369 846 q 426 878 406 878 q 465 864 446 878 q 378 643 422 764 q 294 394 335 522 q 221 143 254 265 q 165 -79 188 21 q 198 -83 185 -82 q 225 -85 211 -85 q 397 -44 314 -85 q 551 69 479 -3 q 676 233 622 140 q 760 428 731 325 q 790 635 790 532 q 754 820 790 747 q 654 928 718 893 q 506 963 590 963 q 343 926 415 963 q 229 829 271 890 q 188 692 188 768 q 190 663 188 675 q 194 640 192 650 q 130 663 149 640 q 111 718 111 686 q 145 816 111 767 q 240 907 179 865 q 379 974 300 949 q 547 1000 458 1000 q 748 949 672 1000 q 858 813 824 899 q 893 619 893 726 q 856 388 893 499 q 752 185 818 278 q 601 24 686 93 q 420 -83 517 -44 q 226 -121 324 -121 z "},"E":{"ha":692,"x_min":-21,"x_max":683,"o":"m 250 -121 q 106 -86 167 -121 q 12 6 44 -51 q -21 132 -21 64 q 7 257 -21 196 q 84 369 35 318 q 199 452 133 419 q 339 492 264 485 q 259 594 285 536 q 233 711 233 653 q 270 851 233 785 q 372 958 307 917 q 519 999 438 999 q 638 960 597 999 q 678 849 678 921 q 660 749 678 797 q 616 669 642 700 q 567 639 590 639 q 538 652 551 639 q 515 683 524 665 q 598 774 564 726 q 632 876 632 822 q 607 943 632 919 q 533 967 582 967 q 425 928 469 967 q 358 827 381 890 q 335 688 335 764 q 350 579 335 638 q 415 478 365 521 q 253 407 322 463 q 147 276 185 351 q 108 128 108 201 q 126 35 108 82 q 182 -42 143 -11 q 286 -74 221 -74 q 433 -32 360 -74 q 567 78 506 10 q 664 225 628 146 l 683 211 q 569 42 635 117 q 424 -77 504 -33 q 250 -121 343 -121 z "},"F":{"ha":669,"x_min":92,"x_max":853,"o":"m 211 -121 q 132 -86 147 -115 q 117 -11 117 -57 q 138 112 117 39 q 190 271 158 185 q 253 443 221 357 q 217 440 236 442 q 171 434 199 438 q 99 424 143 431 q 126 480 101 460 q 190 510 150 500 q 281 521 231 519 q 360 730 319 628 q 442 917 401 832 q 415 919 428 918 q 388 919 401 919 q 250 901 299 919 q 183 846 201 883 q 165 750 165 808 q 169 694 165 719 q 183 640 174 668 q 114 677 136 649 q 92 749 92 706 q 143 876 92 821 q 281 962 194 931 q 474 993 368 993 q 616 983 547 993 q 750 972 685 972 q 803 976 779 972 q 853 986 828 979 q 767 908 801 928 q 696 889 732 889 q 613 898 664 889 q 499 913 563 907 q 458 802 481 867 q 413 665 436 738 q 365 519 389 592 q 497 507 435 515 q 608 497 558 499 q 583 472 597 481 q 542 458 568 463 q 469 452 515 454 q 344 449 422 450 q 324 379 336 419 q 301 303 311 339 q 286 250 292 267 q 234 50 256 143 q 211 -121 213 -43 z "},"G":{"ha":769,"x_min":31,"x_max":746,"o":"m 290 -121 q 159 -80 218 -121 q 65 38 100 -39 q 31 224 31 115 q 64 440 31 331 q 155 650 97 550 q 286 828 213 750 q 441 953 360 907 q 601 999 522 999 q 686 976 654 999 q 732 919 718 954 q 746 842 746 883 q 729 747 746 793 q 685 669 713 700 q 624 639 657 639 q 601 646 613 639 q 581 671 589 653 q 626 721 600 685 q 670 801 651 757 q 689 883 689 846 q 670 936 689 915 q 606 957 651 957 q 481 908 546 957 q 356 778 417 860 q 247 597 296 697 q 170 393 199 497 q 142 196 142 289 q 194 -2 142 69 q 328 -74 247 -74 q 431 -34 382 -74 q 517 69 479 6 q 577 206 554 132 q 606 347 600 279 q 522 362 554 358 q 463 365 490 365 q 424 365 444 365 q 378 364 404 364 q 412 420 388 404 q 472 436 436 436 q 553 423 511 436 q 636 394 596 410 q 707 371 676 379 l 697 326 q 654 205 671 257 q 628 113 638 153 q 616 43 619 74 q 613 -12 613 13 q 615 -67 613 -40 q 618 -121 617 -93 q 578 -98 596 -111 q 552 -65 561 -85 q 543 -21 543 -46 q 545 10 543 -6 q 553 43 547 25 q 438 -74 503 -26 q 290 -121 372 -121 z "},"H":{"ha":857,"x_min":76,"x_max":878,"o":"m 76 -121 q 96 -22 85 -72 q 124 92 107 29 q 167 239 142 156 q 229 436 192 322 q 184 432 207 435 q 138 426 161 429 q 170 481 139 461 q 253 511 201 501 q 273 572 263 540 q 294 637 283 603 q 318 706 306 671 q 344 781 331 742 q 371 860 357 819 q 383 898 376 875 q 390 942 390 921 q 387 957 390 953 q 371 961 383 961 q 306 934 338 961 q 251 865 275 907 q 213 779 226 824 q 199 700 199 735 q 201 675 199 688 q 206 653 203 663 q 141 676 160 653 q 122 732 122 699 q 150 826 122 779 q 222 913 178 874 q 313 976 265 953 q 400 1000 361 1000 q 451 979 438 1000 q 464 933 464 958 q 460 903 464 918 q 453 874 457 888 l 344 521 q 384 523 364 522 q 425 524 404 524 q 549 520 490 524 q 661 511 608 517 q 716 686 689 600 q 766 837 743 772 q 801 928 789 901 q 817 956 807 939 q 842 986 826 972 q 878 1000 858 1000 q 833 869 858 949 q 783 694 808 789 q 732 506 757 600 q 785 502 760 504 q 836 500 811 500 q 776 462 806 468 q 719 456 747 456 q 696 356 707 404 q 676 265 685 308 q 641 64 651 147 q 631 -71 631 -19 q 631 -99 631 -87 q 633 -121 632 -111 q 558 -90 579 -115 q 538 -12 538 -65 q 546 78 538 24 q 571 197 554 133 q 601 308 582 239 q 644 454 621 376 q 503 453 560 454 q 404 450 446 451 q 321 444 363 449 q 271 285 296 364 q 225 140 246 206 q 190 28 204 74 q 172 -32 176 -18 q 128 -100 158 -79 q 76 -121 99 -121 z "},"I":{"ha":638,"x_min":-53,"x_max":761,"o":"m -53 -122 q -16 -48 -47 -71 q 65 -18 15 -25 q 174 -11 115 -11 q 224 122 199 43 q 272 290 249 200 q 317 474 294 381 q 358 654 339 568 q 395 809 378 740 q 426 918 413 878 q 303 914 354 917 q 209 906 253 911 q 114 890 165 900 q 190 970 124 943 q 397 997 257 997 q 538 992 467 997 q 669 980 610 986 q 761 968 729 974 q 691 927 728 935 q 626 919 654 919 q 545 919 583 919 q 475 918 507 919 q 458 827 469 889 q 432 685 447 765 q 400 520 417 606 q 367 358 383 435 q 338 225 351 281 q 288 75 315 136 q 221 -12 260 14 q 375 -27 293 -17 q 522 -39 457 -37 q 438 -89 482 -79 q 365 -99 394 -99 q 256 -99 310 -99 q 151 -101 203 -100 q 48 -108 99 -103 q -53 -122 -3 -112 z "},"J":{"ha":571,"x_min":-43,"x_max":708,"o":"m 107 -119 q 40 -107 75 -119 q -19 -56 4 -94 q -43 61 -43 -17 q -31 169 -43 115 q 6 258 -18 222 q 63 294 31 294 q 101 283 79 294 q 64 164 76 219 q 51 61 51 108 q 74 -36 51 -1 q 139 -71 96 -71 q 203 -40 175 -71 q 263 75 232 -10 q 309 223 285 136 q 358 409 333 310 q 404 606 382 508 q 444 788 426 704 q 472 926 463 871 q 358 924 404 926 q 274 915 311 921 q 192 899 236 910 q 252 972 199 946 q 418 997 306 997 q 531 992 474 997 q 635 980 588 986 q 708 968 683 974 q 658 935 693 942 q 601 928 624 928 q 549 927 574 928 q 503 926 525 926 q 525 896 518 915 q 532 861 532 876 q 522 781 532 843 q 494 632 513 719 q 451 446 476 544 q 397 253 426 347 q 335 85 368 158 q 262 -42 299 1 q 187 -103 225 -86 q 107 -119 149 -119 z "},"K":{"ha":819,"x_min":42,"x_max":840,"o":"m 688 -121 q 617 -85 657 -121 q 531 11 576 -49 q 442 141 486 71 q 362 281 399 211 q 300 404 325 350 l 165 -32 q 135 -77 156 -64 q 90 -93 114 -90 q 42 -96 65 -96 q 78 -7 60 -57 q 123 114 97 43 q 183 286 149 185 q 266 528 218 388 q 379 860 314 669 q 390 891 383 871 q 397 928 397 911 q 390 952 397 943 q 364 961 383 961 q 299 934 331 961 q 244 865 268 907 q 206 779 219 824 q 192 700 192 735 q 199 653 192 674 q 134 676 153 653 q 115 732 115 699 q 143 826 115 779 q 215 913 171 874 q 306 976 258 953 q 393 1000 354 1000 q 444 979 431 1000 q 457 933 457 958 q 453 903 457 918 q 446 874 450 888 l 329 496 q 380 547 349 524 q 449 601 411 571 q 583 718 511 651 q 719 858 654 785 q 828 1000 785 932 q 838 971 835 992 q 840 939 840 950 q 805 844 840 896 q 713 738 769 793 q 588 630 656 683 q 453 529 519 576 q 335 447 388 482 q 416 313 376 376 q 502 188 456 249 q 611 63 549 126 q 763 -75 674 -1 q 732 -107 753 -93 q 688 -121 711 -121 z "},"L":{"ha":792,"x_min":-103,"x_max":786,"o":"m 551 -121 q 441 -100 501 -121 q 317 -49 381 -79 q 190 8 253 -19 q 118 -52 156 -31 q 36 -74 81 -74 q -40 -53 -8 -74 q -87 -3 -71 -32 q -103 47 -103 25 q -80 90 -103 72 q -1 108 -57 108 q 78 100 35 108 q 169 79 122 92 q 231 215 203 138 q 288 381 260 293 q 343 556 315 468 q 242 617 279 576 q 206 704 206 657 q 216 754 206 729 q 246 797 226 779 q 292 814 265 814 q 278 774 282 800 q 274 728 274 747 q 296 640 274 675 q 353 585 318 604 q 410 742 381 668 q 476 875 440 817 q 556 967 513 933 q 651 1000 599 1000 q 710 988 679 1000 q 764 944 742 975 q 786 858 786 914 q 767 756 786 811 q 707 652 747 701 q 604 572 667 603 q 457 539 542 540 q 451 539 456 539 q 431 539 446 539 q 372 367 403 454 q 306 201 340 279 q 231 61 271 122 q 360 22 294 42 q 486 -12 425 1 q 599 -25 547 -25 q 651 -19 628 -25 q 697 -3 675 -14 q 638 -94 675 -67 q 551 -121 601 -121 m 31 -33 q 88 -17 61 -33 q 138 31 115 0 q 53 60 94 49 q -21 72 13 72 q -57 65 -47 72 q -67 46 -67 58 q -40 -6 -67 22 q 31 -33 -12 -33 m 439 565 q 552 601 501 565 q 638 690 603 636 q 692 799 674 743 q 711 896 711 854 q 696 951 711 936 q 661 965 681 965 q 581 910 618 965 q 509 763 543 854 q 439 565 475 672 z "},"M":{"ha":1060,"x_min":-24,"x_max":1032,"o":"m -24 -121 q 22 -19 -15 -101 q 120 197 60 64 q 256 498 181 329 q 417 856 332 667 q 426 881 421 865 q 431 913 431 897 q 422 938 431 928 q 383 949 413 949 q 287 909 325 949 q 230 811 249 869 q 211 696 211 753 q 212 672 211 682 q 214 653 213 663 q 172 672 188 653 q 148 717 156 690 q 140 767 140 744 q 165 854 140 813 q 230 929 190 896 q 317 981 269 963 q 411 1000 365 1000 q 488 974 457 1000 q 535 882 519 949 q 551 689 551 815 q 545 506 551 603 q 532 314 539 408 q 522 142 525 219 q 585 322 544 226 q 676 513 626 418 q 774 692 725 608 q 861 836 822 775 q 918 925 900 897 q 951 967 938 953 q 988 982 965 982 q 1032 972 1007 982 q 1005 898 1022 947 q 969 778 988 849 q 925 585 947 693 q 884 367 903 478 q 854 158 865 256 q 843 -7 843 60 q 846 -54 843 -37 q 853 -84 849 -71 q 864 -121 858 -97 q 792 -106 817 -121 q 758 -56 767 -90 q 750 35 750 -22 q 792 390 750 200 q 889 783 835 579 q 805 653 849 732 q 717 484 761 575 q 634 302 674 393 q 564 133 594 211 q 517 4 533 56 q 506 0 508 1 q 496 -1 503 -1 q 447 43 458 -1 q 435 168 435 88 q 438 303 435 225 q 446 465 442 382 q 453 626 450 549 q 457 758 457 703 q 456 804 457 786 q 454 836 456 822 q 268 395 343 578 q 142 99 193 213 q 53 -68 92 -15 q -24 -121 14 -121 z "},"N":{"ha":889,"x_min":64,"x_max":921,"o":"m 64 -121 q 106 28 81 -54 q 166 223 131 110 q 249 492 201 336 q 358 860 296 647 q 365 884 361 867 q 368 917 368 901 q 363 940 368 931 q 347 949 358 949 q 284 923 314 949 q 233 858 254 897 q 199 777 211 819 q 186 701 186 735 q 193 653 186 674 q 128 676 147 653 q 110 732 110 699 q 138 826 110 779 q 208 913 165 874 q 299 976 251 953 q 388 1000 347 1000 q 456 965 429 1000 q 500 867 483 929 q 528 728 517 806 q 549 567 539 650 q 565 428 557 497 q 582 298 574 360 q 597 185 590 236 q 610 100 604 133 q 638 248 619 165 q 680 420 657 331 q 728 595 703 510 q 774 752 753 681 q 812 872 796 824 q 833 932 828 919 q 865 975 840 950 q 921 1000 890 1000 q 867 844 897 936 q 807 644 838 751 q 747 424 776 536 q 695 208 718 313 q 659 19 672 104 q 644 -121 646 -67 q 574 -96 601 -121 q 536 -8 547 -71 q 519 91 529 28 q 497 232 508 154 q 472 394 485 310 q 448 558 460 478 q 426 706 436 639 q 410 818 417 774 q 296 412 343 578 q 216 141 249 246 q 158 -21 183 36 q 111 -99 133 -78 q 64 -121 89 -121 z "},"O":{"ha":865,"x_min":29,"x_max":836,"o":"m 296 -121 q 157 -78 217 -121 q 63 42 97 -36 q 29 224 29 119 q 63 440 29 331 q 156 650 97 550 q 288 828 214 750 q 443 953 361 907 q 604 999 525 999 q 651 994 631 999 q 688 982 672 990 q 674 982 676 982 q 671 982 672 982 q 525 934 599 982 q 385 805 451 886 q 265 623 318 724 q 182 414 213 522 q 151 204 151 306 q 170 67 151 131 q 231 -35 189 3 q 338 -74 272 -74 q 483 -26 415 -74 q 606 104 551 22 q 701 287 661 186 q 762 495 740 388 q 783 701 783 603 q 778 785 783 740 q 758 861 772 829 q 721 893 744 893 q 667 862 696 893 q 610 783 638 831 q 563 685 583 736 q 533 596 542 635 q 483 623 499 604 q 467 664 467 642 q 492 747 467 701 q 558 834 518 792 q 640 903 597 876 q 718 931 683 931 q 777 904 754 931 q 813 837 800 878 q 831 749 826 796 q 836 663 836 703 q 802 387 836 511 q 710 168 768 263 q 582 9 653 74 q 437 -88 511 -56 q 296 -121 363 -121 z "},"P":{"ha":732,"x_min":25,"x_max":814,"o":"m 121 -121 q 56 -101 86 -121 q 25 -51 25 -82 q 32 -15 25 -36 q 44 25 39 7 q 128 279 89 161 q 206 508 167 397 q 288 731 244 619 q 386 963 332 842 q 292 934 333 953 q 226 901 251 915 q 193 886 201 886 q 177 892 188 886 q 158 908 167 899 q 150 924 150 917 q 235 957 186 939 q 342 988 285 975 q 457 1000 399 1000 q 581 983 518 1000 q 697 933 644 967 q 782 849 750 899 q 814 732 814 799 q 782 608 814 660 q 697 520 750 556 q 583 463 644 485 q 462 430 522 442 q 354 415 401 418 q 285 411 307 411 l 271 411 q 191 129 229 268 q 121 -121 153 -10 m 276 433 q 431 458 353 438 q 575 519 510 479 q 681 617 640 558 q 721 756 721 676 q 685 878 721 831 q 592 948 650 925 q 469 971 535 971 q 369 728 418 869 q 276 433 321 586 z "},"Q":{"ha":963,"x_min":49,"x_max":881,"o":"m 717 -165 q 599 -130 653 -165 q 494 -51 544 -94 q 426 -78 461 -68 q 356 -87 392 -87 q 278 -73 308 -87 q 231 -37 247 -58 q 209 3 215 -17 q 203 35 203 24 q 226 83 203 58 q 304 107 249 107 q 415 80 361 107 q 525 18 469 53 q 635 160 588 74 q 716 344 683 246 q 766 538 749 443 q 783 707 783 633 q 740 892 783 821 q 600 963 697 963 q 450 915 519 963 q 324 786 381 867 q 228 606 268 706 q 166 401 188 507 q 144 200 144 296 q 147 142 144 171 q 156 83 150 113 q 90 111 113 83 q 58 183 67 139 q 49 276 49 226 q 76 484 49 381 q 155 681 104 588 q 274 845 206 774 q 426 958 343 917 q 599 1000 508 1000 q 806 909 732 1000 q 881 663 881 818 q 857 480 881 575 q 791 294 833 385 q 692 125 749 203 q 567 -6 635 47 q 665 -51 614 -32 q 772 -69 715 -69 q 817 -64 803 -69 q 853 -53 832 -58 q 815 -126 839 -101 q 765 -158 790 -150 q 717 -165 739 -165 m 356 -53 q 412 -45 385 -53 q 464 -24 439 -37 q 378 42 421 14 q 290 71 336 71 q 249 58 258 71 q 239 33 239 44 q 249 1 239 21 q 283 -36 258 -19 q 356 -53 308 -53 z "},"R":{"ha":801,"x_min":22,"x_max":807,"o":"m 644 -168 q 573 -130 614 -168 q 488 -30 532 -92 q 399 106 443 32 q 319 253 356 179 q 257 385 282 326 q 182 117 218 249 q 114 -121 146 -14 q 51 -101 79 -121 q 22 -51 22 -82 q 29 -15 22 -36 q 42 25 36 7 q 110 232 76 135 q 175 419 143 329 q 241 599 207 510 q 313 778 275 688 q 393 965 350 868 q 292 937 335 956 q 222 902 249 918 q 186 886 196 886 q 170 892 181 886 q 151 908 160 899 q 143 924 143 917 q 228 957 179 939 q 335 988 276 975 q 456 1000 393 1000 q 577 985 515 1000 q 691 940 639 971 q 775 859 743 908 q 807 740 807 810 q 776 623 807 672 q 694 540 744 574 q 583 487 643 507 q 465 456 524 467 q 360 442 407 446 q 289 439 313 439 q 371 296 332 365 q 456 158 410 226 q 564 19 501 89 q 715 -122 626 -50 q 685 -154 707 -140 q 644 -168 664 -168 m 279 461 q 431 485 354 465 q 572 542 508 506 q 675 635 636 579 q 714 769 714 692 q 678 890 714 846 q 585 952 642 933 q 465 971 528 971 q 371 741 418 875 q 279 461 324 607 z "},"S":{"ha":744,"x_min":-8,"x_max":683,"o":"m 282 -121 q 140 -94 207 -121 q 33 -11 74 -67 q -8 128 -8 44 q 20 240 -8 200 q 90 297 49 281 q 169 314 132 314 q 113 225 132 274 q 93 128 93 176 q 116 32 93 76 q 186 -40 139 -12 q 306 -67 233 -67 q 428 -44 368 -67 q 526 24 488 -21 q 564 136 564 69 q 533 239 564 196 q 455 315 503 282 q 353 379 407 349 q 251 444 299 410 q 172 522 203 478 q 142 629 142 567 q 169 751 142 688 q 249 872 197 815 q 374 965 301 929 q 538 1000 447 1000 q 651 960 619 1000 q 683 861 683 921 q 666 753 683 811 q 624 644 649 696 q 576 556 599 592 q 541 577 551 561 q 531 615 531 593 q 543 682 531 644 q 572 760 556 719 q 600 838 588 800 q 613 907 613 876 q 596 951 613 935 q 535 967 579 967 q 414 936 469 967 q 317 858 358 906 q 252 757 275 810 q 229 661 229 704 q 259 573 229 610 q 336 506 289 536 q 437 447 383 476 q 538 381 490 417 q 615 295 585 344 q 644 175 644 246 q 613 48 644 103 q 527 -44 581 -7 q 410 -101 474 -82 q 282 -121 346 -121 z "},"T":{"ha":681,"x_min":96,"x_max":882,"o":"m 260 -121 q 174 -93 197 -121 q 150 -22 150 -65 q 167 74 150 18 q 201 181 183 129 q 258 340 225 249 q 330 532 292 432 q 408 729 368 632 q 485 906 447 826 q 324 901 389 904 q 208 894 260 899 q 96 878 157 889 q 144 951 100 925 q 264 989 189 978 q 435 1000 339 1000 q 606 992 531 1000 q 749 978 682 985 q 882 969 815 971 q 774 915 835 926 q 644 904 713 904 q 613 905 629 904 q 579 906 596 906 q 546 906 563 906 q 444 625 501 794 q 328 243 386 456 q 292 111 308 169 q 267 4 276 53 q 258 -90 258 -44 q 258 -106 258 -97 q 260 -121 258 -114 z "},"U":{"ha":981,"x_min":35,"x_max":988,"o":"m 751 -137 q 669 -94 700 -137 q 639 10 639 -50 q 642 62 639 29 q 651 136 646 94 q 526 -49 600 22 q 351 -121 453 -121 q 217 -67 263 -121 q 171 68 171 -12 q 188 197 171 122 q 232 356 206 271 q 284 529 258 442 q 327 697 310 617 q 344 839 344 776 q 267 961 344 961 q 201 937 229 961 q 156 875 174 913 q 128 796 138 838 q 119 721 119 754 q 122 683 119 701 q 131 653 125 665 q 56 681 78 653 q 35 749 35 710 q 56 836 35 792 q 113 917 76 881 q 198 977 150 954 q 300 1000 246 1000 q 410 954 376 1000 q 443 832 443 908 q 431 719 443 781 q 399 590 418 657 q 357 454 379 522 q 299 258 325 353 q 272 90 272 163 q 299 -19 272 26 q 389 -65 326 -65 q 493 -28 446 -65 q 576 67 540 8 q 638 190 613 125 q 676 311 663 256 q 719 488 696 394 q 769 673 743 582 q 820 838 794 764 q 871 956 846 911 q 918 1000 896 1000 q 949 988 929 1000 q 988 956 968 976 q 953 897 976 947 q 900 767 929 846 q 842 592 871 688 q 788 399 813 497 q 747 213 763 301 q 732 58 732 124 q 758 -71 732 -37 q 843 -104 783 -104 q 794 -130 817 -122 q 751 -137 771 -137 z "},"V":{"ha":878,"x_min":35,"x_max":897,"o":"m 292 -121 q 244 -112 272 -121 q 194 -79 215 -103 q 172 -10 172 -56 q 190 96 172 31 q 233 242 207 161 q 286 413 260 324 q 330 593 313 503 q 347 767 347 683 q 344 863 347 818 q 323 934 340 907 q 264 961 306 961 q 198 938 225 961 q 153 879 171 915 q 128 803 136 843 q 121 728 121 763 q 124 687 121 706 q 133 653 128 668 q 57 683 79 653 q 35 753 35 713 q 55 839 35 796 q 110 919 75 882 q 192 978 146 956 q 289 1000 238 1000 q 417 933 375 1000 q 460 753 460 865 q 442 584 460 672 q 397 408 424 496 q 344 240 371 321 q 299 92 317 160 q 281 -24 281 24 q 288 -62 281 -47 q 319 -78 296 -78 q 410 -38 358 -78 q 516 70 461 1 q 623 225 571 139 q 717 405 675 311 q 783 589 758 499 q 808 756 808 679 q 788 858 808 825 q 732 900 767 890 q 773 949 751 933 q 813 964 794 964 q 869 926 842 964 q 897 810 897 889 q 869 636 897 733 q 792 434 840 539 q 681 231 743 329 q 550 53 618 132 q 415 -74 482 -26 q 292 -121 349 -121 z "},"W":{"ha":1258,"x_min":35,"x_max":1276,"o":"m 292 -121 q 256 -116 276 -121 q 217 -99 236 -111 q 185 -66 197 -87 q 172 -10 172 -44 q 196 119 172 39 q 250 296 219 199 q 296 451 274 371 q 333 613 318 532 q 347 767 347 693 q 344 863 347 818 q 323 934 340 907 q 264 961 306 961 q 198 938 225 961 q 153 879 171 915 q 128 803 136 843 q 121 728 121 763 q 133 653 121 682 q 57 683 79 653 q 35 753 35 713 q 55 839 35 796 q 110 919 75 882 q 192 978 146 956 q 289 1000 238 1000 q 417 933 375 1000 q 460 753 460 865 q 431 538 460 651 q 368 318 403 425 q 326 185 346 249 q 293 69 306 122 q 281 -24 281 17 q 289 -64 281 -50 q 322 -78 297 -78 q 399 -45 357 -78 q 485 43 442 -12 q 570 166 529 99 q 645 304 611 233 q 702 439 679 375 q 731 549 725 503 q 795 525 776 549 q 814 481 814 501 q 796 413 814 458 q 753 310 778 367 q 710 203 732 260 q 674 89 689 146 q 660 -19 660 32 q 667 -62 660 -46 q 699 -78 674 -78 q 789 -38 738 -78 q 895 70 840 1 q 1002 225 950 139 q 1096 405 1054 311 q 1163 589 1138 499 q 1188 756 1188 679 q 1167 858 1188 825 q 1111 900 1146 890 q 1152 949 1131 933 q 1192 964 1174 964 q 1249 926 1221 964 q 1276 810 1276 889 q 1248 636 1276 733 q 1171 434 1219 539 q 1060 231 1122 329 q 929 53 997 132 q 794 -74 861 -26 q 671 -121 728 -121 q 617 -110 644 -121 q 570 -76 589 -99 q 551 -17 551 -53 q 559 37 551 4 q 579 108 567 69 q 434 -56 508 8 q 292 -121 360 -121 z "},"X":{"ha":919,"x_min":35,"x_max":906,"o":"m 35 -156 q 47 -106 39 -125 q 68 -69 54 -86 q 103 -29 82 -51 q 189 67 147 19 q 270 160 231 114 q 347 252 310 207 q 418 342 383 297 q 413 420 415 388 q 409 483 411 453 q 406 553 407 514 q 404 650 406 592 q 399 826 403 757 q 378 928 394 894 q 322 961 361 961 q 260 938 288 961 q 215 877 233 914 q 188 799 197 840 q 178 721 178 757 q 189 653 178 679 q 115 681 136 653 q 93 749 93 710 q 114 836 93 792 q 172 917 135 881 q 256 977 208 954 q 354 1000 303 1000 q 441 973 408 1000 q 490 897 474 946 q 513 783 507 849 q 519 640 518 718 q 521 478 519 563 q 710 765 632 632 q 829 1003 788 899 q 851 976 840 996 q 861 936 861 956 q 834 854 861 908 q 760 727 807 800 q 651 571 713 654 q 522 401 590 488 q 533 228 525 313 q 555 77 540 144 q 594 -30 569 10 q 653 -69 618 -69 q 754 11 694 -69 q 889 225 814 92 l 906 211 q 808 30 853 104 q 717 -83 763 -44 q 615 -121 671 -121 q 521 -83 557 -121 q 465 14 485 -46 q 435 143 444 74 q 422 275 426 213 q 263 85 340 174 q 126 -67 186 -3 q 35 -156 65 -131 z "},"Y":{"ha":925,"x_min":32,"x_max":985,"o":"m 354 -260 q 219 -226 275 -260 q 163 -129 163 -193 q 183 -66 163 -93 q 246 -25 203 -39 q 238 -65 240 -46 q 235 -100 235 -85 q 265 -191 235 -157 q 356 -225 296 -225 q 455 -197 411 -225 q 531 -124 499 -169 q 585 -26 563 -79 q 622 78 607 26 q 646 168 638 129 q 672 291 657 215 q 704 453 686 367 q 576 278 649 347 q 403 210 503 210 q 286 256 321 210 q 251 375 251 303 q 266 493 251 429 q 299 622 281 557 q 331 746 317 686 q 346 853 346 806 q 328 929 346 897 q 267 961 311 961 q 200 937 228 961 q 153 875 172 913 q 126 797 135 838 q 117 721 117 756 q 119 683 117 701 q 128 653 122 665 q 53 681 75 653 q 32 749 32 710 q 53 836 32 792 q 110 917 74 881 q 195 977 147 954 q 297 1000 243 1000 q 382 978 350 1000 q 428 925 414 957 q 442 860 442 893 q 427 763 442 821 q 394 642 413 706 q 363 517 376 579 q 349 399 349 454 q 372 302 349 339 q 446 265 394 265 q 538 296 494 265 q 618 378 581 326 q 686 490 656 429 q 740 611 717 551 q 778 756 758 686 q 819 881 799 826 q 863 968 840 936 q 907 1000 885 1000 q 943 988 921 1000 q 985 956 965 976 q 935 869 956 910 q 895 779 914 828 q 857 665 876 731 q 813 503 838 599 q 756 269 789 407 q 717 124 738 199 q 666 -19 696 49 q 594 -142 636 -87 q 494 -228 553 -196 q 354 -260 435 -260 z "},"Z":{"ha":876,"x_min":-35,"x_max":917,"o":"m 621 -121 q 514 -101 572 -121 q 394 -53 456 -82 q 271 3 332 -25 q 179 -54 224 -33 q 93 -75 135 -75 q 24 -58 53 -75 q -19 -15 -4 -40 q -35 36 -35 11 q -10 87 -35 65 q 72 108 14 108 q 160 98 113 108 q 261 72 208 88 q 398 241 328 142 q 532 446 468 340 q 442 441 481 444 q 351 431 404 438 l 304 424 q 335 483 307 463 q 409 513 363 504 q 511 521 456 521 q 542 520 526 521 q 574 518 558 519 q 671 701 628 614 q 736 847 714 788 q 686 863 714 853 q 628 885 658 874 q 487 936 561 911 q 350 961 413 961 q 270 943 306 961 q 214 881 235 925 q 193 761 193 838 q 194 742 193 750 q 196 726 194 733 q 199 713 197 719 q 141 745 158 719 q 124 813 124 771 q 196 953 124 906 q 392 1000 268 1000 q 528 987 465 1000 q 650 956 592 974 q 763 924 708 938 q 872 911 818 911 q 897 912 886 911 q 917 914 907 913 q 880 885 897 897 q 847 865 863 874 q 770 701 817 793 q 667 510 724 608 q 745 501 708 506 q 814 497 782 497 q 780 465 799 475 q 727 453 761 456 q 631 449 693 450 q 484 232 563 336 q 328 53 406 128 q 508 0 418 25 q 668 -25 597 -25 q 721 -19 697 -25 q 767 -3 744 -14 q 708 -94 744 -67 q 621 -121 671 -121 m 86 -37 q 147 -20 114 -37 q 214 28 179 -3 q 126 60 168 47 q 53 72 85 72 q 12 63 22 72 q 1 39 1 53 q 24 -10 1 17 q 86 -37 47 -37 z "},"a":{"ha":606,"x_min":-36,"x_max":647,"o":"m 67 -65 q -6 -37 24 -65 q -36 50 -36 -8 q -14 158 -36 100 q 47 272 8 215 q 135 374 86 328 q 240 449 185 421 q 349 476 294 476 q 439 448 403 476 q 475 372 475 419 q 456 325 475 338 q 407 313 438 313 q 412 337 410 324 q 414 361 414 350 q 399 416 414 393 q 346 439 383 439 q 267 412 307 439 q 189 340 226 385 q 122 242 151 294 q 76 138 93 189 q 60 46 60 86 q 97 -8 60 -8 q 167 22 129 -8 q 244 98 204 51 q 319 194 283 144 q 383 286 356 244 q 390 294 389 294 q 412 289 399 293 q 435 278 425 285 q 444 260 444 271 q 432 226 444 247 q 404 176 419 204 q 376 120 389 149 q 364 67 364 92 q 375 26 364 46 q 411 6 386 6 q 510 60 449 6 q 633 225 571 115 l 647 211 q 572 79 618 136 q 474 -10 526 22 q 372 -42 422 -42 q 297 -11 321 -42 q 272 56 272 19 q 274 74 272 64 q 276 96 275 85 q 167 -25 217 15 q 67 -65 118 -65 z "},"b":{"ha":547,"x_min":-14,"x_max":593,"o":"m 129 -101 q 22 -54 57 -101 q -14 74 -14 -7 q 10 238 -14 143 q 72 435 33 332 q 159 638 111 539 q 256 816 207 736 q 347 944 304 896 q 418 992 390 992 q 452 963 442 992 q 463 904 463 933 q 446 810 463 865 q 399 691 429 754 q 328 567 368 628 q 241 455 288 506 q 146 375 194 404 q 122 312 138 360 q 92 202 106 264 q 79 82 79 140 q 97 -12 79 25 q 156 -49 114 -49 q 239 -16 196 -49 q 308 68 282 17 q 232 145 257 94 q 207 247 207 196 q 242 354 207 314 q 324 394 276 394 q 388 362 364 394 q 411 267 411 329 q 399 172 411 221 q 363 78 386 124 q 380 75 371 76 q 399 74 389 74 q 482 98 449 74 q 538 158 515 122 q 576 225 561 193 l 593 207 q 501 80 554 111 q 394 49 447 49 q 372 50 383 49 q 350 53 361 51 q 258 -56 313 -11 q 129 -101 203 -101 m 322 96 q 346 163 338 128 q 354 236 354 199 q 341 313 354 285 q 308 340 328 340 q 272 312 288 340 q 256 240 256 283 q 271 161 256 203 q 322 96 286 119 m 161 429 q 237 507 200 460 q 306 608 274 554 q 363 713 338 661 q 401 806 388 764 q 415 868 415 847 q 414 877 415 875 q 410 879 413 879 q 367 840 399 879 q 298 734 336 800 q 222 588 260 668 q 161 429 185 508 z "},"c":{"ha":449,"x_min":-7,"x_max":493,"o":"m 149 -78 q 38 -33 82 -78 q -7 100 -7 11 q 20 235 -7 169 q 92 354 47 301 q 190 438 136 407 q 297 469 244 469 q 375 436 354 469 q 396 367 396 403 q 377 296 396 326 q 326 265 358 265 q 286 286 303 265 q 322 331 307 297 q 338 396 338 365 q 331 422 338 413 q 307 431 325 431 q 230 397 269 431 q 156 311 190 364 q 101 200 122 258 q 79 90 79 142 q 100 11 79 47 q 181 -25 121 -25 q 292 6 236 -25 q 397 93 349 36 q 475 226 446 150 l 493 213 q 406 63 461 129 q 283 -40 350 -3 q 149 -78 217 -78 z "},"d":{"ha":657,"x_min":-22,"x_max":757,"o":"m 82 -42 q 34 -30 58 -42 q -6 8 10 -18 q -22 75 -22 35 q 0 178 -22 121 q 60 291 22 235 q 146 395 97 347 q 247 472 194 443 q 351 500 300 500 q 397 490 381 500 q 413 457 413 479 q 412 447 413 451 q 410 438 411 443 q 390 453 403 449 q 357 458 376 458 q 270 431 313 458 q 192 360 228 404 q 131 267 157 317 q 90 170 104 217 q 75 92 75 124 q 89 43 75 61 q 125 25 103 25 q 216 72 163 25 q 325 206 269 119 q 425 407 381 292 q 488 571 456 488 q 554 731 521 654 q 619 869 588 808 q 678 965 650 929 q 729 1000 707 1000 q 749 991 740 1000 q 757 968 757 982 q 734 892 757 946 q 674 765 711 839 q 597 603 638 690 q 520 425 557 515 q 460 251 483 335 q 438 97 438 167 q 442 39 438 58 q 469 19 446 19 q 538 44 499 19 q 615 115 576 69 q 683 225 654 161 l 700 213 q 628 85 674 142 q 530 -3 582 29 q 431 -36 478 -36 q 359 -2 379 -36 q 339 68 339 32 q 346 131 339 92 q 365 217 353 169 q 271 84 321 143 q 173 -8 221 25 q 82 -42 125 -42 z "},"e":{"ha":463,"x_min":-19,"x_max":507,"o":"m 150 -61 q 23 -15 65 -61 q -19 100 -19 32 q 12 232 -19 163 q 95 363 43 301 q 210 462 147 424 q 333 500 272 500 q 392 483 365 500 q 419 415 419 467 q 388 316 419 363 q 306 233 357 269 q 195 174 256 197 q 75 146 135 151 q 71 119 72 132 q 69 96 69 107 q 74 54 69 75 q 92 16 79 33 q 126 -11 104 -1 q 179 -21 147 -21 q 297 13 239 -21 q 406 103 356 47 q 490 225 456 158 l 507 213 q 412 68 469 129 q 287 -27 354 7 q 150 -61 219 -61 m 82 172 q 167 209 119 185 q 258 267 214 233 q 330 340 301 300 q 358 425 358 381 q 353 449 358 440 q 329 457 347 457 q 258 431 296 457 q 186 364 221 406 q 124 272 151 322 q 82 172 96 222 z "},"f":{"ha":433,"x_min":-94,"x_max":547,"o":"m -18 -389 q -50 -380 -32 -389 q -81 -344 -68 -371 q -94 -267 -94 -318 q -74 -108 -94 -206 q -17 108 -53 -10 q 67 351 19 226 q 169 591 114 475 q 281 799 224 707 q 394 946 339 892 q 500 1000 450 1000 q 538 982 529 1000 q 547 939 547 964 q 515 808 547 879 q 428 666 482 738 q 308 530 374 594 q 176 419 243 465 q 163 385 169 403 q 150 350 157 368 q 174 334 165 347 q 185 306 183 321 q 206 194 194 243 q 240 117 217 144 q 306 89 263 89 q 388 124 354 89 q 460 225 421 160 l 481 211 q 392 90 446 128 q 299 53 339 53 q 247 65 274 53 q 196 99 219 78 q 177 -75 196 11 q 128 -232 158 -161 q 60 -346 97 -303 q -18 -389 22 -389 m 18 -322 q 53 -294 33 -322 q 91 -222 72 -267 q 125 -122 110 -176 q 150 -14 140 -68 q 160 83 160 40 q 149 162 160 126 q 113 246 138 197 q 50 44 78 142 q 7 -131 22 -53 q -8 -256 -8 -208 q 18 -322 -8 -322 m 199 476 q 355 644 289 560 q 457 794 421 728 q 493 888 493 860 q 474 907 493 907 q 392 848 438 907 q 296 692 346 789 q 199 476 246 594 z "},"g":{"ha":540,"x_min":-28,"x_max":583,"o":"m 53 -389 q -3 -370 22 -389 q -28 -308 -28 -351 q -2 -231 -28 -267 q 64 -166 24 -196 q 152 -111 104 -136 q 243 -64 200 -86 q 280 41 263 -15 q 314 165 297 97 q 203 38 261 89 q 88 -12 146 -12 q 10 25 38 -12 q -17 122 -17 63 q 19 260 -17 194 q 111 375 54 325 q 232 453 168 425 q 351 482 296 482 q 409 469 392 482 q 426 438 426 456 q 419 418 426 425 q 410 410 413 411 q 389 426 403 421 q 354 431 375 431 q 249 399 300 431 q 160 317 199 367 q 98 213 121 267 q 75 115 75 160 q 88 65 75 82 q 124 47 101 47 q 220 101 164 47 q 329 231 276 154 q 337 265 333 250 q 346 304 340 281 q 366 349 350 324 q 417 375 382 375 q 431 374 424 375 q 446 371 438 374 q 433 290 446 349 q 395 152 419 231 q 339 -10 371 74 q 428 47 385 13 q 508 127 472 82 q 565 225 544 172 l 583 211 q 517 97 563 149 q 419 8 471 46 q 324 -50 367 -29 q 242 -220 285 -143 q 152 -343 199 -297 q 53 -389 106 -389 m 49 -344 q 124 -290 76 -344 q 228 -101 172 -235 q 124 -159 172 -129 q 46 -222 76 -189 q 15 -296 15 -256 q 25 -331 15 -318 q 49 -344 35 -344 z "},"h":{"ha":661,"x_min":8,"x_max":706,"o":"m 65 -53 q 24 -8 39 -53 q 8 92 8 36 q 31 250 8 158 q 89 443 53 342 q 170 642 125 544 q 263 818 215 739 q 351 944 310 897 q 424 992 393 992 q 459 962 449 992 q 469 904 469 932 q 452 810 469 865 q 404 691 435 754 q 333 567 374 628 q 246 455 293 506 q 150 375 199 404 q 122 285 133 335 q 104 187 110 235 q 99 101 99 139 q 99 75 99 86 q 101 54 100 64 q 144 165 121 111 q 193 263 167 218 q 249 342 219 308 q 313 395 279 376 q 383 414 346 414 q 445 395 422 414 q 478 348 468 376 q 489 289 489 319 q 474 206 489 246 q 444 128 460 165 q 429 56 429 90 q 441 15 429 28 q 471 3 453 3 q 542 33 503 3 q 621 115 582 64 q 688 225 660 165 l 706 208 q 635 85 676 140 q 543 -1 593 31 q 439 -33 493 -33 q 367 -8 392 -33 q 343 54 343 17 q 354 119 343 83 q 376 193 365 156 q 386 264 386 231 q 371 315 386 300 q 333 331 356 331 q 271 303 299 331 q 220 231 243 275 q 177 139 197 188 q 139 47 157 90 q 103 -25 121 3 q 65 -53 85 -53 m 168 429 q 244 507 207 460 q 313 608 281 554 q 369 713 344 661 q 408 806 394 764 q 422 868 422 847 q 421 877 422 875 q 417 879 419 879 q 377 841 407 879 q 308 739 347 803 q 232 594 269 675 q 168 429 194 514 z "},"i":{"ha":335,"x_min":-7,"x_max":374,"o":"m 100 -36 q 19 -2 46 -36 q -7 81 -7 32 q 5 161 -7 113 q 36 263 17 210 q 81 364 56 317 q 136 441 107 411 q 193 471 165 471 q 215 463 206 471 q 224 440 224 456 q 202 386 224 424 q 151 300 181 349 q 101 198 122 251 q 79 96 79 144 q 96 29 79 46 q 147 13 113 13 q 248 60 194 13 q 361 225 301 107 l 374 211 q 258 28 333 92 q 100 -36 182 -36 m 267 600 q 227 611 244 600 q 210 646 210 622 q 244 697 210 675 q 311 718 278 718 q 344 708 332 718 q 357 675 357 699 q 328 624 357 649 q 267 600 300 600 z "},"j":{"ha":303,"x_min":-267,"x_max":347,"o":"m -194 -389 q -248 -369 -229 -389 q -267 -318 -267 -349 q -217 -206 -267 -267 q -92 -101 -168 -144 q -51 -81 -72 -90 q -3 -57 -29 -71 q 49 95 25 10 q 90 285 72 181 q 52 219 69 247 q 25 175 35 192 l 13 196 q 55 288 36 239 q 91 382 74 338 q 126 454 108 426 q 165 482 144 482 q 190 470 181 482 q 199 440 199 458 q 191 381 199 425 q 169 274 183 338 q 133 138 154 211 q 88 -11 113 64 q 168 38 128 13 q 249 104 208 63 q 329 218 290 146 l 347 208 q 265 78 313 126 q 167 3 217 31 q 74 -50 117 -25 q 2 -214 43 -136 q -88 -340 -39 -292 q -194 -389 -137 -389 m -207 -342 q -127 -281 -179 -342 q -21 -101 -75 -221 q -178 -208 -126 -153 q -231 -308 -231 -264 q -224 -334 -231 -326 q -207 -342 -217 -342 m 188 607 q 149 618 165 607 q 132 651 132 629 q 148 689 132 672 q 188 715 164 706 q 233 725 211 725 q 266 715 253 725 q 279 686 279 706 q 251 631 279 656 q 188 607 222 607 z "},"k":{"ha":619,"x_min":6,"x_max":660,"o":"m 413 -53 q 346 -26 374 -53 q 302 40 318 0 q 278 123 286 81 q 271 197 271 165 q 315 205 286 197 q 375 228 344 213 q 427 270 406 244 q 449 331 449 296 q 428 376 449 360 q 379 393 407 393 q 299 363 336 393 q 231 285 261 333 q 178 183 201 238 q 138 81 154 129 q 110 0 121 32 q 86 -34 101 -25 q 54 -43 71 -43 q 20 -24 31 -43 q 8 26 10 -4 q 6 88 6 56 q 29 254 6 160 q 92 451 53 349 q 179 649 132 553 q 274 822 226 744 q 361 946 321 900 q 426 992 401 992 q 458 965 446 992 q 469 901 469 939 q 449 795 469 854 q 390 676 428 736 q 299 564 351 617 q 186 474 247 511 q 117 255 140 361 q 94 76 94 149 q 148 199 117 132 q 219 326 179 265 q 307 426 260 388 q 406 465 354 465 q 493 429 457 465 q 529 342 529 393 q 506 266 529 297 q 451 216 483 235 q 385 188 418 197 q 332 179 353 179 q 340 139 333 168 q 360 78 347 110 q 393 23 374 46 q 440 0 413 0 q 517 31 481 0 q 585 112 553 61 q 646 226 618 163 l 660 213 q 600 84 640 144 q 510 -15 560 24 q 413 -53 461 -53 m 210 529 q 322 646 274 581 q 396 772 369 711 q 422 867 422 832 q 422 876 422 874 q 418 879 421 879 q 370 831 404 879 q 293 702 336 782 q 210 529 250 622 z "},"l":{"ha":328,"x_min":4,"x_max":482,"o":"m 115 -42 q 30 -1 56 -42 q 4 101 4 40 q 29 260 4 168 q 95 453 54 351 q 185 651 136 554 q 282 826 233 747 q 372 953 331 906 q 436 1000 413 1000 q 461 983 451 1000 q 476 941 471 965 q 482 897 482 917 q 463 799 482 860 q 410 665 444 739 q 330 515 376 590 q 228 369 283 439 q 113 250 174 300 q 99 177 104 213 q 94 110 94 142 q 110 29 94 56 q 156 3 125 3 q 230 36 193 3 q 299 120 267 69 q 356 225 332 171 l 376 214 q 256 27 321 96 q 115 -42 190 -42 m 125 297 q 219 409 174 346 q 305 540 265 472 q 375 672 344 608 q 422 787 406 736 q 439 865 439 838 q 435 883 439 879 q 429 888 432 888 q 391 852 418 888 q 328 757 364 817 q 254 621 292 697 q 183 461 217 544 q 125 297 149 378 z "},"m":{"ha":897,"x_min":-49,"x_max":940,"o":"m 700 -43 q 629 -13 651 -43 q 607 58 607 17 q 617 128 607 93 q 638 196 628 163 q 649 256 649 229 q 636 294 649 283 q 608 306 624 306 q 533 251 574 306 q 426 99 492 197 q 389 31 404 65 q 360 -31 374 -3 q 332 -28 349 -31 q 302 -19 315 -25 q 289 -3 289 -12 q 302 44 289 7 q 333 130 315 81 q 363 230 350 179 q 376 317 376 281 q 369 355 376 340 q 342 369 361 369 q 268 333 311 369 q 179 236 225 296 q 92 105 133 176 q 26 -37 51 33 q -4 -33 14 -37 q -35 -22 -22 -29 q -49 -8 -49 -15 q -34 41 -49 0 q -1 140 -19 82 q 33 257 18 197 q 47 363 47 317 q 74 382 56 372 q 111 392 92 392 q 140 382 131 392 q 149 356 149 372 q 138 294 149 338 q 113 197 128 250 q 176 288 140 242 q 250 374 211 335 q 328 437 289 413 q 406 461 368 461 q 465 430 449 461 q 481 356 481 399 q 473 283 481 321 q 456 212 465 244 q 438 160 446 179 q 502 262 467 213 q 579 342 538 311 q 668 374 621 374 q 730 347 713 374 q 747 285 747 321 q 735 206 747 249 q 709 122 722 163 q 696 53 696 82 q 705 20 696 35 q 738 6 714 6 q 810 41 776 6 q 874 127 844 76 q 924 225 903 178 l 940 206 q 883 90 918 147 q 802 -6 849 32 q 700 -43 756 -43 z "},"n":{"ha":647,"x_min":-53,"x_max":689,"o":"m 449 -28 q 376 -3 400 -28 q 351 61 351 22 q 362 122 351 90 q 382 188 372 154 q 392 254 392 222 q 376 308 392 293 q 336 322 360 322 q 249 287 293 322 q 163 197 204 251 q 85 83 121 142 q 21 -21 49 25 q -22 -13 -1 -21 q -53 10 -42 -6 q -38 53 -53 17 q -4 142 -24 89 q 31 250 15 194 q 46 351 46 306 q 72 371 54 361 q 110 381 90 381 q 147 344 147 381 q 135 270 147 322 q 103 161 122 218 q 187 274 140 218 q 286 368 233 331 q 392 406 339 406 q 470 367 446 406 q 494 281 494 328 q 481 201 494 238 q 452 130 467 164 q 438 61 438 96 q 449 20 438 32 q 479 8 461 8 q 549 41 514 8 q 616 124 583 74 q 674 225 649 174 l 689 207 q 624 86 660 139 q 544 3 588 33 q 449 -28 501 -28 z "},"o":{"ha":507,"x_min":-14,"x_max":550,"o":"m 96 -44 q 11 -8 36 -44 q -14 82 -14 29 q 0 171 -14 125 q 37 257 14 217 q 88 322 60 297 q 146 347 117 347 q 160 345 153 347 q 175 340 168 343 q 145 299 163 329 q 113 231 128 269 q 87 156 97 193 q 76 92 76 118 q 90 31 76 50 q 126 13 104 13 q 196 44 156 13 q 275 124 236 75 q 215 208 236 156 q 193 314 193 260 q 209 400 193 360 q 256 465 225 440 q 329 489 286 489 q 406 458 386 489 q 425 382 425 428 q 399 262 425 328 q 332 135 372 196 q 385 121 357 121 q 435 130 407 121 q 490 161 463 139 q 533 221 517 183 l 550 207 q 472 115 522 142 q 375 88 421 88 q 340 91 357 88 q 308 101 324 94 q 205 -3 261 39 q 96 -44 149 -44 m 300 160 q 358 267 335 211 q 381 374 381 324 q 369 433 381 414 q 339 451 357 451 q 282 411 311 451 q 253 310 253 371 q 265 228 253 269 q 300 160 276 188 z "},"p":{"ha":543,"x_min":-131,"x_max":500,"o":"m -87 -389 q -109 -377 -99 -389 q -125 -352 -119 -365 q -131 -336 -131 -339 q -92 -215 -111 -268 q -55 -105 -74 -161 q -18 27 -36 -49 q 19 215 0 103 q 58 494 39 328 q 64 513 60 507 q 85 518 68 518 q 136 498 121 518 q 151 454 151 478 q 143 385 151 435 q 119 267 135 335 q 178 360 143 313 q 260 439 214 407 q 360 471 306 471 q 460 427 421 471 q 500 313 500 383 q 476 198 500 258 q 408 84 451 138 q 304 -3 364 31 q 172 -36 244 -36 q 114 -28 136 -36 q 92 -11 92 -19 q 102 -5 92 -6 q 126 -4 113 -4 q 233 23 182 -4 q 324 94 283 50 q 387 193 364 139 q 410 300 410 247 q 391 376 410 344 q 331 407 372 407 q 259 384 294 407 q 192 326 224 361 q 137 252 161 290 q 100 183 113 214 q 50 -17 75 79 q 2 -192 25 -114 q -40 -321 -21 -271 q -71 -382 -58 -371 q -87 -389 -78 -389 z "},"q":{"ha":557,"x_min":-21,"x_max":600,"o":"m 269 -389 q 235 -368 250 -389 q 221 -287 221 -347 q 231 -167 221 -239 q 260 -15 242 -94 q 303 136 278 65 q 191 8 247 57 q 83 -42 135 -42 q 35 -30 60 -42 q -5 8 11 -18 q -21 78 -21 35 q 1 183 -21 126 q 63 294 24 239 q 151 395 101 350 q 257 468 201 440 q 368 496 313 496 q 447 476 415 496 q 478 428 478 457 q 472 402 478 415 q 453 382 465 389 q 432 376 446 376 q 414 430 432 407 q 353 453 396 453 q 265 426 307 453 q 190 356 224 399 q 130 265 156 314 q 90 169 104 215 q 76 92 76 124 q 90 43 76 61 q 125 25 103 25 q 185 51 153 25 q 251 121 217 78 q 319 216 285 164 q 385 319 353 268 q 403 343 394 335 q 422 357 413 351 q 449 363 438 364 q 467 356 461 361 q 474 338 474 349 q 451 278 474 315 q 399 183 428 240 q 351 40 371 125 q 471 84 411 46 q 583 224 531 122 l 600 208 q 484 58 554 103 q 349 7 414 14 q 366 -68 360 -29 q 372 -150 372 -107 q 359 -269 372 -215 q 322 -356 346 -324 q 269 -389 299 -389 m 307 -312 q 326 -286 318 -312 q 338 -219 333 -260 q 342 -137 342 -178 q 340 -84 342 -110 q 332 -33 338 -58 q 305 -172 314 -107 q 296 -274 296 -236 q 299 -302 296 -292 q 307 -312 301 -312 z "},"r":{"ha":483,"x_min":1,"x_max":531,"o":"m 240 -36 q 166 -11 193 -36 q 139 54 139 14 q 158 142 139 96 q 197 233 178 188 q 215 314 215 278 q 190 380 215 358 q 138 419 164 401 q 71 264 106 338 q 14 153 36 190 l 1 176 q 52 282 21 213 q 114 440 83 351 q 100 474 100 454 q 124 542 100 515 q 158 568 147 568 q 176 555 174 568 q 178 535 178 542 q 170 508 178 528 q 163 483 163 488 q 184 448 163 464 q 233 412 206 432 q 283 363 261 392 q 304 290 304 335 q 287 206 304 249 q 252 124 269 163 q 235 56 235 85 q 247 22 235 31 q 276 14 260 14 q 345 35 310 14 q 414 88 381 56 q 474 155 447 119 q 513 221 500 190 l 531 207 q 458 92 504 149 q 356 0 413 36 q 240 -36 300 -36 z "},"s":{"ha":479,"x_min":-28,"x_max":518,"o":"m 146 -71 q 42 -42 81 -71 q -12 28 4 -14 q -28 111 -28 69 q -17 175 -28 153 q 10 208 -6 197 q 41 225 26 219 q 61 236 56 231 q 138 332 103 282 q 199 438 172 382 l 199 454 q 216 527 199 506 q 253 549 233 549 q 269 543 264 549 q 275 531 275 538 q 271 508 275 524 q 267 469 267 493 q 285 370 267 424 q 321 258 303 317 q 339 135 339 199 q 337 99 339 117 q 331 67 335 82 q 422 110 379 75 q 506 224 465 146 l 518 210 q 439 94 492 133 q 324 44 386 54 q 253 -43 301 -15 q 146 -71 206 -71 m 149 -22 q 193 -11 165 -22 q 236 46 221 0 q 133 92 178 57 q 65 161 88 126 q 35 113 35 160 q 65 20 35 63 q 149 -22 94 -22 m 243 68 q 247 97 246 82 q 249 133 249 113 q 233 263 249 199 q 206 385 217 328 q 138 284 174 332 q 71 204 103 236 q 135 121 92 160 q 243 68 179 82 z "},"t":{"ha":396,"x_min":-6,"x_max":440,"o":"m 118 -64 q 26 -29 58 -64 q -6 74 -6 6 q 17 224 -6 135 q 75 408 40 314 q 49 413 61 411 q 25 419 36 415 l 25 444 q 51 442 36 443 q 86 439 67 440 q 149 584 115 514 q 215 709 182 654 q 277 797 247 764 q 328 829 307 829 q 348 822 339 829 q 357 799 357 814 q 328 722 357 775 q 256 594 299 668 q 172 435 213 521 q 198 435 185 435 q 224 435 211 435 q 320 436 269 435 q 422 443 371 438 l 422 418 q 285 406 346 410 q 178 401 225 401 q 167 401 172 401 q 157 401 163 401 q 103 250 125 328 q 81 99 81 172 q 99 13 81 39 q 158 -12 117 -12 q 300 51 231 -12 q 422 225 369 115 l 440 211 q 356 71 407 133 q 244 -28 306 8 q 118 -64 183 -64 z "},"u":{"ha":608,"x_min":0,"x_max":653,"o":"m 104 -42 q 28 1 57 -42 q 0 99 0 43 q 13 192 0 139 q 46 296 26 244 q 86 381 65 347 q 122 414 107 414 q 146 406 129 414 q 174 386 163 399 q 136 314 158 363 q 97 210 114 265 q 81 107 81 154 q 83 73 81 96 q 97 32 86 50 q 131 14 108 14 q 185 41 157 14 q 241 111 213 68 q 296 204 269 154 q 345 300 322 254 q 383 376 368 346 q 408 371 392 375 q 437 360 424 367 q 450 340 450 353 q 436 303 450 335 q 403 227 422 272 q 371 136 385 182 q 357 56 357 90 q 367 15 357 31 q 403 0 378 0 q 474 26 432 0 q 558 103 515 53 q 635 225 601 154 l 653 213 q 576 80 624 138 q 476 -10 529 22 q 374 -42 424 -42 q 316 -28 338 -42 q 285 10 294 -14 q 276 61 276 33 q 279 95 276 78 q 286 131 282 113 q 232 45 261 85 q 171 -18 203 6 q 104 -42 139 -42 z "},"v":{"ha":565,"x_min":14,"x_max":610,"o":"m 90 -54 q 31 -12 47 -54 q 14 99 14 31 q 15 142 14 101 q 22 281 17 183 q 31 332 25 318 q 67 346 36 346 q 97 337 90 346 q 103 301 103 328 q 97 194 103 256 q 90 78 90 132 q 97 19 90 38 q 122 0 104 0 q 178 28 147 0 q 240 103 208 57 q 301 203 272 150 q 351 304 329 256 q 372 430 354 399 q 415 461 389 461 q 453 442 442 461 q 465 408 465 424 q 453 371 465 390 q 429 318 442 351 q 417 222 417 285 q 421 175 417 200 q 439 133 425 150 q 482 117 453 117 q 538 140 511 117 q 592 219 565 163 l 610 206 q 542 113 579 136 q 472 89 506 89 q 396 122 426 89 q 356 224 365 156 q 277 92 322 156 q 183 -12 232 29 q 90 -54 135 -54 z "},"w":{"ha":857,"x_min":0,"x_max":901,"o":"m 392 -54 q 333 -15 349 -54 q 317 81 317 25 q 319 141 317 108 q 326 206 322 174 q 260 88 296 144 q 186 -6 225 31 q 104 -42 147 -42 q 29 0 58 -42 q 0 99 0 42 q 13 192 0 139 q 46 296 26 244 q 86 381 65 347 q 122 414 107 414 q 151 406 129 414 q 174 386 174 399 q 136 314 158 363 q 97 209 114 265 q 81 107 81 153 q 83 73 81 96 q 97 32 86 50 q 129 14 107 14 q 197 54 161 14 q 269 156 233 94 q 338 279 306 217 q 356 363 349 336 q 372 397 364 389 q 393 404 381 404 q 422 397 411 404 q 433 374 433 389 q 433 367 433 371 q 431 358 432 363 q 412 274 421 325 q 397 169 403 224 q 392 68 392 115 q 399 18 392 36 q 422 0 406 0 q 471 26 443 0 q 528 94 499 51 q 587 186 558 136 q 638 285 615 236 q 648 395 638 357 q 674 447 658 433 q 707 461 690 461 q 745 442 733 461 q 757 408 757 424 q 753 388 757 399 q 742 365 749 378 q 719 312 731 344 q 708 222 708 279 q 713 175 708 200 q 731 133 717 150 q 774 117 744 117 q 830 140 803 117 q 883 219 857 163 l 901 206 q 834 113 871 136 q 764 89 797 89 q 691 118 721 89 q 647 206 661 147 q 569 82 613 142 q 481 -16 526 22 q 392 -54 435 -54 z "},"x":{"ha":581,"x_min":14,"x_max":622,"o":"m 61 -82 q 51 -76 56 -82 q 47 -61 47 -71 q 76 -2 47 -44 q 152 99 106 40 q 253 217 199 157 q 235 330 246 282 q 192 378 224 378 q 132 349 158 378 q 81 276 106 321 q 26 179 56 231 l 14 201 q 51 279 33 239 q 89 354 68 319 q 140 410 110 389 q 214 432 169 432 q 294 394 268 432 q 329 300 319 356 q 447 415 394 368 q 518 461 500 461 q 539 457 525 461 q 553 446 553 453 q 504 419 538 446 q 428 346 471 392 q 338 246 385 300 q 344 163 342 204 q 353 88 347 121 q 374 34 360 54 q 413 14 388 14 q 466 35 438 14 q 522 88 494 56 q 572 157 549 121 q 608 224 594 193 l 622 210 q 563 94 603 150 q 475 1 524 38 q 378 -36 426 -36 q 314 -9 338 -36 q 278 62 290 18 q 260 154 267 106 q 152 22 201 85 q 78 -72 103 -40 q 61 -82 69 -82 z "},"y":{"ha":540,"x_min":-28,"x_max":585,"o":"m 60 -389 q -1 -370 25 -389 q -28 -315 -28 -351 q -6 -236 -28 -271 q 54 -172 17 -201 q 140 -117 92 -143 q 242 -64 189 -90 q 281 51 261 -12 q 319 190 301 114 q 224 66 275 118 q 117 14 174 14 q 65 26 90 14 q 22 63 39 38 q 6 126 6 88 q 19 217 6 165 q 51 317 32 268 q 92 397 71 365 q 128 429 113 429 q 148 425 133 429 q 176 413 163 421 q 189 397 189 406 q 161 346 176 379 q 131 272 146 313 q 107 192 117 231 q 97 125 97 153 q 108 85 97 100 q 147 69 119 69 q 206 95 174 69 q 272 161 239 121 q 332 247 304 201 q 340 278 336 263 q 346 311 343 294 q 366 356 350 331 q 417 382 382 382 q 431 381 424 382 q 446 378 438 381 q 433 295 446 356 q 395 154 419 235 q 338 -11 371 74 q 465 72 403 14 q 567 225 528 129 l 585 211 q 522 95 564 144 q 426 10 479 46 q 322 -49 374 -25 q 244 -215 286 -137 q 155 -341 201 -293 q 60 -389 108 -389 m 53 -344 q 123 -290 74 -344 q 228 -97 172 -235 q 122 -158 171 -128 q 44 -222 74 -187 q 15 -303 15 -257 q 24 -329 15 -314 q 53 -344 32 -344 z "},"z":{"ha":440,"x_min":-99,"x_max":481,"o":"m -7 -389 q -74 -373 -50 -389 q -99 -318 -99 -357 q -69 -235 -99 -274 q 11 -162 -39 -197 q 122 -92 61 -128 q 242 -17 182 -57 q 221 75 242 33 q 146 160 200 117 q 228 208 194 174 q 280 285 263 243 q 297 364 297 328 q 284 417 297 396 q 243 438 271 438 q 161 403 197 438 q 94 311 125 368 q 32 186 64 254 l 15 200 q 78 349 46 283 q 156 452 111 414 q 263 490 200 490 q 344 460 310 490 q 378 376 378 429 q 354 283 378 326 q 293 208 331 240 q 214 154 256 175 q 274 95 250 126 q 311 29 299 64 q 405 117 364 69 q 465 225 446 165 l 481 208 q 418 95 461 146 q 319 3 375 44 q 324 -19 322 -7 q 325 -43 325 -32 q 297 -167 325 -106 q 222 -279 269 -229 q 116 -359 175 -329 q -7 -389 57 -389 m -17 -349 q 49 -328 8 -349 q 131 -270 89 -308 q 203 -176 172 -232 q 240 -49 233 -121 q 131 -115 185 -83 q 35 -176 78 -146 q -34 -237 -8 -206 q -60 -303 -60 -268 q -47 -337 -60 -326 q -17 -349 -35 -349 z "},"!":{"ha":361,"x_min":-29,"x_max":464,"o":"m 129 404 q 182 540 153 463 q 244 697 211 617 q 312 847 278 778 q 378 958 346 915 q 436 1000 410 1000 q 456 991 447 1000 q 464 968 464 982 q 444 897 464 949 q 390 770 424 844 q 313 611 356 696 q 225 440 271 526 q 135 276 179 353 q 56 142 92 199 q 53 144 54 143 q 51 146 53 144 q 80 260 65 208 q 108 348 94 311 q 129 404 122 385 m 15 -14 q -16 -5 -3 -14 q -29 24 -29 4 q -2 64 -29 47 q 51 81 25 81 q 78 74 68 81 q 88 47 88 67 q 65 6 88 26 q 15 -14 43 -14 z "},"":{"ha":367,"x_min":-110,"x_max":383,"o":"m -82 -349 q -101 -340 -93 -349 q -110 -317 -110 -331 q -90 -245 -110 -297 q -35 -119 -69 -193 q 41 40 -1 -44 q 129 212 83 125 q 219 376 175 299 q 299 510 263 453 q 301 508 300 508 q 303 506 301 507 q 275 392 290 443 q 247 303 260 340 q 225 247 233 267 q 173 112 203 189 q 110 -46 143 35 q 42 -195 76 -126 q -24 -306 8 -264 q -82 -349 -56 -349 m 303 572 q 276 579 286 572 q 267 604 267 586 q 290 645 267 625 q 339 665 313 665 q 370 656 357 665 q 383 628 383 647 q 357 589 383 606 q 303 572 331 572 z "},"?":{"ha":607,"x_min":150,"x_max":629,"o":"m 324 172 q 289 199 297 186 q 281 238 281 211 q 308 358 281 304 q 374 462 335 413 q 453 562 414 511 q 519 672 492 613 q 546 804 546 731 q 515 922 546 882 q 436 961 483 961 q 339 922 388 961 q 258 815 290 882 q 226 667 226 749 q 229 625 226 643 q 236 588 232 607 q 167 624 183 596 q 150 694 150 653 q 187 843 150 774 q 290 956 224 913 q 442 1000 356 1000 q 578 953 528 1000 q 629 815 629 906 q 608 707 629 754 q 552 619 586 660 q 480 535 518 578 q 409 444 442 493 q 358 329 376 394 q 342 244 344 282 q 324 172 339 207 m 267 -14 q 235 -5 249 -14 q 222 22 222 4 q 249 64 222 47 q 303 81 276 81 q 329 73 319 81 q 339 50 339 65 q 317 6 339 26 q 267 -14 294 -14 z "},"":{"ha":576,"x_min":-69,"x_max":410,"o":"m 118 -389 q -19 -347 32 -389 q -69 -224 -69 -304 q -48 -126 -69 -168 q 8 -46 -26 -83 q 80 29 42 -8 q 151 111 118 67 q 201 214 183 156 q 219 291 215 257 q 236 356 222 325 q 272 332 264 343 q 279 297 279 321 q 252 189 279 238 q 186 96 225 140 q 108 6 147 51 q 41 -93 68 -40 q 14 -212 14 -146 q 45 -319 14 -283 q 124 -354 76 -354 q 221 -319 172 -354 q 301 -223 269 -283 q 333 -89 333 -162 q 331 -52 333 -68 q 324 -18 328 -36 q 393 -51 376 -25 q 410 -114 410 -76 q 373 -247 410 -185 q 270 -349 336 -310 q 118 -389 204 -389 m 253 447 q 226 455 236 447 q 217 478 217 463 q 240 522 217 501 q 289 542 263 542 q 320 533 307 542 q 333 506 333 524 q 307 464 333 481 q 253 447 281 447 z "},",":{"ha":272,"x_min":-14,"x_max":106,"o":"m 10 -122 q -8 -101 -3 -115 q -14 -71 -14 -87 q -1 -8 -14 -43 q 31 53 11 28 q 71 78 50 78 q 95 66 85 78 q 106 39 106 54 q 48 -42 67 -1 q 10 -122 29 -82 z "},".":{"ha":297,"x_min":11,"x_max":128,"o":"m 56 -14 q 24 -5 38 -14 q 11 24 11 4 q 24 52 11 39 q 55 73 36 65 q 92 81 74 81 q 118 74 108 81 q 128 47 128 67 q 117 19 128 33 q 90 -4 107 6 q 56 -14 74 -14 z "},":":{"ha":300,"x_min":14,"x_max":214,"o":"m 142 333 q 110 342 124 333 q 97 371 97 351 q 124 411 97 394 q 178 428 151 428 q 204 421 194 428 q 214 394 214 414 q 192 353 214 374 q 142 333 169 333 m 58 -14 q 27 -5 40 -14 q 14 24 14 4 q 41 64 14 47 q 94 81 68 81 q 121 74 111 81 q 131 47 131 67 q 108 6 131 26 q 58 -14 86 -14 z "},";":{"ha":296,"x_min":1,"x_max":214,"o":"m 25 -122 q 7 -101 13 -115 q 1 -71 1 -87 q 14 -8 1 -43 q 46 53 26 28 q 86 78 65 78 q 110 66 100 78 q 121 39 121 54 q 63 -42 82 -1 q 25 -122 44 -82 m 142 333 q 110 342 124 333 q 97 371 97 351 q 124 411 97 394 q 178 428 151 428 q 204 421 194 428 q 214 394 214 414 q 192 353 214 374 q 142 333 169 333 z "},"":{"ha":731,"x_min":11,"x_max":561,"o":"m 489 -14 q 458 -5 471 -14 q 444 24 444 4 q 457 52 444 39 q 488 73 469 65 q 525 81 507 81 q 551 74 542 81 q 561 47 561 67 q 551 19 561 33 q 524 -4 540 6 q 489 -14 507 -14 m 56 -14 q 24 -5 38 -14 q 11 24 11 4 q 24 52 11 39 q 55 73 36 65 q 92 81 74 81 q 118 74 108 81 q 128 47 128 67 q 117 19 128 33 q 90 -4 107 6 q 56 -14 74 -14 m 272 -14 q 241 -5 254 -14 q 228 24 228 4 q 240 52 228 39 q 272 73 253 65 q 308 81 290 81 q 335 74 325 81 q 344 47 344 67 q 334 19 344 33 q 307 -4 324 6 q 272 -14 290 -14 z "},"":{"ha":290,"x_min":53,"x_max":169,"o":"m 97 172 q 66 181 79 172 q 53 210 53 190 q 65 238 53 225 q 97 259 78 251 q 133 267 115 267 q 160 260 150 267 q 169 233 169 253 q 159 206 169 219 q 132 182 149 192 q 97 172 115 172 z "},"-":{"ha":672,"x_min":50,"x_max":546,"o":"m 50 200 q 81 234 58 221 q 139 255 104 247 q 218 265 174 263 q 313 268 263 268 q 385 267 350 268 q 451 263 419 265 q 506 259 482 261 q 546 256 531 257 q 444 218 492 221 q 347 215 396 215 q 273 215 310 215 q 207 215 236 215 q 158 213 183 215 q 107 208 133 211 q 50 200 81 206 z "},"'":{"ha":174,"x_min":182,"x_max":301,"o":"m 206 800 q 188 821 193 807 q 182 851 182 835 q 194 915 182 881 q 226 975 207 950 q 267 1000 246 1000 q 291 988 281 1000 q 301 961 301 976 q 241 878 263 921 q 206 800 219 836 z "},"\"":{"ha":340,"x_min":182,"x_max":468,"o":"m 372 800 q 354 821 360 807 q 349 851 349 835 q 361 915 349 881 q 393 975 374 950 q 433 1000 413 1000 q 458 988 447 1000 q 468 961 468 976 q 410 881 429 921 q 372 800 392 840 m 206 800 q 188 821 193 807 q 182 851 182 835 q 194 915 182 881 q 226 975 207 950 q 267 1000 246 1000 q 291 988 281 1000 q 301 961 301 976 q 244 881 263 921 q 206 800 225 840 z "},"":{"ha":200,"x_min":175,"x_max":297,"o":"m 271 800 q 231 857 254 826 q 192 915 208 888 q 175 961 175 943 q 185 988 175 976 q 210 1000 196 1000 q 238 943 217 975 q 278 883 258 911 q 297 839 297 856 q 290 817 297 826 q 271 800 282 807 z "},"":{"ha":174,"x_min":172,"x_max":294,"o":"m 199 800 q 181 817 189 807 q 172 839 172 826 q 192 885 172 857 q 232 944 211 914 q 260 1000 253 975 q 284 988 274 1000 q 294 961 294 976 q 278 915 294 943 q 238 857 261 888 q 199 800 215 826 z "},"":{"ha":272,"x_min":-14,"x_max":106,"o":"m 10 -122 q -8 -101 -3 -115 q -14 -71 -14 -87 q -1 -8 -14 -43 q 31 53 11 28 q 71 78 50 78 q 95 66 85 78 q 106 39 106 54 q 48 -42 67 -1 q 10 -122 29 -82 z "},"":{"ha":353,"x_min":175,"x_max":450,"o":"m 424 800 q 385 857 407 826 q 345 915 363 888 q 328 961 328 943 q 338 988 328 976 q 363 1000 349 1000 q 390 944 369 975 q 431 885 411 913 q 450 839 450 857 q 442 817 450 826 q 424 800 435 807 m 271 800 q 231 857 254 826 q 192 915 208 888 q 175 961 175 943 q 185 988 175 976 q 210 1000 196 1000 q 238 944 217 975 q 278 885 258 913 q 297 839 297 857 q 290 817 297 826 q 271 800 282 807 z "},"":{"ha":326,"x_min":172,"x_max":447,"o":"m 351 800 q 333 817 342 807 q 325 839 325 826 q 344 885 325 857 q 385 944 364 913 q 413 1000 406 975 q 437 988 426 1000 q 447 961 447 976 q 431 915 447 943 q 391 857 414 888 q 351 800 368 826 m 199 800 q 181 817 189 807 q 172 839 172 826 q 192 885 172 857 q 232 944 211 913 q 260 1000 253 975 q 284 988 274 1000 q 294 961 294 976 q 278 915 294 943 q 238 857 261 888 q 199 800 215 826 z "},"":{"ha":425,"x_min":-14,"x_max":258,"o":"m 163 -122 q 144 -101 150 -115 q 139 -71 139 -87 q 151 -8 139 -43 q 183 53 164 28 q 224 78 203 78 q 248 66 238 78 q 258 39 258 54 q 201 -42 219 -1 q 163 -122 182 -82 m 10 -122 q -8 -101 -3 -115 q -14 -71 -14 -87 q -1 -8 -14 -43 q 31 53 11 28 q 71 78 50 78 q 95 66 85 78 q 106 39 106 54 q 48 -42 67 -1 q 10 -122 29 -82 z "},"(":{"ha":358,"x_min":79,"x_max":506,"o":"m 197 -121 q 137 -44 164 -100 q 94 92 110 13 q 79 263 79 172 q 111 509 79 396 q 194 713 143 622 q 303 868 244 804 q 415 966 361 932 q 506 1000 468 1000 q 348 845 414 935 q 240 651 282 756 q 179 438 199 547 q 160 225 160 329 q 177 40 160 121 q 225 -92 194 -42 q 213 -110 219 -103 q 197 -121 206 -117 z "},")":{"ha":372,"x_min":-85,"x_max":343,"o":"m -54 -121 q -72 -108 -64 -118 q -85 -87 -79 -99 q 93 89 13 -19 q 223 341 174 197 q 272 660 272 485 q 253 831 272 746 q 174 1000 235 917 q 251 941 211 990 q 317 807 290 892 q 343 604 343 722 q 312 369 343 479 q 231 169 281 258 q 127 14 182 79 q 24 -86 72 -51 q -54 -121 -25 -121 z "},"[":{"ha":546,"x_min":40,"x_max":615,"o":"m 272 -121 q 183 -116 229 -121 q 99 -104 136 -111 q 40 -93 61 -97 q 47 -79 43 -87 q 56 -47 50 -71 q 71 26 61 -24 q 97 159 81 75 q 137 374 113 243 q 196 692 161 504 q 249 871 218 810 q 314 954 281 932 q 376 976 347 976 q 421 974 394 976 q 476 972 447 972 q 549 978 513 972 q 615 1000 586 983 q 592 926 613 950 q 539 896 571 903 q 469 889 507 889 q 396 898 433 889 q 321 913 358 907 q 281 772 301 854 q 242 596 261 690 q 206 406 224 501 q 174 222 189 310 q 144 65 158 133 q 119 -44 131 -4 q 244 -43 194 -44 q 328 -39 293 -42 q 391 -31 363 -36 q 453 -15 419 -25 q 405 -94 447 -68 q 272 -121 363 -121 z "},"]":{"ha":569,"x_min":-19,"x_max":557,"o":"m -19 -122 q 4 -64 -17 -85 q 57 -34 25 -43 q 126 -25 89 -25 q 209 -29 163 -25 q 299 -36 256 -33 q 346 131 322 31 q 393 347 369 232 q 438 576 417 463 q 477 783 458 689 q 510 936 496 878 l 422 936 q 285 931 354 936 q 146 907 215 926 q 194 983 146 967 q 325 1000 242 1000 q 436 992 376 1000 q 557 971 496 985 q 546 899 554 951 q 526 774 538 847 q 501 619 514 701 q 474 454 488 536 q 447 302 460 372 q 425 183 435 232 q 408 104 419 151 q 376 10 396 57 q 326 -67 357 -36 q 247 -99 294 -99 q 103 -102 175 -99 q -19 -122 32 -106 z "},"{":{"ha":361,"x_min":51,"x_max":431,"o":"m 142 -121 q 71 -92 90 -121 q 51 -29 51 -64 q 67 51 51 7 q 103 142 82 94 q 139 235 124 189 q 154 324 154 282 q 145 400 154 365 q 104 460 136 435 q 176 503 153 465 q 210 599 200 542 q 224 719 219 657 q 233 822 228 772 q 251 912 239 871 q 288 976 264 953 q 354 1000 313 1000 q 388 994 372 1000 q 416 972 404 988 q 431 926 428 956 q 408 940 419 933 q 385 946 396 946 q 338 908 354 946 q 312 810 321 869 q 294 688 303 751 q 277 576 288 629 q 248 490 267 524 q 196 451 229 456 q 224 410 215 432 q 232 356 232 388 q 216 237 232 292 q 179 134 200 182 q 142 43 158 86 q 126 -42 126 0 q 136 -73 126 -60 q 172 -86 146 -86 q 207 -75 193 -86 q 185 -111 206 -101 q 142 -121 165 -121 z "},"}":{"ha":356,"x_min":-29,"x_max":364,"o":"m 50 -121 q 15 -115 32 -121 q -15 -92 -3 -108 q -29 -47 -26 -75 q 18 -64 -4 -64 q 64 -28 47 -64 q 91 64 81 8 q 108 179 101 119 q 126 303 115 240 q 158 414 138 365 q 217 482 179 463 q 190 530 197 504 q 182 582 182 556 q 197 676 182 626 q 231 774 211 725 q 266 863 251 822 q 281 933 281 904 q 278 948 281 942 q 264 954 275 954 q 245 949 258 954 q 214 931 232 944 q 244 980 217 960 q 308 1000 272 1000 q 350 985 336 1000 q 364 953 364 971 q 349 890 364 929 q 313 801 333 850 q 276 701 292 753 q 261 603 261 650 q 269 530 261 567 q 310 471 278 493 q 234 415 260 458 q 198 310 208 372 q 182 182 188 249 q 172 72 178 126 q 153 -26 165 18 q 117 -95 142 -69 q 50 -121 92 -121 z "},"&":{"ha":856,"x_min":-4,"x_max":883,"o":"m 267 -121 q 122 -86 183 -121 q 28 6 61 -51 q -4 132 -4 64 q 24 257 -4 196 q 101 369 51 318 q 215 452 150 419 q 356 492 281 485 q 276 594 301 536 q 250 711 250 653 q 288 851 250 785 q 390 958 325 917 q 538 999 454 999 q 651 961 613 999 q 689 851 689 924 q 672 751 689 800 q 631 670 656 701 q 583 639 607 639 q 554 652 568 639 q 532 683 540 665 q 613 773 581 726 q 646 874 646 819 q 623 944 646 917 q 551 971 600 971 q 442 931 486 971 q 374 827 397 892 q 351 688 351 763 q 358 617 351 654 q 381 543 364 579 q 432 478 399 507 q 270 407 339 463 q 163 276 201 351 q 125 128 125 201 q 142 35 125 82 q 199 -42 160 -11 q 303 -74 238 -74 q 445 -36 376 -74 q 570 64 514 1 q 663 205 626 126 q 708 367 699 283 q 655 363 679 365 q 601 355 631 360 q 526 340 572 350 q 571 418 529 399 q 671 438 613 438 q 750 432 713 438 q 822 421 788 426 q 883 414 856 415 q 853 376 868 382 q 825 369 839 369 q 781 369 801 369 q 744 368 761 368 q 692 185 735 272 q 584 28 650 97 q 437 -81 518 -40 q 267 -121 356 -121 z "},"":{"ha":822,"x_min":-24,"x_max":899,"o":"m 24 -121 q -15 -83 -7 -103 q -24 -49 -24 -62 q 5 57 -24 -10 q 81 209 33 124 q 188 386 129 294 q 100 392 136 390 q 38 393 64 393 l -11 393 q 42 449 4 433 q 133 465 81 465 q 182 463 157 465 q 233 456 207 460 q 378 663 304 563 q 517 842 453 764 q 625 961 582 921 q 692 1000 665 1000 q 726 988 707 1000 q 765 956 744 976 q 730 897 751 944 q 684 776 708 849 q 636 618 660 704 q 592 442 613 532 q 560 272 572 353 q 549 131 549 192 q 560 49 549 78 q 600 19 572 19 q 682 69 636 19 q 782 225 728 119 l 796 211 q 690 29 754 100 q 556 -42 625 -42 q 473 9 499 -42 q 447 144 447 60 q 453 242 447 189 q 471 351 460 294 q 359 367 410 361 q 265 379 308 374 q 138 131 200 258 q 24 -121 76 3 m 481 400 q 529 585 501 492 q 588 764 557 679 q 647 913 619 849 q 548 819 604 886 q 429 655 492 751 q 301 443 367 558 q 395 422 349 433 q 481 400 442 410 m 743 1039 q 728 1057 733 1044 q 724 1075 724 1069 q 738 1115 724 1088 q 775 1172 753 1142 q 822 1222 797 1201 q 868 1243 847 1243 q 888 1234 879 1243 q 899 1200 897 1225 q 811 1118 849 1157 q 743 1039 774 1079 z "},"":{"ha":822,"x_min":-24,"x_max":935,"o":"m 24 -121 q -15 -83 -7 -103 q -24 -49 -24 -62 q 5 57 -24 -10 q 81 209 33 124 q 188 386 129 294 q 100 392 136 390 q 38 393 64 393 l -11 393 q 42 449 4 433 q 133 465 81 465 q 182 463 157 465 q 233 456 207 460 q 378 663 304 563 q 517 842 453 764 q 625 961 582 921 q 692 1000 665 1000 q 726 988 707 1000 q 765 956 744 976 q 730 897 751 944 q 684 776 708 849 q 636 618 660 704 q 592 442 613 532 q 560 272 572 353 q 549 131 549 192 q 560 49 549 78 q 600 19 572 19 q 682 69 636 19 q 782 225 728 119 l 796 211 q 690 29 754 100 q 556 -42 625 -42 q 473 9 499 -42 q 447 144 447 60 q 453 242 447 189 q 471 351 460 294 q 359 367 410 361 q 265 379 308 374 q 138 131 200 258 q 24 -121 76 3 m 481 400 q 529 585 501 492 q 588 764 557 679 q 647 913 619 849 q 548 819 604 886 q 429 655 492 751 q 301 443 367 558 q 395 422 349 433 q 481 400 442 410 m 785 1053 q 701 1074 732 1053 q 656 1126 669 1096 q 642 1181 642 1156 q 651 1222 642 1206 q 675 1249 660 1239 q 705 1162 679 1201 q 788 1122 731 1122 q 872 1149 840 1122 q 921 1206 904 1176 q 932 1185 929 1197 q 935 1164 935 1174 q 890 1085 935 1117 q 785 1053 844 1053 z "},"":{"ha":822,"x_min":-24,"x_max":935,"o":"m 24 -121 q -15 -83 -7 -103 q -24 -49 -24 -62 q 5 57 -24 -10 q 81 209 33 124 q 188 386 129 294 q 100 392 136 390 q 38 393 64 393 l -11 393 q 42 449 4 433 q 133 465 81 465 q 182 463 157 465 q 233 456 207 460 q 378 663 304 563 q 517 842 453 764 q 625 961 582 921 q 692 1000 665 1000 q 726 988 707 1000 q 765 956 744 976 q 730 897 751 944 q 684 776 708 849 q 636 618 660 704 q 592 442 613 532 q 560 272 572 353 q 549 131 549 192 q 560 49 549 78 q 600 19 572 19 q 682 69 636 19 q 782 225 728 119 l 796 211 q 690 29 754 100 q 556 -42 625 -42 q 473 9 499 -42 q 447 144 447 60 q 453 242 447 189 q 471 351 460 294 q 359 367 410 361 q 265 379 308 374 q 138 131 200 258 q 24 -121 76 3 m 481 400 q 529 585 501 492 q 588 764 557 679 q 647 913 619 849 q 548 819 604 886 q 429 655 492 751 q 301 443 367 558 q 395 422 349 433 q 481 400 442 410 m 785 1053 q 701 1074 732 1053 q 656 1126 669 1096 q 642 1181 642 1156 q 651 1222 642 1206 q 675 1249 660 1239 q 705 1162 679 1201 q 788 1122 731 1122 q 872 1149 840 1122 q 921 1206 904 1176 q 932 1185 929 1197 q 935 1164 935 1174 q 890 1085 935 1117 q 785 1053 844 1053 m 800 1200 q 779 1218 786 1207 q 772 1240 772 1229 q 785 1277 772 1254 q 817 1323 797 1300 q 858 1361 836 1346 q 897 1376 879 1376 q 917 1367 908 1376 q 928 1333 926 1358 q 878 1288 901 1310 q 836 1244 856 1265 q 800 1200 817 1222 z "},"":{"ha":822,"x_min":-24,"x_max":935,"o":"m 24 -121 q -15 -83 -7 -103 q -24 -49 -24 -62 q 5 57 -24 -10 q 81 209 33 124 q 188 386 129 294 q 100 392 136 390 q 38 393 64 393 l -11 393 q 42 449 4 433 q 133 465 81 465 q 182 463 157 465 q 233 456 207 460 q 378 663 304 563 q 517 842 453 764 q 625 961 582 921 q 692 1000 665 1000 q 726 988 707 1000 q 765 956 744 976 q 730 897 751 944 q 684 776 708 849 q 636 618 660 704 q 592 442 613 532 q 560 272 572 353 q 549 131 549 192 q 560 49 549 78 q 600 19 572 19 q 682 69 636 19 q 782 225 728 119 l 796 211 q 690 29 754 100 q 556 -42 625 -42 q 473 9 499 -42 q 447 144 447 60 q 453 242 447 189 q 471 351 460 294 q 359 367 410 361 q 265 379 308 374 q 138 131 200 258 q 24 -121 76 3 m 481 400 q 529 585 501 492 q 588 764 557 679 q 647 913 619 849 q 548 819 604 886 q 429 655 492 751 q 301 443 367 558 q 395 422 349 433 q 481 400 442 410 m 785 1053 q 701 1074 732 1053 q 656 1126 669 1096 q 642 1181 642 1156 q 651 1222 642 1206 q 675 1249 660 1239 q 705 1162 679 1201 q 788 1122 731 1122 q 872 1149 840 1122 q 921 1206 904 1176 q 932 1185 929 1197 q 935 1164 935 1174 q 890 1085 935 1117 q 785 1053 844 1053 m 242 -261 q 201 -249 217 -261 q 186 -215 186 -237 q 216 -166 186 -185 q 276 -147 246 -147 q 313 -159 300 -147 q 325 -193 325 -171 q 299 -240 325 -219 q 242 -261 272 -261 z "},"":{"ha":822,"x_min":-24,"x_max":935,"o":"m 24 -121 q -15 -83 -7 -103 q -24 -49 -24 -62 q 5 57 -24 -10 q 81 209 33 124 q 188 386 129 294 q 100 392 136 390 q 38 393 64 393 l -11 393 q 42 449 4 433 q 133 465 81 465 q 182 463 157 465 q 233 456 207 460 q 378 663 304 563 q 517 842 453 764 q 625 961 582 921 q 692 1000 665 1000 q 726 988 707 1000 q 765 956 744 976 q 730 897 751 944 q 684 776 708 849 q 636 618 660 704 q 592 442 613 532 q 560 272 572 353 q 549 131 549 192 q 560 49 549 78 q 600 19 572 19 q 682 69 636 19 q 782 225 728 119 l 796 211 q 690 29 754 100 q 556 -42 625 -42 q 473 9 499 -42 q 447 144 447 60 q 453 242 447 189 q 471 351 460 294 q 359 367 410 361 q 265 379 308 374 q 138 131 200 258 q 24 -121 76 3 m 481 400 q 529 585 501 492 q 588 764 557 679 q 647 913 619 849 q 548 819 604 886 q 429 655 492 751 q 301 443 367 558 q 395 422 349 433 q 481 400 442 410 m 785 1053 q 701 1074 732 1053 q 656 1126 669 1096 q 642 1181 642 1156 q 651 1222 642 1206 q 675 1249 660 1239 q 705 1162 679 1201 q 788 1122 731 1122 q 872 1149 840 1122 q 921 1206 904 1176 q 932 1185 929 1197 q 935 1164 935 1174 q 890 1085 935 1117 q 785 1053 844 1053 m 815 1196 q 779 1240 799 1218 q 738 1283 760 1261 q 688 1329 715 1306 q 699 1363 690 1354 q 718 1372 707 1372 q 758 1357 736 1372 q 799 1319 779 1342 q 831 1273 818 1296 q 843 1236 843 1250 q 837 1214 843 1225 q 815 1196 831 1203 z "},"":{"ha":822,"x_min":-24,"x_max":935,"o":"m 24 -121 q -15 -83 -7 -103 q -24 -49 -24 -62 q 5 57 -24 -10 q 81 209 33 124 q 188 386 129 294 q 100 392 136 390 q 38 393 64 393 l -11 393 q 42 449 4 433 q 133 465 81 465 q 182 463 157 465 q 233 456 207 460 q 378 663 304 563 q 517 842 453 764 q 625 961 582 921 q 692 1000 665 1000 q 726 988 707 1000 q 765 956 744 976 q 730 897 751 944 q 684 776 708 849 q 636 618 660 704 q 592 442 613 532 q 560 272 572 353 q 549 131 549 192 q 560 49 549 78 q 600 19 572 19 q 682 69 636 19 q 782 225 728 119 l 796 211 q 690 29 754 100 q 556 -42 625 -42 q 473 9 499 -42 q 447 144 447 60 q 453 242 447 189 q 471 351 460 294 q 359 367 410 361 q 265 379 308 374 q 138 131 200 258 q 24 -121 76 3 m 481 400 q 529 585 501 492 q 588 764 557 679 q 647 913 619 849 q 548 819 604 886 q 429 655 492 751 q 301 443 367 558 q 395 422 349 433 q 481 400 442 410 m 785 1053 q 701 1074 732 1053 q 656 1126 669 1096 q 642 1181 642 1156 q 651 1222 642 1206 q 675 1249 660 1239 q 705 1162 679 1201 q 788 1122 731 1122 q 872 1149 840 1122 q 921 1206 904 1176 q 932 1185 929 1197 q 935 1164 935 1174 q 890 1085 935 1117 q 785 1053 844 1053 m 810 1183 q 781 1188 793 1183 q 763 1199 769 1193 q 829 1216 800 1201 q 858 1265 858 1231 q 826 1311 858 1297 q 729 1325 794 1325 q 747 1370 729 1351 q 796 1389 765 1389 q 874 1358 843 1389 q 904 1282 904 1326 q 878 1211 904 1239 q 810 1183 851 1183 z "},"":{"ha":822,"x_min":-24,"x_max":1043,"o":"m 24 -121 q -15 -83 -7 -103 q -24 -49 -24 -62 q 5 57 -24 -10 q 81 209 33 124 q 188 386 129 294 q 100 392 136 390 q 38 393 64 393 l -11 393 q 42 449 4 433 q 133 465 81 465 q 182 463 157 465 q 233 456 207 460 q 378 663 304 563 q 517 842 453 764 q 625 961 582 921 q 692 1000 665 1000 q 726 988 707 1000 q 765 956 744 976 q 730 897 751 944 q 684 776 708 849 q 636 618 660 704 q 592 442 613 532 q 560 272 572 353 q 549 131 549 192 q 560 49 549 78 q 600 19 572 19 q 682 69 636 19 q 782 225 728 119 l 796 211 q 690 29 754 100 q 556 -42 625 -42 q 473 9 499 -42 q 447 144 447 60 q 453 242 447 189 q 471 351 460 294 q 359 367 410 361 q 265 379 308 374 q 138 131 200 258 q 24 -121 76 3 m 481 400 q 529 585 501 492 q 588 764 557 679 q 647 913 619 849 q 548 819 604 886 q 429 655 492 751 q 301 443 367 558 q 395 422 349 433 q 481 400 442 410 m 785 1053 q 701 1074 732 1053 q 656 1126 669 1096 q 642 1181 642 1156 q 651 1222 642 1206 q 675 1249 660 1239 q 705 1162 679 1201 q 788 1122 731 1122 q 872 1149 840 1122 q 921 1206 904 1176 q 932 1185 929 1197 q 935 1164 935 1174 q 890 1085 935 1117 q 785 1053 844 1053 m 929 1236 q 851 1252 892 1236 q 770 1284 811 1268 q 686 1300 729 1300 q 649 1295 668 1300 q 611 1279 629 1290 q 669 1333 639 1318 q 732 1349 700 1349 q 813 1332 771 1349 q 900 1299 854 1315 q 996 1282 946 1282 q 1043 1293 1018 1282 q 988 1249 1017 1261 q 929 1236 960 1236 z "},"":{"ha":822,"x_min":-24,"x_max":894,"o":"m 24 -121 q -15 -83 -7 -103 q -24 -49 -24 -62 q 5 57 -24 -10 q 81 209 33 124 q 188 386 129 294 q 100 392 136 390 q 38 393 64 393 l -11 393 q 42 449 4 433 q 133 465 81 465 q 182 463 157 465 q 233 456 207 460 q 378 663 304 563 q 517 842 453 764 q 625 961 582 921 q 692 1000 665 1000 q 726 988 707 1000 q 765 956 744 976 q 730 897 751 944 q 684 776 708 849 q 636 618 660 704 q 592 442 613 532 q 560 272 572 353 q 549 131 549 192 q 560 49 549 78 q 600 19 572 19 q 682 69 636 19 q 782 225 728 119 l 796 211 q 690 29 754 100 q 556 -42 625 -42 q 473 9 499 -42 q 447 144 447 60 q 453 242 447 189 q 471 351 460 294 q 359 367 410 361 q 265 379 308 374 q 138 131 200 258 q 24 -121 76 3 m 481 400 q 529 585 501 492 q 588 764 557 679 q 647 913 619 849 q 548 819 604 886 q 429 655 492 751 q 301 443 367 558 q 395 422 349 433 q 481 400 442 410 m 871 1033 q 826 1102 851 1074 q 768 1161 801 1131 q 691 1128 725 1146 q 625 1082 657 1110 q 614 1095 617 1088 q 611 1108 611 1103 q 630 1150 611 1129 q 676 1190 649 1171 q 729 1219 703 1208 q 769 1231 756 1231 q 808 1215 786 1231 q 849 1176 829 1200 q 881 1125 868 1151 q 894 1076 894 1099 q 889 1051 894 1063 q 871 1033 883 1040 z "},"":{"ha":822,"x_min":-24,"x_max":1046,"o":"m 24 -121 q -15 -83 -7 -103 q -24 -49 -24 -62 q 5 57 -24 -10 q 81 209 33 124 q 188 386 129 294 q 100 392 136 390 q 38 393 64 393 l -11 393 q 42 449 4 433 q 133 465 81 465 q 182 463 157 465 q 233 456 207 460 q 378 663 304 563 q 517 842 453 764 q 625 961 582 921 q 692 1000 665 1000 q 726 988 707 1000 q 765 956 744 976 q 730 897 751 944 q 684 776 708 849 q 636 618 660 704 q 592 442 613 532 q 560 272 572 353 q 549 131 549 192 q 560 49 549 78 q 600 19 572 19 q 682 69 636 19 q 782 225 728 119 l 796 211 q 690 29 754 100 q 556 -42 625 -42 q 473 9 499 -42 q 447 144 447 60 q 453 242 447 189 q 471 351 460 294 q 359 367 410 361 q 265 379 308 374 q 138 131 200 258 q 24 -121 76 3 m 481 400 q 529 585 501 492 q 588 764 557 679 q 647 913 619 849 q 548 819 604 886 q 429 655 492 751 q 301 443 367 558 q 395 422 349 433 q 481 400 442 410 m 918 1165 q 897 1183 904 1172 q 890 1206 890 1194 q 903 1242 890 1219 q 935 1288 915 1265 q 976 1326 954 1311 q 1015 1342 997 1342 q 1035 1333 1026 1342 q 1046 1299 1044 1324 q 997 1253 1019 1275 q 954 1209 974 1231 q 918 1165 935 1188 m 871 1033 q 826 1102 851 1074 q 768 1161 801 1131 q 691 1128 725 1146 q 625 1082 657 1110 q 614 1095 617 1088 q 611 1108 611 1103 q 630 1150 611 1129 q 676 1190 649 1171 q 729 1219 703 1208 q 769 1231 756 1231 q 808 1215 786 1231 q 849 1176 829 1200 q 881 1125 868 1151 q 894 1076 894 1099 q 889 1051 894 1063 q 871 1033 883 1040 z "},"":{"ha":822,"x_min":-24,"x_max":894,"o":"m 24 -121 q -15 -83 -7 -103 q -24 -49 -24 -62 q 5 57 -24 -10 q 81 209 33 124 q 188 386 129 294 q 100 392 136 390 q 38 393 64 393 l -11 393 q 42 449 4 433 q 133 465 81 465 q 182 463 157 465 q 233 456 207 460 q 378 663 304 563 q 517 842 453 764 q 625 961 582 921 q 692 1000 665 1000 q 726 988 707 1000 q 765 956 744 976 q 730 897 751 944 q 684 776 708 849 q 636 618 660 704 q 592 442 613 532 q 560 272 572 353 q 549 131 549 192 q 560 49 549 78 q 600 19 572 19 q 682 69 636 19 q 782 225 728 119 l 796 211 q 690 29 754 100 q 556 -42 625 -42 q 473 9 499 -42 q 447 144 447 60 q 453 242 447 189 q 471 351 460 294 q 359 367 410 361 q 265 379 308 374 q 138 131 200 258 q 24 -121 76 3 m 481 400 q 529 585 501 492 q 588 764 557 679 q 647 913 619 849 q 548 819 604 886 q 429 655 492 751 q 301 443 367 558 q 395 422 349 433 q 481 400 442 410 m 871 1033 q 826 1102 851 1074 q 768 1161 801 1131 q 691 1128 725 1146 q 625 1082 657 1110 q 614 1095 617 1088 q 611 1108 611 1103 q 630 1150 611 1129 q 676 1190 649 1171 q 729 1219 703 1208 q 769 1231 756 1231 q 808 1215 786 1231 q 849 1176 829 1200 q 881 1125 868 1151 q 894 1076 894 1099 q 889 1051 894 1063 q 871 1033 883 1040 m 242 -261 q 201 -249 217 -261 q 186 -215 186 -237 q 216 -166 186 -185 q 276 -147 246 -147 q 313 -159 300 -147 q 325 -193 325 -171 q 299 -240 325 -219 q 242 -261 272 -261 z "},"":{"ha":822,"x_min":-24,"x_max":971,"o":"m 24 -121 q -15 -83 -7 -103 q -24 -49 -24 -62 q 5 57 -24 -10 q 81 209 33 124 q 188 386 129 294 q 100 392 136 390 q 38 393 64 393 l -11 393 q 42 449 4 433 q 133 465 81 465 q 182 463 157 465 q 233 456 207 460 q 378 663 304 563 q 517 842 453 764 q 625 961 582 921 q 692 1000 665 1000 q 726 988 707 1000 q 765 956 744 976 q 730 897 751 944 q 684 776 708 849 q 636 618 660 704 q 592 442 613 532 q 560 272 572 353 q 549 131 549 192 q 560 49 549 78 q 600 19 572 19 q 682 69 636 19 q 782 225 728 119 l 796 211 q 690 29 754 100 q 556 -42 625 -42 q 473 9 499 -42 q 447 144 447 60 q 453 242 447 189 q 471 351 460 294 q 359 367 410 361 q 265 379 308 374 q 138 131 200 258 q 24 -121 76 3 m 481 400 q 529 585 501 492 q 588 764 557 679 q 647 913 619 849 q 548 819 604 886 q 429 655 492 751 q 301 443 367 558 q 395 422 349 433 q 481 400 442 410 m 942 1163 q 913 1210 929 1186 q 876 1258 896 1233 q 832 1310 856 1283 q 844 1341 835 1333 q 867 1349 854 1349 q 902 1332 883 1349 q 936 1291 921 1315 q 961 1243 951 1267 q 971 1204 971 1219 q 942 1163 971 1174 m 871 1033 q 826 1102 851 1074 q 768 1161 801 1131 q 691 1128 725 1146 q 625 1082 657 1110 q 614 1095 617 1088 q 611 1108 611 1103 q 630 1150 611 1129 q 676 1190 649 1171 q 729 1219 703 1208 q 769 1231 756 1231 q 808 1215 786 1231 q 849 1176 829 1200 q 881 1125 868 1151 q 894 1076 894 1099 q 889 1051 894 1063 q 871 1033 883 1040 z "},"":{"ha":822,"x_min":-24,"x_max":1038,"o":"m 24 -121 q -15 -83 -7 -103 q -24 -49 -24 -62 q 5 57 -24 -10 q 81 209 33 124 q 188 386 129 294 q 100 392 136 390 q 38 393 64 393 l -11 393 q 42 449 4 433 q 133 465 81 465 q 182 463 157 465 q 233 456 207 460 q 378 663 304 563 q 517 842 453 764 q 625 961 582 921 q 692 1000 665 1000 q 726 988 707 1000 q 765 956 744 976 q 730 897 751 944 q 684 776 708 849 q 636 618 660 704 q 592 442 613 532 q 560 272 572 353 q 549 131 549 192 q 560 49 549 78 q 600 19 572 19 q 682 69 636 19 q 782 225 728 119 l 796 211 q 690 29 754 100 q 556 -42 625 -42 q 473 9 499 -42 q 447 144 447 60 q 453 242 447 189 q 471 351 460 294 q 359 367 410 361 q 265 379 308 374 q 138 131 200 258 q 24 -121 76 3 m 481 400 q 529 585 501 492 q 588 764 557 679 q 647 913 619 849 q 548 819 604 886 q 429 655 492 751 q 301 443 367 558 q 395 422 349 433 q 481 400 442 410 m 956 1151 q 931 1156 942 1151 q 913 1167 919 1161 q 967 1184 942 1169 q 992 1228 992 1199 q 960 1275 992 1260 q 863 1290 928 1290 q 881 1335 863 1317 q 929 1354 899 1354 q 1007 1320 976 1354 q 1038 1238 1038 1286 q 1015 1175 1038 1199 q 956 1151 992 1151 m 871 1033 q 826 1102 851 1074 q 768 1161 801 1131 q 691 1128 725 1146 q 625 1082 657 1110 q 614 1095 617 1088 q 611 1108 611 1103 q 630 1150 611 1129 q 676 1190 649 1171 q 729 1219 703 1208 q 769 1231 756 1231 q 808 1215 786 1231 q 849 1176 829 1200 q 881 1125 868 1151 q 894 1076 894 1099 q 889 1051 894 1063 q 871 1033 883 1040 z "},"":{"ha":822,"x_min":-24,"x_max":1043,"o":"m 24 -121 q -15 -83 -7 -103 q -24 -49 -24 -62 q 5 57 -24 -10 q 81 209 33 124 q 188 386 129 294 q 100 392 136 390 q 38 393 64 393 l -11 393 q 42 449 4 433 q 133 465 81 465 q 182 463 157 465 q 233 456 207 460 q 378 663 304 563 q 517 842 453 764 q 625 961 582 921 q 692 1000 665 1000 q 726 988 707 1000 q 765 956 744 976 q 730 897 751 944 q 684 776 708 849 q 636 618 660 704 q 592 442 613 532 q 560 272 572 353 q 549 131 549 192 q 560 49 549 78 q 600 19 572 19 q 682 69 636 19 q 782 225 728 119 l 796 211 q 690 29 754 100 q 556 -42 625 -42 q 473 9 499 -42 q 447 144 447 60 q 453 242 447 189 q 471 351 460 294 q 359 367 410 361 q 265 379 308 374 q 138 131 200 258 q 24 -121 76 3 m 481 400 q 529 585 501 492 q 588 764 557 679 q 647 913 619 849 q 548 819 604 886 q 429 655 492 751 q 301 443 367 558 q 395 422 349 433 q 481 400 442 410 m 785 1053 q 701 1074 732 1053 q 656 1126 669 1096 q 642 1181 642 1156 q 651 1222 642 1206 q 675 1249 660 1239 q 705 1162 679 1201 q 788 1122 731 1122 q 872 1149 840 1122 q 921 1206 904 1176 q 932 1185 929 1197 q 935 1164 935 1174 q 890 1085 935 1117 q 785 1053 844 1053 m 929 1236 q 851 1252 892 1236 q 770 1284 811 1268 q 686 1300 729 1300 q 649 1295 668 1300 q 611 1279 629 1290 q 669 1333 639 1318 q 732 1349 700 1349 q 813 1332 771 1349 q 900 1299 854 1315 q 996 1282 946 1282 q 1043 1293 1018 1282 q 988 1249 1017 1261 q 929 1236 960 1236 z "},"":{"ha":822,"x_min":-24,"x_max":829,"o":"m 24 -121 q -15 -83 -7 -103 q -24 -49 -24 -62 q 5 57 -24 -10 q 81 209 33 124 q 188 386 129 294 q 100 392 136 390 q 38 393 64 393 l -11 393 q 42 449 4 433 q 133 465 81 465 q 182 463 157 465 q 233 456 207 460 q 378 663 304 563 q 517 842 453 764 q 625 961 582 921 q 692 1000 665 1000 q 726 988 707 1000 q 765 956 744 976 q 730 897 751 944 q 684 776 708 849 q 636 618 660 704 q 592 442 613 532 q 560 272 572 353 q 549 131 549 192 q 560 49 549 78 q 600 19 572 19 q 682 69 636 19 q 782 225 728 119 l 796 211 q 690 29 754 100 q 556 -42 625 -42 q 473 9 499 -42 q 447 144 447 60 q 453 242 447 189 q 471 351 460 294 q 359 367 410 361 q 265 379 308 374 q 138 131 200 258 q 24 -121 76 3 m 481 400 q 529 585 501 492 q 588 764 557 679 q 647 913 619 849 q 548 819 604 886 q 429 655 492 751 q 301 443 367 558 q 395 422 349 433 q 481 400 442 410 m 710 1038 q 649 1121 682 1078 q 576 1210 615 1164 q 594 1226 585 1219 q 617 1233 604 1233 q 653 1214 635 1233 q 688 1166 672 1194 q 715 1111 704 1138 q 725 1069 725 1085 q 710 1038 725 1049 m 801 1044 q 758 1122 783 1081 q 701 1201 732 1163 q 719 1229 710 1222 q 738 1236 728 1236 q 772 1219 756 1236 q 801 1176 789 1201 q 822 1126 814 1151 q 829 1086 829 1101 q 821 1056 829 1065 q 801 1044 813 1047 z "},"":{"ha":822,"x_min":-24,"x_max":928,"o":"m 24 -121 q -15 -83 -7 -103 q -24 -49 -24 -62 q 5 57 -24 -10 q 81 209 33 124 q 188 386 129 294 q 100 392 136 390 q 38 393 64 393 l -11 393 q 42 449 4 433 q 133 465 81 465 q 182 463 157 465 q 233 456 207 460 q 378 663 304 563 q 517 842 453 764 q 625 961 582 921 q 692 1000 665 1000 q 726 988 707 1000 q 765 956 744 976 q 730 897 751 944 q 684 776 708 849 q 636 618 660 704 q 592 442 613 532 q 560 272 572 353 q 549 131 549 192 q 560 49 549 78 q 600 19 572 19 q 682 69 636 19 q 782 225 728 119 l 796 211 q 690 29 754 100 q 556 -42 625 -42 q 473 9 499 -42 q 447 144 447 60 q 453 242 447 189 q 471 351 460 294 q 359 367 410 361 q 265 379 308 374 q 138 131 200 258 q 24 -121 76 3 m 481 400 q 529 585 501 492 q 588 764 557 679 q 647 913 619 849 q 548 819 604 886 q 429 655 492 751 q 301 443 367 558 q 395 422 349 433 q 481 400 442 410 m 846 1046 q 810 1056 825 1046 q 794 1088 794 1065 q 825 1133 794 1114 q 886 1153 856 1153 q 917 1144 906 1153 q 928 1114 928 1136 q 902 1068 928 1090 q 846 1046 876 1046 m 646 1075 q 610 1085 625 1075 q 594 1117 594 1094 q 625 1163 594 1143 q 686 1182 656 1182 q 717 1174 706 1182 q 728 1143 728 1165 q 702 1097 728 1119 q 646 1075 676 1075 z "},"":{"ha":822,"x_min":-24,"x_max":796,"o":"m 24 -121 q -15 -83 -7 -103 q -24 -49 -24 -62 q 5 57 -24 -10 q 81 209 33 124 q 188 386 129 294 q 100 392 136 390 q 38 393 64 393 l -11 393 q 42 449 4 433 q 133 465 81 465 q 182 463 157 465 q 233 456 207 460 q 378 663 304 563 q 517 842 453 764 q 625 961 582 921 q 692 1000 665 1000 q 726 988 707 1000 q 765 956 744 976 q 730 897 751 944 q 684 776 708 849 q 636 618 660 704 q 592 442 613 532 q 560 272 572 353 q 549 131 549 192 q 560 49 549 78 q 600 19 572 19 q 682 69 636 19 q 782 225 728 119 l 796 211 q 690 29 754 100 q 556 -42 625 -42 q 473 9 499 -42 q 447 144 447 60 q 453 242 447 189 q 471 351 460 294 q 359 367 410 361 q 265 379 308 374 q 138 131 200 258 q 24 -121 76 3 m 481 400 q 529 585 501 492 q 588 764 557 679 q 647 913 619 849 q 548 819 604 886 q 429 655 492 751 q 301 443 367 558 q 395 422 349 433 q 481 400 442 410 m 242 -261 q 201 -249 217 -261 q 186 -215 186 -237 q 216 -166 186 -185 q 276 -147 246 -147 q 313 -159 300 -147 q 325 -193 325 -171 q 299 -240 325 -219 q 242 -261 272 -261 z "},"":{"ha":822,"x_min":-24,"x_max":796,"o":"m 24 -121 q -15 -83 -7 -103 q -24 -49 -24 -62 q 5 57 -24 -10 q 81 209 33 124 q 188 386 129 294 q 100 392 136 390 q 38 393 64 393 l -11 393 q 42 449 4 433 q 133 465 81 465 q 182 463 157 465 q 233 456 207 460 q 378 663 304 563 q 517 842 453 764 q 625 961 582 921 q 692 1000 665 1000 q 726 988 707 1000 q 765 956 744 976 q 730 897 751 944 q 684 776 708 849 q 636 618 660 704 q 592 442 613 532 q 560 272 572 353 q 549 131 549 192 q 560 49 549 78 q 600 19 572 19 q 682 69 636 19 q 782 225 728 119 l 796 211 q 690 29 754 100 q 556 -42 625 -42 q 473 9 499 -42 q 447 144 447 60 q 453 242 447 189 q 471 351 460 294 q 359 367 410 361 q 265 379 308 374 q 138 131 200 258 q 24 -121 76 3 m 481 400 q 529 585 501 492 q 588 764 557 679 q 647 913 619 849 q 548 819 604 886 q 429 655 492 751 q 301 443 367 558 q 395 422 349 433 q 481 400 442 410 m 740 1039 q 672 1118 710 1079 q 585 1200 635 1157 q 596 1234 588 1225 q 615 1243 604 1243 q 661 1222 636 1243 q 708 1172 686 1201 q 745 1115 731 1142 q 760 1075 760 1088 q 756 1057 760 1069 q 740 1039 751 1044 z "},"":{"ha":822,"x_min":-24,"x_max":876,"o":"m 24 -121 q -15 -83 -7 -103 q -24 -49 -24 -62 q 5 57 -24 -10 q 81 209 33 124 q 188 386 129 294 q 100 392 136 390 q 38 393 64 393 l -11 393 q 42 449 4 433 q 133 465 81 465 q 182 463 157 465 q 233 456 207 460 q 378 663 304 563 q 517 842 453 764 q 625 961 582 921 q 692 1000 665 1000 q 726 988 707 1000 q 765 956 744 976 q 730 897 751 944 q 684 776 708 849 q 636 618 660 704 q 592 442 613 532 q 560 272 572 353 q 549 131 549 192 q 560 49 549 78 q 600 19 572 19 q 682 69 636 19 q 782 225 728 119 l 796 211 q 690 29 754 100 q 556 -42 625 -42 q 473 9 499 -42 q 447 144 447 60 q 453 242 447 189 q 471 351 460 294 q 359 367 410 361 q 265 379 308 374 q 138 131 200 258 q 24 -121 76 3 m 481 400 q 529 585 501 492 q 588 764 557 679 q 647 913 619 849 q 548 819 604 886 q 429 655 492 751 q 301 443 367 558 q 395 422 349 433 q 481 400 442 410 m 782 1042 q 753 1047 765 1042 q 735 1057 742 1051 q 801 1074 772 1060 q 831 1124 831 1089 q 799 1169 831 1156 q 701 1183 767 1183 q 719 1228 701 1210 q 768 1247 738 1247 q 846 1216 815 1247 q 876 1140 876 1185 q 850 1069 876 1097 q 782 1042 824 1042 z "},"":{"ha":822,"x_min":-24,"x_max":917,"o":"m 24 -121 q -15 -83 -7 -103 q -24 -49 -24 -62 q 5 57 -24 -10 q 81 209 33 124 q 188 386 129 294 q 100 392 136 390 q 38 393 64 393 l -11 393 q 42 449 4 433 q 133 465 81 465 q 182 463 157 465 q 233 456 207 460 q 378 663 304 563 q 517 842 453 764 q 625 961 582 921 q 692 1000 665 1000 q 726 988 707 1000 q 765 956 744 976 q 730 897 751 944 q 684 776 708 849 q 636 618 660 704 q 592 442 613 532 q 560 272 572 353 q 549 131 549 192 q 560 49 549 78 q 600 19 572 19 q 682 69 636 19 q 782 225 728 119 l 796 211 q 690 29 754 100 q 556 -42 625 -42 q 473 9 499 -42 q 447 144 447 60 q 453 242 447 189 q 471 351 460 294 q 359 367 410 361 q 265 379 308 374 q 138 131 200 258 q 24 -121 76 3 m 481 400 q 529 585 501 492 q 588 764 557 679 q 647 913 619 849 q 548 819 604 886 q 429 655 492 751 q 301 443 367 558 q 395 422 349 433 q 481 400 442 410 m 883 1011 q 852 1098 879 1058 q 760 1138 825 1138 q 682 1110 711 1138 q 638 1054 653 1083 q 627 1074 631 1063 q 624 1096 624 1086 q 667 1175 624 1143 q 772 1207 710 1207 q 854 1187 822 1207 q 901 1138 886 1167 q 917 1086 917 1110 q 908 1041 917 1060 q 883 1011 899 1022 z "},"":{"ha":822,"x_min":-24,"x_max":946,"o":"m 24 -121 q -15 -83 -7 -103 q -24 -49 -24 -62 q 5 57 -24 -10 q 81 209 33 124 q 188 386 129 294 q 100 392 136 390 q 38 393 64 393 l -11 393 q 42 449 4 433 q 133 465 81 465 q 182 463 157 465 q 233 456 207 460 q 378 663 304 563 q 517 842 453 764 q 625 961 582 921 q 692 1000 665 1000 q 726 988 707 1000 q 765 956 744 976 q 730 897 751 944 q 684 776 708 849 q 636 618 660 704 q 592 442 613 532 q 560 272 572 353 q 549 131 549 192 q 560 49 549 78 q 600 19 572 19 q 682 69 636 19 q 782 225 728 119 l 796 211 q 690 29 754 100 q 556 -42 625 -42 q 473 9 499 -42 q 447 144 447 60 q 453 242 447 189 q 471 351 460 294 q 359 367 410 361 q 265 379 308 374 q 138 131 200 258 q 24 -121 76 3 m 481 400 q 529 585 501 492 q 588 764 557 679 q 647 913 619 849 q 548 819 604 886 q 429 655 492 751 q 301 443 367 558 q 395 422 349 433 q 481 400 442 410 m 893 1050 q 817 1058 863 1050 q 720 1076 771 1065 q 624 1095 669 1086 q 547 1107 579 1104 q 611 1143 561 1143 q 721 1133 663 1143 q 838 1108 779 1122 q 946 1078 897 1093 q 893 1050 926 1050 z "},"":{"ha":822,"x_min":-24,"x_max":796,"o":"m 24 -121 q -15 -83 -7 -103 q -24 -49 -24 -62 q 5 57 -24 -10 q 81 209 33 124 q 188 386 129 294 q 100 392 136 390 q 38 393 64 393 l -11 393 q 42 449 4 433 q 133 465 81 465 q 182 463 157 465 q 233 456 207 460 q 378 663 304 563 q 517 842 453 764 q 625 961 582 921 q 692 1000 665 1000 q 726 988 707 1000 q 765 956 744 976 q 730 897 751 944 q 684 776 708 849 q 636 618 660 704 q 592 442 613 532 q 560 272 572 353 q 549 131 549 192 q 560 49 549 78 q 600 19 572 19 q 682 69 636 19 q 782 225 728 119 l 796 211 q 690 29 754 100 q 556 -42 625 -42 q 473 9 499 -42 q 447 144 447 60 q 453 242 447 189 q 471 351 460 294 q 359 367 410 361 q 265 379 308 374 q 138 131 200 258 q 24 -121 76 3 m 481 400 q 529 585 501 492 q 588 764 557 679 q 647 913 619 849 q 548 819 604 886 q 429 655 492 751 q 301 443 367 558 q 395 422 349 433 q 481 400 442 410 m 635 -217 q 565 -190 592 -217 q 539 -122 539 -164 q 569 -48 539 -76 q 639 -14 599 -19 q 603 -49 617 -29 q 589 -96 589 -68 q 606 -138 589 -119 q 657 -157 622 -157 q 693 -151 676 -157 q 726 -133 710 -146 q 700 -194 725 -172 q 635 -217 675 -217 z "},"":{"ha":822,"x_min":-24,"x_max":917,"o":"m 24 -121 q -15 -83 -7 -103 q -24 -49 -24 -62 q 5 57 -24 -10 q 81 209 33 124 q 188 386 129 294 q 100 392 136 390 q 38 393 64 393 l -11 393 q 42 449 4 433 q 133 465 81 465 q 182 463 157 465 q 233 456 207 460 q 378 663 304 563 q 517 842 453 764 q 625 961 582 921 q 692 1000 665 1000 q 726 988 707 1000 q 765 956 744 976 q 730 897 751 944 q 684 776 708 849 q 636 618 660 704 q 592 442 613 532 q 560 272 572 353 q 549 131 549 192 q 560 49 549 78 q 600 19 572 19 q 682 69 636 19 q 782 225 728 119 l 796 211 q 690 29 754 100 q 556 -42 625 -42 q 473 9 499 -42 q 447 144 447 60 q 453 242 447 189 q 471 351 460 294 q 359 367 410 361 q 265 379 308 374 q 138 131 200 258 q 24 -121 76 3 m 481 400 q 529 585 501 492 q 588 764 557 679 q 647 913 619 849 q 548 819 604 886 q 429 655 492 751 q 301 443 367 558 q 395 422 349 433 q 481 400 442 410 m 742 1047 q 665 1069 688 1047 q 642 1122 642 1092 q 665 1192 642 1156 q 726 1253 688 1228 q 811 1278 764 1278 q 892 1256 868 1278 q 917 1203 917 1235 q 892 1133 917 1169 q 828 1072 868 1097 q 742 1047 789 1047 m 754 1075 q 807 1094 782 1075 q 849 1142 832 1114 q 865 1194 865 1171 q 851 1230 865 1214 q 804 1246 836 1246 q 751 1228 776 1246 q 711 1183 726 1210 q 696 1132 696 1157 q 710 1094 696 1114 q 754 1075 724 1075 z "},"":{"ha":822,"x_min":-24,"x_max":1024,"o":"m 24 -121 q -15 -83 -7 -103 q -24 -49 -24 -62 q 5 57 -24 -10 q 81 209 33 124 q 188 386 129 294 q 100 392 136 390 q 38 393 64 393 l -11 393 q 42 449 4 433 q 133 465 81 465 q 182 463 157 465 q 233 456 207 460 q 378 663 304 563 q 517 842 453 764 q 625 961 582 921 q 692 1000 665 1000 q 726 988 707 1000 q 765 956 744 976 q 730 897 751 944 q 684 776 708 849 q 636 618 660 704 q 592 442 613 532 q 560 272 572 353 q 549 131 549 192 q 560 49 549 78 q 600 19 572 19 q 682 69 636 19 q 782 225 728 119 l 796 211 q 690 29 754 100 q 556 -42 625 -42 q 473 9 499 -42 q 447 144 447 60 q 453 242 447 189 q 471 351 460 294 q 359 367 410 361 q 265 379 308 374 q 138 131 200 258 q 24 -121 76 3 m 481 400 q 529 585 501 492 q 588 764 557 679 q 647 913 619 849 q 548 819 604 886 q 429 655 492 751 q 301 443 367 558 q 395 422 349 433 q 481 400 442 410 m 742 1047 q 665 1069 688 1047 q 642 1122 642 1092 q 665 1192 642 1156 q 726 1253 688 1228 q 811 1278 764 1278 q 892 1256 868 1278 q 917 1203 917 1235 q 892 1133 917 1169 q 828 1072 868 1097 q 742 1047 789 1047 m 754 1075 q 807 1094 782 1075 q 849 1142 832 1114 q 865 1194 865 1171 q 851 1230 865 1214 q 804 1246 836 1246 q 751 1228 776 1246 q 711 1183 726 1210 q 696 1132 696 1157 q 710 1094 696 1114 q 754 1075 724 1075 m 868 1317 q 853 1335 858 1322 q 849 1353 849 1347 q 863 1392 849 1365 q 900 1449 878 1419 q 947 1500 922 1479 q 993 1521 972 1521 q 1013 1512 1004 1521 q 1024 1478 1022 1503 q 936 1396 974 1435 q 868 1317 899 1357 z "},"":{"ha":822,"x_min":-24,"x_max":976,"o":"m 24 -121 q -15 -83 -7 -103 q -24 -49 -24 -62 q 5 57 -24 -10 q 81 209 33 124 q 188 386 129 294 q 100 392 136 390 q 38 393 64 393 l -11 393 q 42 449 4 433 q 133 465 81 465 q 182 463 157 465 q 233 456 207 460 q 378 663 304 563 q 517 842 453 764 q 625 961 582 921 q 692 1000 665 1000 q 726 988 707 1000 q 765 956 744 976 q 730 897 751 944 q 684 776 708 849 q 636 618 660 704 q 592 442 613 532 q 560 272 572 353 q 549 131 549 192 q 560 49 549 78 q 600 19 572 19 q 682 69 636 19 q 782 225 728 119 l 796 211 q 690 29 754 100 q 556 -42 625 -42 q 473 9 499 -42 q 447 144 447 60 q 453 242 447 189 q 471 351 460 294 q 359 367 410 361 q 265 379 308 374 q 138 131 200 258 q 24 -121 76 3 m 481 400 q 529 585 501 492 q 588 764 557 679 q 647 913 619 849 q 548 819 604 886 q 429 655 492 751 q 301 443 367 558 q 395 422 349 433 q 481 400 442 410 m 863 1057 q 785 1073 825 1057 q 703 1105 744 1089 q 619 1121 663 1121 q 582 1116 601 1121 q 544 1100 563 1111 q 603 1154 572 1139 q 665 1169 633 1169 q 746 1153 704 1169 q 833 1119 788 1136 q 929 1103 879 1103 q 976 1114 951 1103 q 922 1069 950 1082 q 863 1057 893 1057 z "},"":{"ha":1038,"x_min":-24,"x_max":1121,"o":"m 24 -121 q -15 -83 -7 -103 q -24 -49 -24 -62 q 5 57 -24 -10 q 81 209 33 124 q 188 386 129 294 q 100 392 136 390 q 38 393 64 393 l -11 393 q 42 449 4 433 q 133 465 81 465 q 182 463 157 465 q 233 456 207 460 q 376 660 304 563 q 510 835 447 758 q 622 956 574 911 q 692 1000 669 1000 q 810 997 747 1000 q 933 988 872 993 q 1042 978 993 983 q 1121 968 1092 972 q 1078 937 1114 947 q 992 922 1043 926 q 885 918 942 918 q 810 919 847 918 q 742 921 774 919 q 686 781 718 874 q 625 576 654 688 q 794 563 721 575 q 914 544 867 551 q 872 513 907 524 q 785 499 836 503 q 678 494 735 494 q 637 494 654 494 q 604 496 619 494 q 565 297 581 394 q 549 131 549 200 q 550 99 549 114 q 553 74 551 85 q 652 62 597 67 q 762 52 707 57 q 862 42 817 47 q 931 32 907 38 q 888 1 924 11 q 802 -14 853 -10 q 694 -18 751 -18 q 583 -17 638 -18 q 488 -12 528 -17 q 457 51 467 8 q 447 144 447 93 q 453 242 447 189 q 471 351 460 294 q 359 367 410 361 q 265 379 308 374 q 138 131 200 258 q 24 -121 76 3 m 481 400 q 529 585 501 492 q 588 764 557 679 q 647 913 619 849 q 548 819 604 886 q 429 655 492 751 q 301 443 367 558 q 395 422 349 433 q 481 400 442 410 z "},"":{"ha":1038,"x_min":-24,"x_max":1121,"o":"m 24 -121 q -15 -83 -7 -103 q -24 -49 -24 -62 q 5 57 -24 -10 q 81 209 33 124 q 188 386 129 294 q 100 392 136 390 q 38 393 64 393 l -11 393 q 42 449 4 433 q 133 465 81 465 q 182 463 157 465 q 233 456 207 460 q 376 660 304 563 q 510 835 447 758 q 622 956 574 911 q 692 1000 669 1000 q 810 997 747 1000 q 933 988 872 993 q 1042 978 993 983 q 1121 968 1092 972 q 1078 937 1114 947 q 992 922 1043 926 q 885 918 942 918 q 810 919 847 918 q 742 921 774 919 q 686 781 718 874 q 625 576 654 688 q 794 563 721 575 q 914 544 867 551 q 872 513 907 524 q 785 499 836 503 q 678 494 735 494 q 637 494 654 494 q 604 496 619 494 q 565 297 581 394 q 549 131 549 200 q 550 99 549 114 q 553 74 551 85 q 652 62 597 67 q 762 52 707 57 q 862 42 817 47 q 931 32 907 38 q 888 1 924 11 q 802 -14 853 -10 q 694 -18 751 -18 q 583 -17 638 -18 q 488 -12 528 -17 q 457 51 467 8 q 447 144 447 93 q 453 242 447 189 q 471 351 460 294 q 359 367 410 361 q 265 379 308 374 q 138 131 200 258 q 24 -121 76 3 m 481 400 q 529 585 501 492 q 588 764 557 679 q 647 913 619 849 q 548 819 604 886 q 429 655 492 751 q 301 443 367 558 q 395 422 349 433 q 481 400 442 410 m 801 1039 q 787 1057 792 1044 q 782 1075 782 1069 q 797 1115 782 1088 q 833 1172 811 1142 q 881 1222 856 1201 q 926 1243 906 1243 q 947 1234 938 1243 q 957 1200 956 1225 q 869 1118 907 1157 q 801 1039 832 1079 z "},"":{"ha":742,"x_min":31,"x_max":831,"o":"m 304 -121 q 145 -72 206 -121 q 58 56 85 -22 q 31 218 31 133 q 64 439 31 328 q 155 651 97 550 q 286 830 213 751 q 441 953 360 908 q 601 999 522 999 q 694 972 658 999 q 729 879 729 944 q 715 788 729 839 q 678 691 701 738 q 626 614 654 644 q 568 583 597 583 q 545 590 557 583 q 525 615 533 597 q 572 674 546 639 q 621 749 597 710 q 659 827 644 789 q 674 894 674 865 q 658 940 674 922 q 606 957 642 957 q 481 908 546 957 q 356 778 417 860 q 247 597 296 697 q 170 393 199 497 q 142 194 142 289 q 161 65 142 126 q 224 -35 181 3 q 338 -74 268 -74 q 484 -32 411 -74 q 618 78 557 10 q 715 225 679 146 l 735 211 q 624 45 689 121 q 478 -76 558 -31 q 304 -121 397 -121 m 675 1038 q 660 1056 665 1043 q 656 1074 656 1068 q 670 1113 656 1086 q 707 1170 685 1140 q 754 1221 729 1200 q 800 1242 779 1242 q 820 1233 811 1242 q 831 1199 829 1224 q 743 1117 781 1156 q 675 1038 706 1078 z "},"":{"ha":742,"x_min":31,"x_max":829,"o":"m 304 -121 q 145 -72 206 -121 q 58 56 85 -22 q 31 218 31 133 q 64 439 31 328 q 155 651 97 550 q 286 830 213 751 q 441 953 360 908 q 601 999 522 999 q 694 972 658 999 q 729 879 729 944 q 715 788 729 839 q 678 691 701 738 q 626 614 654 644 q 568 583 597 583 q 545 590 557 583 q 525 615 533 597 q 572 674 546 639 q 621 749 597 710 q 659 827 644 789 q 674 894 674 865 q 658 940 674 922 q 606 957 642 957 q 481 908 546 957 q 356 778 417 860 q 247 597 296 697 q 170 393 199 497 q 142 194 142 289 q 161 65 142 126 q 224 -35 181 3 q 338 -74 268 -74 q 484 -32 411 -74 q 618 78 557 10 q 715 225 679 146 l 735 211 q 624 45 689 121 q 478 -76 558 -31 q 304 -121 397 -121 m 671 1046 q 633 1061 654 1046 q 592 1101 611 1076 q 559 1151 572 1125 q 546 1200 546 1178 q 551 1226 546 1214 q 569 1243 557 1238 q 614 1176 589 1204 q 672 1115 639 1147 q 750 1149 715 1131 q 815 1194 785 1167 q 826 1182 824 1189 q 829 1168 829 1175 q 810 1126 829 1147 q 765 1087 792 1106 q 711 1057 738 1068 q 671 1046 685 1046 z "},"":{"ha":742,"x_min":31,"x_max":735,"o":"m 304 -121 q 145 -72 206 -121 q 58 56 85 -22 q 31 218 31 133 q 64 439 31 328 q 155 651 97 550 q 286 830 213 751 q 441 953 360 908 q 601 999 522 999 q 694 972 658 999 q 729 879 729 944 q 715 788 729 839 q 678 691 701 738 q 626 614 654 644 q 568 583 597 583 q 545 590 557 583 q 525 615 533 597 q 572 674 546 639 q 621 749 597 710 q 659 827 644 789 q 674 894 674 865 q 658 940 674 922 q 606 957 642 957 q 481 908 546 957 q 356 778 417 860 q 247 597 296 697 q 170 393 199 497 q 142 194 142 289 q 161 65 142 126 q 224 -35 181 3 q 338 -74 268 -74 q 484 -32 411 -74 q 618 78 557 10 q 715 225 679 146 l 735 211 q 624 45 689 121 q 478 -76 558 -31 q 304 -121 397 -121 m 500 -293 q 438 -278 460 -293 q 415 -243 415 -262 q 423 -220 415 -232 q 446 -197 431 -208 q 469 -245 453 -231 q 504 -260 486 -260 q 557 -240 531 -260 q 601 -191 583 -219 q 619 -139 619 -162 q 615 -116 619 -128 q 596 -104 610 -104 q 553 -118 578 -104 q 507 -147 528 -132 q 478 -161 486 -161 q 463 -152 468 -161 q 458 -136 458 -143 q 470 -117 458 -133 q 499 -77 482 -100 q 533 -33 515 -54 q 563 0 550 -11 l 581 0 l 507 -112 q 544 -90 522 -101 q 600 -79 567 -79 q 647 -94 632 -79 q 663 -137 663 -108 q 640 -212 663 -176 q 580 -271 617 -249 q 500 -293 543 -293 z "},"":{"ha":742,"x_min":31,"x_max":826,"o":"m 304 -121 q 145 -72 206 -121 q 58 56 85 -22 q 31 218 31 133 q 64 439 31 328 q 155 651 97 550 q 286 830 213 751 q 441 953 360 908 q 601 999 522 999 q 694 972 658 999 q 729 879 729 944 q 715 788 729 839 q 678 691 701 738 q 626 614 654 644 q 568 583 597 583 q 545 590 557 583 q 525 615 533 597 q 572 674 546 639 q 621 749 597 710 q 659 827 644 789 q 674 894 674 865 q 658 940 674 922 q 606 957 642 957 q 481 908 546 957 q 356 778 417 860 q 247 597 296 697 q 170 393 199 497 q 142 194 142 289 q 161 65 142 126 q 224 -35 181 3 q 338 -74 268 -74 q 484 -32 411 -74 q 618 78 557 10 q 715 225 679 146 l 735 211 q 624 45 689 121 q 478 -76 558 -31 q 304 -121 397 -121 m 803 1032 q 758 1101 783 1072 q 700 1160 733 1129 q 623 1126 657 1144 q 557 1081 589 1108 q 546 1094 549 1086 q 543 1107 543 1101 q 562 1149 543 1128 q 608 1188 581 1169 q 661 1218 635 1207 q 701 1229 688 1229 q 740 1214 718 1229 q 781 1174 761 1199 q 813 1124 800 1150 q 826 1075 826 1097 q 821 1050 826 1061 q 803 1032 815 1039 z "},"":{"ha":742,"x_min":31,"x_max":765,"o":"m 304 -121 q 145 -72 206 -121 q 58 56 85 -22 q 31 218 31 133 q 64 439 31 328 q 155 651 97 550 q 286 830 213 751 q 441 953 360 908 q 601 999 522 999 q 694 972 658 999 q 729 879 729 944 q 715 788 729 839 q 678 691 701 738 q 626 614 654 644 q 568 583 597 583 q 545 590 557 583 q 525 615 533 597 q 572 674 546 639 q 621 749 597 710 q 659 827 644 789 q 674 894 674 865 q 658 940 674 922 q 606 957 642 957 q 481 908 546 957 q 356 778 417 860 q 247 597 296 697 q 170 393 199 497 q 142 194 142 289 q 161 65 142 126 q 224 -35 181 3 q 338 -74 268 -74 q 484 -32 411 -74 q 618 78 557 10 q 715 225 679 146 l 735 211 q 624 45 689 121 q 478 -76 558 -31 q 304 -121 397 -121 m 682 1069 q 642 1081 657 1069 q 626 1115 626 1093 q 656 1165 626 1146 q 717 1183 686 1183 q 753 1172 740 1183 q 765 1138 765 1160 q 739 1090 765 1111 q 682 1069 713 1069 z "},"":{"ha":1763,"x_min":78,"x_max":1803,"o":"m 226 -121 q 144 -109 183 -121 q 78 -58 106 -97 q 112 85 92 8 q 156 244 132 163 q 203 403 179 325 q 250 550 228 482 q 290 669 272 618 q 318 747 308 721 q 332 780 322 758 q 356 824 342 801 q 388 862 369 846 q 426 878 406 878 q 465 864 446 878 q 378 643 422 764 q 294 394 335 522 q 221 143 254 265 q 165 -79 188 21 q 198 -83 185 -82 q 225 -85 211 -85 q 397 -44 314 -85 q 551 69 479 -3 q 676 233 622 140 q 760 428 731 325 q 790 635 790 532 q 754 820 790 747 q 654 928 718 893 q 506 963 590 963 q 343 926 415 963 q 229 829 271 890 q 188 692 188 768 q 190 663 188 675 q 194 640 192 650 q 130 663 149 640 q 111 718 111 686 q 145 816 111 767 q 240 907 179 865 q 379 974 300 949 q 547 1000 458 1000 q 748 949 672 1000 q 858 813 824 899 q 893 619 893 726 q 856 388 893 499 q 752 185 818 278 q 601 24 686 93 q 420 -83 517 -44 q 226 -121 324 -121 m 1507 -121 q 1400 -101 1458 -121 q 1280 -53 1342 -82 q 1157 3 1218 -25 q 1065 -54 1110 -33 q 979 -75 1021 -75 q 910 -58 939 -75 q 867 -15 882 -40 q 851 36 851 11 q 876 87 851 65 q 958 108 900 108 q 1047 98 999 108 q 1147 72 1094 88 q 1284 241 1214 142 q 1418 446 1354 340 q 1328 441 1367 444 q 1238 431 1290 438 l 1190 424 q 1221 483 1193 463 q 1295 513 1249 504 q 1397 521 1342 521 q 1428 520 1413 521 q 1460 518 1444 519 q 1557 701 1514 614 q 1622 847 1600 788 q 1572 863 1600 853 q 1514 885 1544 874 q 1373 936 1447 911 q 1236 961 1299 961 q 1156 943 1192 961 q 1100 881 1121 925 q 1079 761 1079 838 q 1080 742 1079 750 q 1082 726 1081 733 q 1085 713 1083 719 q 1027 745 1044 719 q 1010 813 1010 771 q 1082 953 1010 906 q 1278 1000 1154 1000 q 1415 987 1351 1000 q 1536 956 1478 974 q 1649 924 1594 938 q 1758 911 1704 911 q 1783 912 1772 911 q 1803 914 1793 913 q 1766 885 1783 897 q 1733 865 1749 874 q 1656 701 1703 793 q 1553 510 1610 608 q 1631 501 1594 506 q 1700 497 1668 497 q 1666 465 1685 475 q 1613 453 1647 456 q 1517 449 1579 450 q 1370 232 1449 336 q 1214 53 1292 128 q 1394 0 1304 25 q 1554 -25 1483 -25 q 1607 -19 1583 -25 q 1653 -3 1631 -14 q 1594 -94 1631 -67 q 1507 -121 1557 -121 m 972 -37 q 1033 -20 1000 -37 q 1100 28 1065 -3 q 1013 60 1054 47 q 939 72 971 72 q 898 63 908 72 q 888 39 888 53 q 910 -10 888 17 q 972 -37 933 -37 m 1494 1047 q 1456 1063 1478 1047 q 1415 1102 1435 1078 q 1383 1153 1396 1126 q 1369 1201 1369 1179 q 1375 1227 1369 1215 q 1393 1244 1381 1239 q 1438 1177 1413 1206 q 1496 1117 1463 1149 q 1574 1150 1539 1132 q 1639 1196 1608 1168 q 1650 1183 1647 1190 q 1653 1169 1653 1176 q 1634 1128 1653 1149 q 1588 1088 1615 1107 q 1535 1058 1561 1069 q 1494 1047 1508 1047 z "},"":{"ha":908,"x_min":44,"x_max":894,"o":"m 228 -121 q 146 -109 185 -121 q 79 -58 107 -97 q 133 160 99 39 q 201 394 167 281 q 128 391 163 394 q 44 381 93 388 q 103 427 56 413 q 218 446 150 442 q 278 630 250 549 q 319 747 306 711 q 333 780 324 758 q 357 824 343 801 q 389 862 371 846 q 428 878 407 878 q 467 864 447 878 q 388 668 428 775 q 313 449 349 561 q 447 444 385 449 q 540 436 510 439 q 466 403 506 411 q 397 396 426 396 l 296 396 q 222 145 256 268 q 167 -79 189 22 q 199 -83 186 -82 q 226 -85 213 -85 q 398 -44 315 -85 q 552 69 481 -3 q 678 233 624 140 q 762 428 732 325 q 792 635 792 532 q 713 883 792 804 q 507 963 633 963 q 344 926 417 963 q 231 829 272 890 q 189 692 189 768 q 191 663 189 675 q 196 640 193 650 q 131 663 150 640 q 113 718 113 686 q 147 816 113 767 q 241 907 181 865 q 381 974 301 949 q 549 1000 460 1000 q 749 949 674 1000 q 860 813 825 899 q 894 619 894 726 q 857 388 894 499 q 753 185 819 278 q 603 24 688 93 q 422 -83 518 -44 q 228 -121 325 -121 z "},"":{"ha":907,"x_min":78,"x_max":893,"o":"m 226 -121 q 144 -109 183 -121 q 78 -58 106 -97 q 112 85 92 8 q 156 244 132 163 q 203 403 179 325 q 250 550 228 482 q 290 669 272 618 q 318 747 308 721 q 332 780 322 758 q 356 824 342 801 q 388 862 369 846 q 426 878 406 878 q 465 864 446 878 q 378 643 422 764 q 294 394 335 522 q 221 143 254 265 q 165 -79 188 21 q 198 -83 185 -82 q 225 -85 211 -85 q 397 -44 314 -85 q 551 69 479 -3 q 676 233 622 140 q 760 428 731 325 q 790 635 790 532 q 754 820 790 747 q 654 928 718 893 q 506 963 590 963 q 343 926 415 963 q 229 829 271 890 q 188 692 188 768 q 190 663 188 675 q 194 640 192 650 q 130 663 149 640 q 111 718 111 686 q 145 816 111 767 q 240 907 179 865 q 379 974 300 949 q 547 1000 458 1000 q 748 949 672 1000 q 858 813 824 899 q 893 619 893 726 q 856 388 893 499 q 752 185 818 278 q 601 24 686 93 q 420 -83 517 -44 q 226 -121 324 -121 m 674 1047 q 635 1063 657 1047 q 594 1102 614 1078 q 562 1153 575 1126 q 549 1201 549 1179 q 554 1227 549 1215 q 572 1244 560 1239 q 617 1177 592 1206 q 675 1117 642 1149 q 753 1150 718 1132 q 818 1196 788 1168 q 829 1183 826 1190 q 832 1169 832 1176 q 813 1128 832 1149 q 767 1088 794 1107 q 714 1058 740 1069 q 674 1047 688 1047 z "},"":{"ha":908,"x_min":44,"x_max":894,"o":"m 228 -121 q 146 -109 185 -121 q 79 -58 107 -97 q 133 160 99 39 q 201 394 167 281 q 128 391 163 394 q 44 381 93 388 q 103 427 56 413 q 218 446 150 442 q 278 630 250 549 q 319 747 306 711 q 333 780 324 758 q 357 824 343 801 q 389 862 371 846 q 428 878 407 878 q 467 864 447 878 q 388 668 428 775 q 313 449 349 561 q 447 444 385 449 q 540 436 510 439 q 466 403 506 411 q 397 396 426 396 l 296 396 q 222 145 256 268 q 167 -79 189 22 q 199 -83 186 -82 q 226 -85 213 -85 q 398 -44 315 -85 q 552 69 481 -3 q 678 233 624 140 q 762 428 732 325 q 792 635 792 532 q 713 883 792 804 q 507 963 633 963 q 344 926 417 963 q 231 829 272 890 q 189 692 189 768 q 191 663 189 675 q 196 640 193 650 q 131 663 150 640 q 113 718 113 686 q 147 816 113 767 q 241 907 181 865 q 381 974 301 949 q 549 1000 460 1000 q 749 949 674 1000 q 860 813 825 899 q 894 619 894 726 q 857 388 894 499 q 753 185 819 278 q 603 24 688 93 q 422 -83 518 -44 q 228 -121 325 -121 z "},"":{"ha":1319,"x_min":78,"x_max":1369,"o":"m 226 -121 q 144 -109 183 -121 q 78 -58 106 -97 q 112 85 92 8 q 156 244 132 163 q 203 403 179 325 q 250 550 228 482 q 290 669 272 618 q 318 747 308 721 q 332 780 322 758 q 356 824 342 801 q 388 862 369 846 q 426 878 406 878 q 465 864 446 878 q 378 643 422 764 q 294 394 335 522 q 221 143 254 265 q 165 -79 188 21 q 198 -83 185 -82 q 225 -85 211 -85 q 397 -44 314 -85 q 551 69 479 -3 q 676 233 622 140 q 760 428 731 325 q 790 635 790 532 q 754 820 790 747 q 654 928 718 893 q 506 963 590 963 q 343 926 415 963 q 229 829 271 890 q 188 692 188 768 q 190 663 188 675 q 194 640 192 650 q 130 663 149 640 q 111 718 111 686 q 145 816 111 767 q 240 907 179 865 q 379 974 300 949 q 547 1000 458 1000 q 748 949 672 1000 q 858 813 824 899 q 893 619 893 726 q 856 388 893 499 q 752 185 818 278 q 601 24 686 93 q 420 -83 517 -44 q 226 -121 324 -121 m 872 -389 q 805 -373 829 -389 q 781 -318 781 -357 q 810 -235 781 -274 q 890 -162 840 -197 q 1001 -92 940 -128 q 1121 -17 1061 -57 q 1100 75 1121 33 q 1025 160 1079 117 q 1108 208 1074 174 q 1159 285 1142 243 q 1176 364 1176 328 q 1163 417 1176 396 q 1122 438 1150 438 q 1040 403 1076 438 q 974 311 1004 368 q 911 186 943 254 l 894 200 q 958 349 925 283 q 1035 452 990 414 q 1142 490 1079 490 q 1223 460 1189 490 q 1257 376 1257 429 q 1233 283 1257 326 q 1172 208 1210 240 q 1093 154 1135 175 q 1153 95 1129 126 q 1190 29 1178 64 q 1284 117 1243 69 q 1344 225 1325 165 l 1360 208 q 1297 95 1340 146 q 1199 3 1254 44 q 1203 -19 1201 -7 q 1204 -43 1204 -32 q 1176 -167 1204 -106 q 1101 -279 1149 -229 q 995 -359 1054 -329 q 872 -389 936 -389 m 863 -349 q 928 -328 888 -349 q 1010 -270 968 -308 q 1082 -176 1051 -232 q 1119 -49 1113 -121 q 1010 -115 1064 -83 q 914 -176 957 -146 q 845 -237 871 -206 q 819 -303 819 -268 q 832 -337 819 -326 q 863 -349 844 -349 m 1211 590 q 1173 606 1194 590 q 1132 645 1151 621 q 1099 696 1113 669 q 1086 744 1086 722 q 1092 770 1086 758 q 1110 788 1097 782 q 1154 720 1129 749 q 1213 660 1179 692 q 1290 693 1256 675 q 1356 739 1325 711 q 1367 726 1364 733 q 1369 713 1369 719 q 1351 671 1369 692 q 1305 631 1332 650 q 1251 601 1278 613 q 1211 590 1225 590 z "},"":{"ha":692,"x_min":-21,"x_max":742,"o":"m 250 -121 q 106 -86 167 -121 q 12 6 44 -51 q -21 132 -21 64 q 7 257 -21 196 q 84 369 35 318 q 199 452 133 419 q 339 492 264 485 q 259 594 285 536 q 233 711 233 653 q 270 851 233 785 q 372 958 307 917 q 519 999 438 999 q 638 960 597 999 q 678 849 678 921 q 660 749 678 797 q 616 669 642 700 q 567 639 590 639 q 538 652 551 639 q 515 683 524 665 q 598 774 564 726 q 632 876 632 822 q 607 943 632 919 q 533 967 582 967 q 425 928 469 967 q 358 827 381 890 q 335 688 335 764 q 350 579 335 638 q 415 478 365 521 q 253 407 322 463 q 147 276 185 351 q 108 128 108 201 q 126 35 108 82 q 182 -42 143 -11 q 286 -74 221 -74 q 433 -32 360 -74 q 567 78 506 10 q 664 225 628 146 l 683 211 q 569 42 635 117 q 424 -77 504 -33 q 250 -121 343 -121 m 586 1039 q 572 1057 576 1044 q 567 1075 567 1069 q 581 1115 567 1088 q 618 1172 596 1142 q 665 1222 640 1201 q 711 1243 690 1243 q 731 1234 722 1243 q 742 1200 740 1225 q 654 1118 692 1157 q 586 1039 617 1079 z "},"":{"ha":692,"x_min":-21,"x_max":778,"o":"m 250 -121 q 106 -86 167 -121 q 12 6 44 -51 q -21 132 -21 64 q 7 257 -21 196 q 84 369 35 318 q 199 452 133 419 q 339 492 264 485 q 259 594 285 536 q 233 711 233 653 q 270 851 233 785 q 372 958 307 917 q 519 999 438 999 q 638 960 597 999 q 678 849 678 921 q 660 749 678 797 q 616 669 642 700 q 567 639 590 639 q 538 652 551 639 q 515 683 524 665 q 598 774 564 726 q 632 876 632 822 q 607 943 632 919 q 533 967 582 967 q 425 928 469 967 q 358 827 381 890 q 335 688 335 764 q 350 579 335 638 q 415 478 365 521 q 253 407 322 463 q 147 276 185 351 q 108 128 108 201 q 126 35 108 82 q 182 -42 143 -11 q 286 -74 221 -74 q 433 -32 360 -74 q 567 78 506 10 q 664 225 628 146 l 683 211 q 569 42 635 117 q 424 -77 504 -33 q 250 -121 343 -121 m 628 1053 q 544 1074 575 1053 q 499 1126 513 1096 q 485 1181 485 1156 q 494 1222 485 1206 q 518 1249 503 1239 q 548 1162 522 1201 q 631 1122 574 1122 q 715 1149 683 1122 q 764 1206 747 1176 q 775 1185 772 1197 q 778 1164 778 1174 q 733 1085 778 1117 q 628 1053 688 1053 z "},"":{"ha":692,"x_min":-21,"x_max":740,"o":"m 250 -121 q 106 -86 167 -121 q 12 6 44 -51 q -21 132 -21 64 q 7 257 -21 196 q 84 369 35 318 q 199 452 133 419 q 339 492 264 485 q 259 594 285 536 q 233 711 233 653 q 270 851 233 785 q 372 958 307 917 q 519 999 438 999 q 638 960 597 999 q 678 849 678 921 q 660 749 678 797 q 616 669 642 700 q 567 639 590 639 q 538 652 551 639 q 515 683 524 665 q 598 774 564 726 q 632 876 632 822 q 607 943 632 919 q 533 967 582 967 q 425 928 469 967 q 358 827 381 890 q 335 688 335 764 q 350 579 335 638 q 415 478 365 521 q 253 407 322 463 q 147 276 185 351 q 108 128 108 201 q 126 35 108 82 q 182 -42 143 -11 q 286 -74 221 -74 q 433 -32 360 -74 q 567 78 506 10 q 664 225 628 146 l 683 211 q 569 42 635 117 q 424 -77 504 -33 q 250 -121 343 -121 m 582 1047 q 544 1063 565 1047 q 503 1102 522 1078 q 470 1153 483 1126 q 457 1201 457 1179 q 463 1227 457 1215 q 481 1244 468 1239 q 525 1177 500 1206 q 583 1117 550 1149 q 661 1150 626 1132 q 726 1196 696 1168 q 738 1183 735 1190 q 740 1169 740 1176 q 722 1128 740 1149 q 676 1088 703 1107 q 622 1058 649 1069 q 582 1047 596 1047 z "},"":{"ha":692,"x_min":-21,"x_max":738,"o":"m 250 -121 q 106 -86 167 -121 q 12 6 44 -51 q -21 132 -21 64 q 7 257 -21 196 q 84 369 35 318 q 199 452 133 419 q 339 492 264 485 q 259 594 285 536 q 233 711 233 653 q 270 851 233 785 q 372 958 307 917 q 519 999 438 999 q 638 960 597 999 q 678 849 678 921 q 660 749 678 797 q 616 669 642 700 q 567 639 590 639 q 538 652 551 639 q 515 683 524 665 q 598 774 564 726 q 632 876 632 822 q 607 943 632 919 q 533 967 582 967 q 425 928 469 967 q 358 827 381 890 q 335 688 335 764 q 350 579 335 638 q 415 478 365 521 q 253 407 322 463 q 147 276 185 351 q 108 128 108 201 q 126 35 108 82 q 182 -42 143 -11 q 286 -74 221 -74 q 433 -32 360 -74 q 567 78 506 10 q 664 225 628 146 l 683 211 q 569 42 635 117 q 424 -77 504 -33 q 250 -121 343 -121 m 714 1033 q 669 1102 694 1074 q 611 1161 644 1131 q 534 1128 568 1146 q 468 1082 500 1110 q 457 1095 460 1088 q 454 1108 454 1103 q 473 1150 454 1129 q 519 1190 492 1171 q 572 1219 546 1208 q 613 1231 599 1231 q 651 1215 629 1231 q 692 1176 672 1200 q 724 1125 711 1151 q 738 1076 738 1099 q 732 1051 738 1063 q 714 1033 726 1040 z "},"":{"ha":692,"x_min":-21,"x_max":889,"o":"m 250 -121 q 106 -86 167 -121 q 12 6 44 -51 q -21 132 -21 64 q 7 257 -21 196 q 84 369 35 318 q 199 452 133 419 q 339 492 264 485 q 259 594 285 536 q 233 711 233 653 q 270 851 233 785 q 372 958 307 917 q 519 999 438 999 q 638 960 597 999 q 678 849 678 921 q 660 749 678 797 q 616 669 642 700 q 567 639 590 639 q 538 652 551 639 q 515 683 524 665 q 598 774 564 726 q 632 876 632 822 q 607 943 632 919 q 533 967 582 967 q 425 928 469 967 q 358 827 381 890 q 335 688 335 764 q 350 579 335 638 q 415 478 365 521 q 253 407 322 463 q 147 276 185 351 q 108 128 108 201 q 126 35 108 82 q 182 -42 143 -11 q 286 -74 221 -74 q 433 -32 360 -74 q 567 78 506 10 q 664 225 628 146 l 683 211 q 569 42 635 117 q 424 -77 504 -33 q 250 -121 343 -121 m 761 1165 q 740 1183 747 1172 q 733 1206 733 1194 q 746 1242 733 1219 q 778 1288 758 1265 q 819 1326 797 1311 q 858 1342 840 1342 q 878 1333 869 1342 q 889 1299 888 1324 q 840 1253 863 1275 q 797 1209 817 1231 q 761 1165 778 1188 m 714 1033 q 669 1102 694 1074 q 611 1161 644 1131 q 534 1128 568 1146 q 468 1082 500 1110 q 457 1095 460 1088 q 454 1108 454 1103 q 473 1150 454 1129 q 519 1190 492 1171 q 572 1219 546 1208 q 613 1231 599 1231 q 651 1215 629 1231 q 692 1176 672 1200 q 724 1125 711 1151 q 738 1076 738 1099 q 732 1051 738 1063 q 714 1033 726 1040 z "},"":{"ha":692,"x_min":-21,"x_max":738,"o":"m 250 -121 q 106 -86 167 -121 q 12 6 44 -51 q -21 132 -21 64 q 7 257 -21 196 q 84 369 35 318 q 199 452 133 419 q 339 492 264 485 q 259 594 285 536 q 233 711 233 653 q 270 851 233 785 q 372 958 307 917 q 519 999 438 999 q 638 960 597 999 q 678 849 678 921 q 660 749 678 797 q 616 669 642 700 q 567 639 590 639 q 538 652 551 639 q 515 683 524 665 q 598 774 564 726 q 632 876 632 822 q 607 943 632 919 q 533 967 582 967 q 425 928 469 967 q 358 827 381 890 q 335 688 335 764 q 350 579 335 638 q 415 478 365 521 q 253 407 322 463 q 147 276 185 351 q 108 128 108 201 q 126 35 108 82 q 182 -42 143 -11 q 286 -74 221 -74 q 433 -32 360 -74 q 567 78 506 10 q 664 225 628 146 l 683 211 q 569 42 635 117 q 424 -77 504 -33 q 250 -121 343 -121 m 714 1033 q 669 1102 694 1074 q 611 1161 644 1131 q 534 1128 568 1146 q 468 1082 500 1110 q 457 1095 460 1088 q 454 1108 454 1103 q 473 1150 454 1129 q 519 1190 492 1171 q 572 1219 546 1208 q 613 1231 599 1231 q 651 1215 629 1231 q 692 1176 672 1200 q 724 1125 711 1151 q 738 1076 738 1099 q 732 1051 738 1063 q 714 1033 726 1040 m 199 -362 q 158 -351 174 -362 q 143 -317 143 -339 q 173 -267 143 -286 q 233 -249 203 -249 q 269 -260 257 -249 q 282 -294 282 -272 q 256 -342 282 -321 q 199 -362 229 -362 z "},"":{"ha":692,"x_min":-21,"x_max":814,"o":"m 250 -121 q 106 -86 167 -121 q 12 6 44 -51 q -21 132 -21 64 q 7 257 -21 196 q 84 369 35 318 q 199 452 133 419 q 339 492 264 485 q 259 594 285 536 q 233 711 233 653 q 270 851 233 785 q 372 958 307 917 q 519 999 438 999 q 638 960 597 999 q 678 849 678 921 q 660 749 678 797 q 616 669 642 700 q 567 639 590 639 q 538 652 551 639 q 515 683 524 665 q 598 774 564 726 q 632 876 632 822 q 607 943 632 919 q 533 967 582 967 q 425 928 469 967 q 358 827 381 890 q 335 688 335 764 q 350 579 335 638 q 415 478 365 521 q 253 407 322 463 q 147 276 185 351 q 108 128 108 201 q 126 35 108 82 q 182 -42 143 -11 q 286 -74 221 -74 q 433 -32 360 -74 q 567 78 506 10 q 664 225 628 146 l 683 211 q 569 42 635 117 q 424 -77 504 -33 q 250 -121 343 -121 m 785 1163 q 756 1210 772 1186 q 719 1258 739 1233 q 675 1310 699 1283 q 688 1341 678 1333 q 710 1349 697 1349 q 745 1332 726 1349 q 779 1291 764 1315 q 804 1243 794 1267 q 814 1204 814 1219 q 785 1163 814 1174 m 714 1033 q 669 1102 694 1074 q 611 1161 644 1131 q 534 1128 568 1146 q 468 1082 500 1110 q 457 1095 460 1088 q 454 1108 454 1103 q 473 1150 454 1129 q 519 1190 492 1171 q 572 1219 546 1208 q 613 1231 599 1231 q 651 1215 629 1231 q 692 1176 672 1200 q 724 1125 711 1151 q 738 1076 738 1099 q 732 1051 738 1063 q 714 1033 726 1040 z "},"":{"ha":692,"x_min":-21,"x_max":881,"o":"m 250 -121 q 106 -86 167 -121 q 12 6 44 -51 q -21 132 -21 64 q 7 257 -21 196 q 84 369 35 318 q 199 452 133 419 q 339 492 264 485 q 259 594 285 536 q 233 711 233 653 q 270 851 233 785 q 372 958 307 917 q 519 999 438 999 q 638 960 597 999 q 678 849 678 921 q 660 749 678 797 q 616 669 642 700 q 567 639 590 639 q 538 652 551 639 q 515 683 524 665 q 598 774 564 726 q 632 876 632 822 q 607 943 632 919 q 533 967 582 967 q 425 928 469 967 q 358 827 381 890 q 335 688 335 764 q 350 579 335 638 q 415 478 365 521 q 253 407 322 463 q 147 276 185 351 q 108 128 108 201 q 126 35 108 82 q 182 -42 143 -11 q 286 -74 221 -74 q 433 -32 360 -74 q 567 78 506 10 q 664 225 628 146 l 683 211 q 569 42 635 117 q 424 -77 504 -33 q 250 -121 343 -121 m 799 1151 q 774 1156 785 1151 q 756 1167 763 1161 q 810 1184 785 1169 q 835 1228 835 1199 q 803 1275 835 1260 q 706 1290 771 1290 q 724 1335 706 1317 q 772 1354 742 1354 q 850 1320 819 1354 q 881 1238 881 1286 q 858 1175 881 1199 q 799 1151 835 1151 m 714 1033 q 669 1102 694 1074 q 611 1161 644 1131 q 534 1128 568 1146 q 468 1082 500 1110 q 457 1095 460 1088 q 454 1108 454 1103 q 473 1150 454 1129 q 519 1190 492 1171 q 572 1219 546 1208 q 613 1231 599 1231 q 651 1215 629 1231 q 692 1176 672 1200 q 724 1125 711 1151 q 738 1076 738 1099 q 732 1051 738 1063 q 714 1033 726 1040 z "},"":{"ha":692,"x_min":-21,"x_max":886,"o":"m 250 -121 q 106 -86 167 -121 q 12 6 44 -51 q -21 132 -21 64 q 7 257 -21 196 q 84 369 35 318 q 199 452 133 419 q 339 492 264 485 q 259 594 285 536 q 233 711 233 653 q 270 851 233 785 q 372 958 307 917 q 519 999 438 999 q 638 960 597 999 q 678 849 678 921 q 660 749 678 797 q 616 669 642 700 q 567 639 590 639 q 538 652 551 639 q 515 683 524 665 q 598 774 564 726 q 632 876 632 822 q 607 943 632 919 q 533 967 582 967 q 425 928 469 967 q 358 827 381 890 q 335 688 335 764 q 350 579 335 638 q 415 478 365 521 q 253 407 322 463 q 147 276 185 351 q 108 128 108 201 q 126 35 108 82 q 182 -42 143 -11 q 286 -74 221 -74 q 433 -32 360 -74 q 567 78 506 10 q 664 225 628 146 l 683 211 q 569 42 635 117 q 424 -77 504 -33 q 250 -121 343 -121 m 628 1053 q 544 1074 575 1053 q 499 1126 513 1096 q 485 1181 485 1156 q 494 1222 485 1206 q 518 1249 503 1239 q 548 1162 522 1201 q 631 1122 574 1122 q 715 1149 683 1122 q 764 1206 747 1176 q 775 1185 772 1197 q 778 1164 778 1174 q 733 1085 778 1117 q 628 1053 688 1053 m 772 1236 q 694 1252 735 1236 q 613 1284 654 1268 q 529 1300 572 1300 q 492 1295 511 1300 q 454 1279 472 1290 q 513 1333 482 1318 q 575 1349 543 1349 q 656 1332 614 1349 q 743 1299 697 1315 q 839 1282 789 1282 q 886 1293 861 1282 q 831 1249 860 1261 q 772 1236 803 1236 z "},"":{"ha":692,"x_min":-21,"x_max":683,"o":"m 250 -121 q 106 -86 167 -121 q 12 6 44 -51 q -21 132 -21 64 q 7 257 -21 196 q 84 369 35 318 q 199 452 133 419 q 339 492 264 485 q 259 594 285 536 q 233 711 233 653 q 270 851 233 785 q 372 958 307 917 q 519 999 438 999 q 638 960 597 999 q 678 849 678 921 q 660 749 678 797 q 616 669 642 700 q 567 639 590 639 q 538 652 551 639 q 515 683 524 665 q 598 774 564 726 q 632 876 632 822 q 607 943 632 919 q 533 967 582 967 q 425 928 469 967 q 358 827 381 890 q 335 688 335 764 q 350 579 335 638 q 415 478 365 521 q 253 407 322 463 q 147 276 185 351 q 108 128 108 201 q 126 35 108 82 q 182 -42 143 -11 q 286 -74 221 -74 q 433 -32 360 -74 q 567 78 506 10 q 664 225 628 146 l 683 211 q 569 42 635 117 q 424 -77 504 -33 q 250 -121 343 -121 m 553 1038 q 492 1121 525 1078 q 419 1210 458 1164 q 438 1226 428 1219 q 460 1233 447 1233 q 497 1214 478 1233 q 531 1166 515 1194 q 558 1111 547 1138 q 568 1069 568 1085 q 553 1038 568 1049 m 644 1044 q 601 1122 626 1081 q 544 1201 575 1163 q 562 1229 553 1222 q 581 1236 571 1236 q 615 1219 599 1236 q 644 1176 632 1201 q 665 1126 657 1151 q 672 1086 672 1101 q 664 1056 672 1065 q 644 1044 656 1047 z "},"":{"ha":692,"x_min":-21,"x_max":771,"o":"m 250 -121 q 106 -86 167 -121 q 12 6 44 -51 q -21 132 -21 64 q 7 257 -21 196 q 84 369 35 318 q 199 452 133 419 q 339 492 264 485 q 259 594 285 536 q 233 711 233 653 q 270 851 233 785 q 372 958 307 917 q 519 999 438 999 q 638 960 597 999 q 678 849 678 921 q 660 749 678 797 q 616 669 642 700 q 567 639 590 639 q 538 652 551 639 q 515 683 524 665 q 598 774 564 726 q 632 876 632 822 q 607 943 632 919 q 533 967 582 967 q 425 928 469 967 q 358 827 381 890 q 335 688 335 764 q 350 579 335 638 q 415 478 365 521 q 253 407 322 463 q 147 276 185 351 q 108 128 108 201 q 126 35 108 82 q 182 -42 143 -11 q 286 -74 221 -74 q 433 -32 360 -74 q 567 78 506 10 q 664 225 628 146 l 683 211 q 569 42 635 117 q 424 -77 504 -33 q 250 -121 343 -121 m 689 1046 q 653 1056 668 1046 q 638 1088 638 1065 q 668 1133 638 1114 q 729 1153 699 1153 q 760 1144 749 1153 q 771 1114 771 1136 q 745 1068 771 1090 q 689 1046 719 1046 m 489 1075 q 453 1085 468 1075 q 438 1117 438 1094 q 468 1163 438 1143 q 529 1182 499 1182 q 560 1174 549 1182 q 571 1143 571 1165 q 545 1097 571 1119 q 489 1075 519 1075 z "},"":{"ha":692,"x_min":-21,"x_max":683,"o":"m 250 -121 q 106 -86 167 -121 q 12 6 44 -51 q -21 132 -21 64 q 7 257 -21 196 q 84 369 35 318 q 199 452 133 419 q 339 492 264 485 q 259 594 285 536 q 233 711 233 653 q 270 851 233 785 q 372 958 307 917 q 519 999 438 999 q 638 960 597 999 q 678 849 678 921 q 660 749 678 797 q 616 669 642 700 q 567 639 590 639 q 538 652 551 639 q 515 683 524 665 q 598 774 564 726 q 632 876 632 822 q 607 943 632 919 q 533 967 582 967 q 425 928 469 967 q 358 827 381 890 q 335 688 335 764 q 350 579 335 638 q 415 478 365 521 q 253 407 322 463 q 147 276 185 351 q 108 128 108 201 q 126 35 108 82 q 182 -42 143 -11 q 286 -74 221 -74 q 433 -32 360 -74 q 567 78 506 10 q 664 225 628 146 l 683 211 q 569 42 635 117 q 424 -77 504 -33 q 250 -121 343 -121 m 593 1071 q 553 1083 568 1071 q 538 1117 538 1094 q 567 1166 538 1147 q 628 1185 597 1185 q 664 1173 651 1185 q 676 1139 676 1161 q 650 1092 676 1113 q 593 1071 624 1071 z "},"":{"ha":692,"x_min":-21,"x_max":683,"o":"m 250 -121 q 106 -86 167 -121 q 12 6 44 -51 q -21 132 -21 64 q 7 257 -21 196 q 84 369 35 318 q 199 452 133 419 q 339 492 264 485 q 259 594 285 536 q 233 711 233 653 q 270 851 233 785 q 372 958 307 917 q 519 999 438 999 q 638 960 597 999 q 678 849 678 921 q 660 749 678 797 q 616 669 642 700 q 567 639 590 639 q 538 652 551 639 q 515 683 524 665 q 598 774 564 726 q 632 876 632 822 q 607 943 632 919 q 533 967 582 967 q 425 928 469 967 q 358 827 381 890 q 335 688 335 764 q 350 579 335 638 q 415 478 365 521 q 253 407 322 463 q 147 276 185 351 q 108 128 108 201 q 126 35 108 82 q 182 -42 143 -11 q 286 -74 221 -74 q 433 -32 360 -74 q 567 78 506 10 q 664 225 628 146 l 683 211 q 569 42 635 117 q 424 -77 504 -33 q 250 -121 343 -121 m 199 -362 q 158 -351 174 -362 q 143 -317 143 -339 q 173 -267 143 -286 q 233 -249 203 -249 q 269 -260 257 -249 q 282 -294 282 -272 q 256 -342 282 -321 q 199 -362 229 -362 z "},"":{"ha":692,"x_min":-21,"x_max":683,"o":"m 250 -121 q 106 -86 167 -121 q 12 6 44 -51 q -21 132 -21 64 q 7 257 -21 196 q 84 369 35 318 q 199 452 133 419 q 339 492 264 485 q 259 594 285 536 q 233 711 233 653 q 270 851 233 785 q 372 958 307 917 q 519 999 438 999 q 638 960 597 999 q 678 849 678 921 q 660 749 678 797 q 616 669 642 700 q 567 639 590 639 q 538 652 551 639 q 515 683 524 665 q 598 774 564 726 q 632 876 632 822 q 607 943 632 919 q 533 967 582 967 q 425 928 469 967 q 358 827 381 890 q 335 688 335 764 q 350 579 335 638 q 415 478 365 521 q 253 407 322 463 q 147 276 185 351 q 108 128 108 201 q 126 35 108 82 q 182 -42 143 -11 q 286 -74 221 -74 q 433 -32 360 -74 q 567 78 506 10 q 664 225 628 146 l 683 211 q 569 42 635 117 q 424 -77 504 -33 q 250 -121 343 -121 m 583 1039 q 515 1118 553 1079 q 428 1200 478 1157 q 439 1234 431 1225 q 458 1243 447 1243 q 504 1222 479 1243 q 551 1172 529 1201 q 588 1115 574 1142 q 603 1075 603 1088 q 599 1057 603 1069 q 583 1039 594 1044 z "},"":{"ha":692,"x_min":-21,"x_max":719,"o":"m 250 -121 q 106 -86 167 -121 q 12 6 44 -51 q -21 132 -21 64 q 7 257 -21 196 q 84 369 35 318 q 199 452 133 419 q 339 492 264 485 q 259 594 285 536 q 233 711 233 653 q 270 851 233 785 q 372 958 307 917 q 519 999 438 999 q 638 960 597 999 q 678 849 678 921 q 660 749 678 797 q 616 669 642 700 q 567 639 590 639 q 538 652 551 639 q 515 683 524 665 q 598 774 564 726 q 632 876 632 822 q 607 943 632 919 q 533 967 582 967 q 425 928 469 967 q 358 827 381 890 q 335 688 335 764 q 350 579 335 638 q 415 478 365 521 q 253 407 322 463 q 147 276 185 351 q 108 128 108 201 q 126 35 108 82 q 182 -42 143 -11 q 286 -74 221 -74 q 433 -32 360 -74 q 567 78 506 10 q 664 225 628 146 l 683 211 q 569 42 635 117 q 424 -77 504 -33 q 250 -121 343 -121 m 625 1042 q 597 1047 608 1042 q 578 1057 585 1051 q 644 1074 615 1060 q 674 1124 674 1089 q 642 1169 674 1156 q 544 1183 610 1183 q 563 1228 544 1210 q 611 1247 581 1247 q 689 1216 658 1247 q 719 1140 719 1185 q 693 1069 719 1097 q 625 1042 667 1042 z "},"":{"ha":692,"x_min":-21,"x_max":760,"o":"m 250 -121 q 106 -86 167 -121 q 12 6 44 -51 q -21 132 -21 64 q 7 257 -21 196 q 84 369 35 318 q 199 452 133 419 q 339 492 264 485 q 259 594 285 536 q 233 711 233 653 q 270 851 233 785 q 372 958 307 917 q 519 999 438 999 q 638 960 597 999 q 678 849 678 921 q 660 749 678 797 q 616 669 642 700 q 567 639 590 639 q 538 652 551 639 q 515 683 524 665 q 598 774 564 726 q 632 876 632 822 q 607 943 632 919 q 533 967 582 967 q 425 928 469 967 q 358 827 381 890 q 335 688 335 764 q 350 579 335 638 q 415 478 365 521 q 253 407 322 463 q 147 276 185 351 q 108 128 108 201 q 126 35 108 82 q 182 -42 143 -11 q 286 -74 221 -74 q 433 -32 360 -74 q 567 78 506 10 q 664 225 628 146 l 683 211 q 569 42 635 117 q 424 -77 504 -33 q 250 -121 343 -121 m 726 1011 q 695 1098 722 1058 q 603 1138 668 1138 q 525 1110 554 1138 q 481 1054 496 1083 q 470 1074 474 1063 q 467 1096 467 1086 q 510 1175 467 1143 q 615 1207 553 1207 q 697 1187 665 1207 q 744 1138 729 1167 q 760 1086 760 1110 q 751 1041 760 1060 q 726 1011 742 1022 z "},"":{"ha":692,"x_min":-21,"x_max":789,"o":"m 250 -121 q 106 -86 167 -121 q 12 6 44 -51 q -21 132 -21 64 q 7 257 -21 196 q 84 369 35 318 q 199 452 133 419 q 339 492 264 485 q 259 594 285 536 q 233 711 233 653 q 270 851 233 785 q 372 958 307 917 q 519 999 438 999 q 638 960 597 999 q 678 849 678 921 q 660 749 678 797 q 616 669 642 700 q 567 639 590 639 q 538 652 551 639 q 515 683 524 665 q 598 774 564 726 q 632 876 632 822 q 607 943 632 919 q 533 967 582 967 q 425 928 469 967 q 358 827 381 890 q 335 688 335 764 q 350 579 335 638 q 415 478 365 521 q 253 407 322 463 q 147 276 185 351 q 108 128 108 201 q 126 35 108 82 q 182 -42 143 -11 q 286 -74 221 -74 q 433 -32 360 -74 q 567 78 506 10 q 664 225 628 146 l 683 211 q 569 42 635 117 q 424 -77 504 -33 q 250 -121 343 -121 m 736 1050 q 660 1058 706 1050 q 563 1076 614 1065 q 467 1095 513 1086 q 390 1107 422 1104 q 454 1143 404 1143 q 564 1133 506 1143 q 681 1108 622 1122 q 789 1078 740 1093 q 736 1050 769 1050 z "},"":{"ha":692,"x_min":-21,"x_max":683,"o":"m 250 -121 q 106 -86 167 -121 q 12 6 44 -51 q -21 132 -21 64 q 7 257 -21 196 q 84 369 35 318 q 199 452 133 419 q 339 492 264 485 q 259 594 285 536 q 233 711 233 653 q 270 851 233 785 q 372 958 307 917 q 519 999 438 999 q 638 960 597 999 q 678 849 678 921 q 660 749 678 797 q 616 669 642 700 q 567 639 590 639 q 538 652 551 639 q 515 683 524 665 q 598 774 564 726 q 632 876 632 822 q 607 943 632 919 q 533 967 582 967 q 425 928 469 967 q 358 827 381 890 q 335 688 335 764 q 350 579 335 638 q 415 478 365 521 q 253 407 322 463 q 147 276 185 351 q 108 128 108 201 q 126 35 108 82 q 182 -42 143 -11 q 286 -74 221 -74 q 433 -32 360 -74 q 567 78 506 10 q 664 225 628 146 l 683 211 q 569 42 635 117 q 424 -77 504 -33 q 250 -121 343 -121 m 479 -242 q 410 -215 436 -242 q 383 -147 383 -189 q 413 -73 383 -101 q 483 -39 443 -44 q 447 -74 461 -54 q 433 -121 433 -93 q 450 -163 433 -144 q 501 -182 467 -182 q 538 -176 521 -182 q 571 -158 554 -171 q 544 -219 569 -197 q 479 -242 519 -242 z "},"":{"ha":692,"x_min":-21,"x_max":819,"o":"m 250 -121 q 106 -86 167 -121 q 12 6 44 -51 q -21 132 -21 64 q 7 257 -21 196 q 84 369 35 318 q 199 452 133 419 q 339 492 264 485 q 259 594 285 536 q 233 711 233 653 q 270 851 233 785 q 372 958 307 917 q 519 999 438 999 q 638 960 597 999 q 678 849 678 921 q 660 749 678 797 q 616 669 642 700 q 567 639 590 639 q 538 652 551 639 q 515 683 524 665 q 598 774 564 726 q 632 876 632 822 q 607 943 632 919 q 533 967 582 967 q 425 928 469 967 q 358 827 381 890 q 335 688 335 764 q 350 579 335 638 q 415 478 365 521 q 253 407 322 463 q 147 276 185 351 q 108 128 108 201 q 126 35 108 82 q 182 -42 143 -11 q 286 -74 221 -74 q 433 -32 360 -74 q 567 78 506 10 q 664 225 628 146 l 683 211 q 569 42 635 117 q 424 -77 504 -33 q 250 -121 343 -121 m 706 1057 q 628 1073 668 1057 q 547 1105 588 1089 q 463 1121 506 1121 q 425 1116 444 1121 q 388 1100 406 1111 q 446 1154 415 1139 q 508 1169 476 1169 q 589 1153 547 1169 q 676 1119 631 1136 q 772 1103 722 1103 q 819 1114 794 1103 q 765 1069 793 1082 q 706 1057 736 1057 z "},"":{"ha":769,"x_min":31,"x_max":876,"o":"m 290 -121 q 159 -80 218 -121 q 65 38 100 -39 q 31 224 31 115 q 64 440 31 331 q 155 650 97 550 q 286 828 213 750 q 441 953 360 907 q 601 999 522 999 q 686 976 654 999 q 732 919 718 954 q 746 842 746 883 q 729 747 746 793 q 685 669 713 700 q 624 639 657 639 q 601 646 613 639 q 581 671 589 653 q 626 721 600 685 q 670 801 651 757 q 689 883 689 846 q 670 936 689 915 q 606 957 651 957 q 481 908 546 957 q 356 778 417 860 q 247 597 296 697 q 170 393 199 497 q 142 196 142 289 q 194 -2 142 69 q 328 -74 247 -74 q 431 -34 382 -74 q 517 69 479 6 q 577 206 554 132 q 606 347 600 279 q 522 362 554 358 q 463 365 490 365 q 424 365 444 365 q 378 364 404 364 q 412 420 388 404 q 472 436 436 436 q 553 423 511 436 q 636 394 596 410 q 707 371 676 379 l 697 326 q 654 205 671 257 q 628 113 638 153 q 616 43 619 74 q 613 -12 613 13 q 615 -67 613 -40 q 618 -121 617 -93 q 578 -98 596 -111 q 552 -65 561 -85 q 543 -21 543 -46 q 545 10 543 -6 q 553 43 547 25 q 438 -74 503 -26 q 290 -121 372 -121 m 726 1053 q 642 1074 674 1053 q 597 1126 611 1096 q 583 1181 583 1156 q 592 1222 583 1206 q 617 1249 601 1239 q 647 1162 621 1201 q 729 1122 672 1122 q 814 1149 782 1122 q 863 1206 846 1176 q 874 1185 871 1197 q 876 1164 876 1174 q 831 1085 876 1117 q 726 1053 786 1053 z "},"":{"ha":769,"x_min":31,"x_max":839,"o":"m 290 -121 q 159 -80 218 -121 q 65 38 100 -39 q 31 224 31 115 q 64 440 31 331 q 155 650 97 550 q 286 828 213 750 q 441 953 360 907 q 601 999 522 999 q 686 976 654 999 q 732 919 718 954 q 746 842 746 883 q 729 747 746 793 q 685 669 713 700 q 624 639 657 639 q 601 646 613 639 q 581 671 589 653 q 626 721 600 685 q 670 801 651 757 q 689 883 689 846 q 670 936 689 915 q 606 957 651 957 q 481 908 546 957 q 356 778 417 860 q 247 597 296 697 q 170 393 199 497 q 142 196 142 289 q 194 -2 142 69 q 328 -74 247 -74 q 431 -34 382 -74 q 517 69 479 6 q 577 206 554 132 q 606 347 600 279 q 522 362 554 358 q 463 365 490 365 q 424 365 444 365 q 378 364 404 364 q 412 420 388 404 q 472 436 436 436 q 553 423 511 436 q 636 394 596 410 q 707 371 676 379 l 697 326 q 654 205 671 257 q 628 113 638 153 q 616 43 619 74 q 613 -12 613 13 q 615 -67 613 -40 q 618 -121 617 -93 q 578 -98 596 -111 q 552 -65 561 -85 q 543 -21 543 -46 q 545 10 543 -6 q 553 43 547 25 q 438 -74 503 -26 q 290 -121 372 -121 m 681 1047 q 642 1063 664 1047 q 601 1102 621 1078 q 569 1153 582 1126 q 556 1201 556 1179 q 561 1227 556 1215 q 579 1244 567 1239 q 624 1177 599 1206 q 682 1117 649 1149 q 760 1150 725 1132 q 825 1196 794 1168 q 836 1183 833 1190 q 839 1169 839 1176 q 820 1128 839 1149 q 774 1088 801 1107 q 721 1058 747 1069 q 681 1047 694 1047 z "},"":{"ha":769,"x_min":31,"x_max":836,"o":"m 290 -121 q 159 -80 218 -121 q 65 38 100 -39 q 31 224 31 115 q 64 440 31 331 q 155 650 97 550 q 286 828 213 750 q 441 953 360 907 q 601 999 522 999 q 686 976 654 999 q 732 919 718 954 q 746 842 746 883 q 729 747 746 793 q 685 669 713 700 q 624 639 657 639 q 601 646 613 639 q 581 671 589 653 q 626 721 600 685 q 670 801 651 757 q 689 883 689 846 q 670 936 689 915 q 606 957 651 957 q 481 908 546 957 q 356 778 417 860 q 247 597 296 697 q 170 393 199 497 q 142 196 142 289 q 194 -2 142 69 q 328 -74 247 -74 q 431 -34 382 -74 q 517 69 479 6 q 577 206 554 132 q 606 347 600 279 q 522 362 554 358 q 463 365 490 365 q 424 365 444 365 q 378 364 404 364 q 412 420 388 404 q 472 436 436 436 q 553 423 511 436 q 636 394 596 410 q 707 371 676 379 l 697 326 q 654 205 671 257 q 628 113 638 153 q 616 43 619 74 q 613 -12 613 13 q 615 -67 613 -40 q 618 -121 617 -93 q 578 -98 596 -111 q 552 -65 561 -85 q 543 -21 543 -46 q 545 10 543 -6 q 553 43 547 25 q 438 -74 503 -26 q 290 -121 372 -121 m 813 1033 q 768 1102 793 1074 q 710 1161 743 1131 q 633 1128 667 1146 q 567 1082 599 1110 q 556 1095 558 1088 q 553 1108 553 1103 q 572 1150 553 1129 q 617 1190 590 1171 q 671 1219 644 1208 q 711 1231 697 1231 q 749 1215 728 1231 q 790 1176 771 1200 q 823 1125 810 1151 q 836 1076 836 1099 q 831 1051 836 1063 q 813 1033 825 1040 z "},"":{"ha":769,"x_min":31,"x_max":746,"o":"m 290 -121 q 159 -80 218 -121 q 65 38 100 -39 q 31 224 31 115 q 64 440 31 331 q 155 650 97 550 q 286 828 213 750 q 441 953 360 907 q 601 999 522 999 q 686 976 654 999 q 732 919 718 954 q 746 842 746 883 q 729 747 746 793 q 685 669 713 700 q 624 639 657 639 q 601 646 613 639 q 581 671 589 653 q 626 721 600 685 q 670 801 651 757 q 689 883 689 846 q 670 936 689 915 q 606 957 651 957 q 481 908 546 957 q 356 778 417 860 q 247 597 296 697 q 170 393 199 497 q 142 196 142 289 q 194 -2 142 69 q 328 -74 247 -74 q 431 -34 382 -74 q 517 69 479 6 q 577 206 554 132 q 606 347 600 279 q 522 362 554 358 q 463 365 490 365 q 424 365 444 365 q 378 364 404 364 q 412 420 388 404 q 472 436 436 436 q 553 423 511 436 q 636 394 596 410 q 707 371 676 379 l 697 326 q 654 205 671 257 q 628 113 638 153 q 616 43 619 74 q 613 -12 613 13 q 615 -67 613 -40 q 618 -121 617 -93 q 578 -98 596 -111 q 552 -65 561 -85 q 543 -21 543 -46 q 545 10 543 -6 q 553 43 547 25 q 438 -74 503 -26 q 290 -121 372 -121 m 235 -379 q 217 -358 222 -372 q 211 -328 211 -344 q 224 -265 211 -300 q 256 -204 236 -229 q 296 -179 275 -179 q 320 -191 310 -179 q 331 -218 331 -203 q 273 -299 292 -258 q 235 -379 254 -339 z "},"":{"ha":769,"x_min":31,"x_max":775,"o":"m 290 -121 q 159 -80 218 -121 q 65 38 100 -39 q 31 224 31 115 q 64 440 31 331 q 155 650 97 550 q 286 828 213 750 q 441 953 360 907 q 601 999 522 999 q 686 976 654 999 q 732 919 718 954 q 746 842 746 883 q 729 747 746 793 q 685 669 713 700 q 624 639 657 639 q 601 646 613 639 q 581 671 589 653 q 626 721 600 685 q 670 801 651 757 q 689 883 689 846 q 670 936 689 915 q 606 957 651 957 q 481 908 546 957 q 356 778 417 860 q 247 597 296 697 q 170 393 199 497 q 142 196 142 289 q 194 -2 142 69 q 328 -74 247 -74 q 431 -34 382 -74 q 517 69 479 6 q 577 206 554 132 q 606 347 600 279 q 522 362 554 358 q 463 365 490 365 q 424 365 444 365 q 378 364 404 364 q 412 420 388 404 q 472 436 436 436 q 553 423 511 436 q 636 394 596 410 q 707 371 676 379 l 697 326 q 654 205 671 257 q 628 113 638 153 q 616 43 619 74 q 613 -12 613 13 q 615 -67 613 -40 q 618 -121 617 -93 q 578 -98 596 -111 q 552 -65 561 -85 q 543 -21 543 -46 q 545 10 543 -6 q 553 43 547 25 q 438 -74 503 -26 q 290 -121 372 -121 m 692 1071 q 651 1083 667 1071 q 636 1117 636 1094 q 666 1166 636 1147 q 726 1185 696 1185 q 763 1173 750 1185 q 775 1139 775 1161 q 749 1092 775 1113 q 692 1071 722 1071 z "},"":{"ha":858,"x_min":76,"x_max":893,"o":"m 76 -121 q 99 -9 86 -69 q 134 129 113 51 q 188 310 156 207 q 265 548 219 413 q 371 860 310 683 q 383 898 376 875 q 390 942 390 921 q 371 961 390 961 q 307 933 339 961 q 255 864 275 906 q 235 781 235 822 q 236 757 235 769 q 239 736 238 744 q 176 754 194 736 q 158 799 158 772 q 179 878 158 842 q 234 942 200 915 q 308 985 268 969 q 385 1000 347 1000 q 448 979 432 1000 q 464 933 464 958 q 460 903 464 918 q 453 874 457 888 q 363 587 403 714 q 294 363 324 460 q 242 194 264 265 q 206 77 221 124 q 183 4 192 31 q 172 -32 175 -22 q 128 -100 158 -79 q 76 -121 99 -121 m 633 -121 q 558 -90 579 -115 q 538 -12 538 -65 q 546 78 538 24 q 571 197 554 133 q 598 297 581 235 q 638 435 615 360 q 685 588 661 510 q 731 735 708 665 q 773 856 754 804 q 801 928 792 907 q 817 956 807 939 q 842 986 826 972 q 878 1000 858 1000 q 840 890 861 957 q 797 744 819 824 q 751 578 774 664 q 709 413 728 493 q 676 265 690 332 q 641 64 651 147 q 631 -71 631 -19 q 631 -99 631 -87 q 633 -121 632 -111 m 132 399 q 166 455 133 435 q 247 483 199 475 q 342 494 294 492 q 419 496 390 496 q 669 484 565 496 q 831 472 774 472 q 785 438 818 449 q 699 425 751 428 q 580 423 647 422 q 431 422 513 424 q 338 419 386 422 q 238 412 289 417 q 132 399 186 407 m 161 572 q 217 630 164 608 q 360 661 269 651 q 564 671 450 671 q 738 667 657 671 q 893 656 818 664 q 842 617 886 629 q 708 602 797 606 q 476 599 619 599 q 286 593 358 599 q 161 572 214 588 z "},"":{"ha":857,"x_min":76,"x_max":878,"o":"m 76 -121 q 96 -22 85 -72 q 124 92 107 29 q 167 239 142 156 q 229 436 192 322 q 184 432 207 435 q 138 426 161 429 q 170 481 139 461 q 253 511 201 501 q 273 572 263 540 q 294 637 283 603 q 318 706 306 671 q 344 781 331 742 q 371 860 357 819 q 383 898 376 875 q 390 942 390 921 q 387 957 390 953 q 371 961 383 961 q 306 934 338 961 q 251 865 275 907 q 213 779 226 824 q 199 700 199 735 q 201 675 199 688 q 206 653 203 663 q 141 676 160 653 q 122 732 122 699 q 150 826 122 779 q 222 913 178 874 q 313 976 265 953 q 400 1000 361 1000 q 451 979 438 1000 q 464 933 464 958 q 460 903 464 918 q 453 874 457 888 l 344 521 q 384 523 364 522 q 425 524 404 524 q 549 520 490 524 q 661 511 608 517 q 716 686 689 600 q 766 837 743 772 q 801 928 789 901 q 817 956 807 939 q 842 986 826 972 q 878 1000 858 1000 q 833 869 858 949 q 783 694 808 789 q 732 506 757 600 q 785 502 760 504 q 836 500 811 500 q 776 462 806 468 q 719 456 747 456 q 696 356 707 404 q 676 265 685 308 q 641 64 651 147 q 631 -71 631 -19 q 631 -99 631 -87 q 633 -121 632 -111 q 558 -90 579 -115 q 538 -12 538 -65 q 546 78 538 24 q 571 197 554 133 q 601 308 582 239 q 644 454 621 376 q 503 453 560 454 q 404 450 446 451 q 321 444 363 449 q 271 285 296 364 q 225 140 246 206 q 190 28 204 74 q 172 -32 176 -18 q 128 -100 158 -79 q 76 -121 99 -121 m 775 1033 q 731 1102 756 1074 q 672 1161 706 1131 q 595 1128 629 1146 q 529 1082 561 1110 q 518 1095 521 1088 q 515 1108 515 1103 q 534 1150 515 1129 q 580 1190 553 1171 q 633 1219 607 1208 q 674 1231 660 1231 q 712 1215 690 1231 q 753 1176 733 1200 q 785 1125 772 1151 q 799 1076 799 1099 q 793 1051 799 1063 q 775 1033 788 1040 z "},"":{"ha":1208,"x_min":-53,"x_max":1346,"o":"m -53 -122 q -16 -48 -47 -71 q 65 -18 15 -25 q 174 -11 115 -11 q 224 122 199 43 q 272 290 249 200 q 317 474 294 381 q 358 654 339 568 q 395 809 378 740 q 426 918 413 878 q 303 914 354 917 q 209 906 253 911 q 114 890 165 900 q 190 970 124 943 q 397 997 257 997 q 538 992 467 997 q 669 980 610 986 q 761 968 729 974 q 691 927 728 935 q 626 919 654 919 q 545 919 583 919 q 475 918 507 919 q 458 827 469 889 q 432 685 447 765 q 400 520 417 606 q 367 358 383 435 q 338 225 351 281 q 288 75 315 136 q 221 -12 260 14 q 375 -27 293 -17 q 522 -39 457 -37 q 438 -89 482 -79 q 365 -99 394 -99 q 256 -99 310 -99 q 151 -101 203 -100 q 48 -108 99 -103 q -53 -122 -3 -112 m 744 -119 q 677 -107 713 -119 q 618 -56 642 -94 q 594 61 594 -17 q 607 169 594 115 q 644 258 619 222 q 700 294 668 294 q 739 283 717 294 q 701 164 714 219 q 689 61 689 108 q 711 -36 689 -1 q 776 -71 733 -71 q 841 -40 813 -71 q 900 75 869 -10 q 947 223 922 136 q 995 409 971 310 q 1042 606 1019 508 q 1082 788 1064 704 q 1110 926 1100 871 q 995 924 1042 926 q 911 915 949 921 q 829 899 874 910 q 890 972 836 946 q 1056 997 943 997 q 1168 992 1111 997 q 1273 980 1225 986 q 1346 968 1321 974 q 1296 935 1331 942 q 1239 928 1261 928 q 1187 927 1211 928 q 1140 926 1163 926 q 1163 896 1156 915 q 1169 861 1169 876 q 1160 781 1169 843 q 1132 632 1150 719 q 1089 446 1114 544 q 1035 253 1064 347 q 972 85 1006 158 q 899 -42 936 1 q 824 -103 863 -86 q 744 -119 786 -119 z "},"":{"ha":638,"x_min":-53,"x_max":761,"o":"m -53 -122 q -16 -48 -47 -71 q 65 -18 15 -25 q 174 -11 115 -11 q 224 122 199 43 q 272 290 249 200 q 317 474 294 381 q 358 654 339 568 q 395 809 378 740 q 426 918 413 878 q 303 914 354 917 q 209 906 253 911 q 114 890 165 900 q 190 970 124 943 q 397 997 257 997 q 538 992 467 997 q 669 980 610 986 q 761 968 729 974 q 691 927 728 935 q 626 919 654 919 q 545 919 583 919 q 475 918 507 919 q 458 827 469 889 q 432 685 447 765 q 400 520 417 606 q 367 358 383 435 q 338 225 351 281 q 288 75 315 136 q 221 -12 260 14 q 375 -27 293 -17 q 522 -39 457 -37 q 438 -89 482 -79 q 365 -99 394 -99 q 256 -99 310 -99 q 151 -101 203 -100 q 48 -108 99 -103 q -53 -122 -3 -112 m 483 1039 q 469 1057 474 1044 q 464 1075 464 1069 q 478 1115 464 1088 q 515 1172 493 1142 q 563 1222 538 1201 q 608 1243 588 1243 q 628 1234 619 1243 q 639 1200 638 1225 q 551 1118 589 1157 q 483 1039 514 1079 z "},"":{"ha":638,"x_min":-53,"x_max":761,"o":"m -53 -122 q -16 -48 -47 -71 q 65 -18 15 -25 q 174 -11 115 -11 q 224 122 199 43 q 272 290 249 200 q 317 474 294 381 q 358 654 339 568 q 395 809 378 740 q 426 918 413 878 q 303 914 354 917 q 209 906 253 911 q 114 890 165 900 q 190 970 124 943 q 397 997 257 997 q 538 992 467 997 q 669 980 610 986 q 761 968 729 974 q 691 927 728 935 q 626 919 654 919 q 545 919 583 919 q 475 918 507 919 q 458 827 469 889 q 432 685 447 765 q 400 520 417 606 q 367 358 383 435 q 338 225 351 281 q 288 75 315 136 q 221 -12 260 14 q 375 -27 293 -17 q 522 -39 457 -37 q 438 -89 482 -79 q 365 -99 394 -99 q 256 -99 310 -99 q 151 -101 203 -100 q 48 -108 99 -103 q -53 -122 -3 -112 m 525 1053 q 441 1074 472 1053 q 396 1126 410 1096 q 382 1181 382 1156 q 391 1222 382 1206 q 415 1249 400 1239 q 445 1162 419 1201 q 528 1122 471 1122 q 613 1149 581 1122 q 661 1206 644 1176 q 672 1185 669 1197 q 675 1164 675 1174 q 630 1085 675 1117 q 525 1053 585 1053 z "},"":{"ha":638,"x_min":-53,"x_max":761,"o":"m -53 -122 q -16 -48 -47 -71 q 65 -18 15 -25 q 174 -11 115 -11 q 224 122 199 43 q 272 290 249 200 q 317 474 294 381 q 358 654 339 568 q 395 809 378 740 q 426 918 413 878 q 303 914 354 917 q 209 906 253 911 q 114 890 165 900 q 190 970 124 943 q 397 997 257 997 q 538 992 467 997 q 669 980 610 986 q 761 968 729 974 q 691 927 728 935 q 626 919 654 919 q 545 919 583 919 q 475 918 507 919 q 458 827 469 889 q 432 685 447 765 q 400 520 417 606 q 367 358 383 435 q 338 225 351 281 q 288 75 315 136 q 221 -12 260 14 q 375 -27 293 -17 q 522 -39 457 -37 q 438 -89 482 -79 q 365 -99 394 -99 q 256 -99 310 -99 q 151 -101 203 -100 q 48 -108 99 -103 q -53 -122 -3 -112 m 611 1033 q 567 1102 592 1074 q 508 1161 542 1131 q 431 1128 465 1146 q 365 1082 397 1110 q 354 1095 357 1088 q 351 1108 351 1103 q 370 1150 351 1129 q 416 1190 389 1171 q 469 1219 443 1208 q 510 1231 496 1231 q 548 1215 526 1231 q 589 1176 569 1200 q 622 1125 608 1151 q 635 1076 635 1099 q 629 1051 635 1063 q 611 1033 624 1040 z "},"":{"ha":638,"x_min":-53,"x_max":761,"o":"m -53 -122 q -16 -48 -47 -71 q 65 -18 15 -25 q 174 -11 115 -11 q 224 122 199 43 q 272 290 249 200 q 317 474 294 381 q 358 654 339 568 q 395 809 378 740 q 426 918 413 878 q 303 914 354 917 q 209 906 253 911 q 114 890 165 900 q 190 970 124 943 q 397 997 257 997 q 538 992 467 997 q 669 980 610 986 q 761 968 729 974 q 691 927 728 935 q 626 919 654 919 q 545 919 583 919 q 475 918 507 919 q 458 827 469 889 q 432 685 447 765 q 400 520 417 606 q 367 358 383 435 q 338 225 351 281 q 288 75 315 136 q 221 -12 260 14 q 375 -27 293 -17 q 522 -39 457 -37 q 438 -89 482 -79 q 365 -99 394 -99 q 256 -99 310 -99 q 151 -101 203 -100 q 48 -108 99 -103 q -53 -122 -3 -112 m 450 1038 q 389 1121 422 1078 q 317 1210 356 1164 q 335 1226 325 1219 q 357 1233 344 1233 q 394 1214 375 1233 q 428 1166 413 1194 q 455 1111 444 1138 q 465 1069 465 1085 q 450 1038 465 1049 m 542 1044 q 498 1122 524 1081 q 442 1201 472 1163 q 459 1229 450 1222 q 478 1236 468 1236 q 513 1219 496 1236 q 542 1176 529 1201 q 562 1126 554 1151 q 569 1086 569 1101 q 561 1056 569 1065 q 542 1044 553 1047 z "},"":{"ha":638,"x_min":-53,"x_max":761,"o":"m -53 -122 q -16 -48 -47 -71 q 65 -18 15 -25 q 174 -11 115 -11 q 224 122 199 43 q 272 290 249 200 q 317 474 294 381 q 358 654 339 568 q 395 809 378 740 q 426 918 413 878 q 303 914 354 917 q 209 906 253 911 q 114 890 165 900 q 190 970 124 943 q 397 997 257 997 q 538 992 467 997 q 669 980 610 986 q 761 968 729 974 q 691 927 728 935 q 626 919 654 919 q 545 919 583 919 q 475 918 507 919 q 458 827 469 889 q 432 685 447 765 q 400 520 417 606 q 367 358 383 435 q 338 225 351 281 q 288 75 315 136 q 221 -12 260 14 q 375 -27 293 -17 q 522 -39 457 -37 q 438 -89 482 -79 q 365 -99 394 -99 q 256 -99 310 -99 q 151 -101 203 -100 q 48 -108 99 -103 q -53 -122 -3 -112 m 586 1046 q 550 1056 565 1046 q 535 1088 535 1065 q 565 1133 535 1114 q 626 1153 596 1153 q 657 1144 646 1153 q 668 1114 668 1136 q 642 1068 668 1090 q 586 1046 617 1046 m 386 1075 q 350 1085 365 1075 q 335 1117 335 1094 q 365 1163 335 1143 q 426 1182 396 1182 q 457 1174 446 1182 q 468 1143 468 1165 q 442 1097 468 1119 q 386 1075 417 1075 z "},"":{"ha":638,"x_min":-53,"x_max":761,"o":"m -53 -122 q -16 -48 -47 -71 q 65 -18 15 -25 q 174 -11 115 -11 q 224 122 199 43 q 272 290 249 200 q 317 474 294 381 q 358 654 339 568 q 395 809 378 740 q 426 918 413 878 q 303 914 354 917 q 209 906 253 911 q 114 890 165 900 q 190 970 124 943 q 397 997 257 997 q 538 992 467 997 q 669 980 610 986 q 761 968 729 974 q 691 927 728 935 q 626 919 654 919 q 545 919 583 919 q 475 918 507 919 q 458 827 469 889 q 432 685 447 765 q 400 520 417 606 q 367 358 383 435 q 338 225 351 281 q 288 75 315 136 q 221 -12 260 14 q 375 -27 293 -17 q 522 -39 457 -37 q 438 -89 482 -79 q 365 -99 394 -99 q 256 -99 310 -99 q 151 -101 203 -100 q 48 -108 99 -103 q -53 -122 -3 -112 m 490 1071 q 450 1083 465 1071 q 435 1117 435 1094 q 465 1166 435 1147 q 525 1185 494 1185 q 561 1173 549 1185 q 574 1139 574 1161 q 547 1092 574 1113 q 490 1071 521 1071 z "},"":{"ha":638,"x_min":-53,"x_max":761,"o":"m -53 -122 q -16 -48 -47 -71 q 65 -18 15 -25 q 174 -11 115 -11 q 224 122 199 43 q 272 290 249 200 q 317 474 294 381 q 358 654 339 568 q 395 809 378 740 q 426 918 413 878 q 303 914 354 917 q 209 906 253 911 q 114 890 165 900 q 190 970 124 943 q 397 997 257 997 q 538 992 467 997 q 669 980 610 986 q 761 968 729 974 q 691 927 728 935 q 626 919 654 919 q 545 919 583 919 q 475 918 507 919 q 458 827 469 889 q 432 685 447 765 q 400 520 417 606 q 367 358 383 435 q 338 225 351 281 q 288 75 315 136 q 221 -12 260 14 q 375 -27 293 -17 q 522 -39 457 -37 q 438 -89 482 -79 q 365 -99 394 -99 q 256 -99 310 -99 q 151 -101 203 -100 q 48 -108 99 -103 q -53 -122 -3 -112 m 121 -319 q 81 -308 96 -319 q 65 -274 65 -296 q 95 -224 65 -243 q 156 -206 125 -206 q 192 -217 179 -206 q 204 -251 204 -229 q 178 -299 204 -278 q 121 -319 151 -319 z "},"":{"ha":638,"x_min":-53,"x_max":761,"o":"m -53 -122 q -16 -48 -47 -71 q 65 -18 15 -25 q 174 -11 115 -11 q 224 122 199 43 q 272 290 249 200 q 317 474 294 381 q 358 654 339 568 q 395 809 378 740 q 426 918 413 878 q 303 914 354 917 q 209 906 253 911 q 114 890 165 900 q 190 970 124 943 q 397 997 257 997 q 538 992 467 997 q 669 980 610 986 q 761 968 729 974 q 691 927 728 935 q 626 919 654 919 q 545 919 583 919 q 475 918 507 919 q 458 827 469 889 q 432 685 447 765 q 400 520 417 606 q 367 358 383 435 q 338 225 351 281 q 288 75 315 136 q 221 -12 260 14 q 375 -27 293 -17 q 522 -39 457 -37 q 438 -89 482 -79 q 365 -99 394 -99 q 256 -99 310 -99 q 151 -101 203 -100 q 48 -108 99 -103 q -53 -122 -3 -112 m 481 1039 q 413 1118 450 1079 q 325 1200 375 1157 q 336 1234 328 1225 q 356 1243 344 1243 q 401 1222 376 1243 q 449 1172 426 1201 q 485 1115 471 1142 q 500 1075 500 1088 q 496 1057 500 1069 q 481 1039 492 1044 z "},"":{"ha":638,"x_min":-53,"x_max":761,"o":"m -53 -122 q -16 -48 -47 -71 q 65 -18 15 -25 q 174 -11 115 -11 q 224 122 199 43 q 272 290 249 200 q 317 474 294 381 q 358 654 339 568 q 395 809 378 740 q 426 918 413 878 q 303 914 354 917 q 209 906 253 911 q 114 890 165 900 q 190 970 124 943 q 397 997 257 997 q 538 992 467 997 q 669 980 610 986 q 761 968 729 974 q 691 927 728 935 q 626 919 654 919 q 545 919 583 919 q 475 918 507 919 q 458 827 469 889 q 432 685 447 765 q 400 520 417 606 q 367 358 383 435 q 338 225 351 281 q 288 75 315 136 q 221 -12 260 14 q 375 -27 293 -17 q 522 -39 457 -37 q 438 -89 482 -79 q 365 -99 394 -99 q 256 -99 310 -99 q 151 -101 203 -100 q 48 -108 99 -103 q -53 -122 -3 -112 m 522 1042 q 494 1047 506 1042 q 475 1057 482 1051 q 542 1074 513 1060 q 571 1124 571 1089 q 539 1169 571 1156 q 442 1183 507 1183 q 460 1228 442 1210 q 508 1247 478 1247 q 586 1216 556 1247 q 617 1140 617 1185 q 590 1069 617 1097 q 522 1042 564 1042 z "},"":{"ha":638,"x_min":-53,"x_max":761,"o":"m -53 -122 q -16 -48 -47 -71 q 65 -18 15 -25 q 174 -11 115 -11 q 224 122 199 43 q 272 290 249 200 q 317 474 294 381 q 358 654 339 568 q 395 809 378 740 q 426 918 413 878 q 303 914 354 917 q 209 906 253 911 q 114 890 165 900 q 190 970 124 943 q 397 997 257 997 q 538 992 467 997 q 669 980 610 986 q 761 968 729 974 q 691 927 728 935 q 626 919 654 919 q 545 919 583 919 q 475 918 507 919 q 458 827 469 889 q 432 685 447 765 q 400 520 417 606 q 367 358 383 435 q 338 225 351 281 q 288 75 315 136 q 221 -12 260 14 q 375 -27 293 -17 q 522 -39 457 -37 q 438 -89 482 -79 q 365 -99 394 -99 q 256 -99 310 -99 q 151 -101 203 -100 q 48 -108 99 -103 q -53 -122 -3 -112 m 624 1011 q 592 1098 619 1058 q 500 1138 565 1138 q 422 1110 451 1138 q 378 1054 393 1083 q 367 1074 371 1063 q 364 1096 364 1086 q 407 1175 364 1143 q 513 1207 450 1207 q 594 1187 563 1207 q 642 1138 626 1167 q 657 1086 657 1110 q 648 1041 657 1060 q 624 1011 639 1022 z "},"":{"ha":638,"x_min":-53,"x_max":761,"o":"m -53 -122 q -16 -48 -47 -71 q 65 -18 15 -25 q 174 -11 115 -11 q 224 122 199 43 q 272 290 249 200 q 317 474 294 381 q 358 654 339 568 q 395 809 378 740 q 426 918 413 878 q 303 914 354 917 q 209 906 253 911 q 114 890 165 900 q 190 970 124 943 q 397 997 257 997 q 538 992 467 997 q 669 980 610 986 q 761 968 729 974 q 691 927 728 935 q 626 919 654 919 q 545 919 583 919 q 475 918 507 919 q 458 827 469 889 q 432 685 447 765 q 400 520 417 606 q 367 358 383 435 q 338 225 351 281 q 288 75 315 136 q 221 -12 260 14 q 375 -27 293 -17 q 522 -39 457 -37 q 438 -89 482 -79 q 365 -99 394 -99 q 256 -99 310 -99 q 151 -101 203 -100 q 48 -108 99 -103 q -53 -122 -3 -112 m 633 1050 q 557 1058 603 1050 q 460 1076 511 1065 q 365 1095 410 1086 q 288 1107 319 1104 q 351 1143 301 1143 q 461 1133 403 1143 q 578 1108 519 1122 q 686 1078 638 1093 q 633 1050 667 1050 z "},"":{"ha":638,"x_min":-53,"x_max":761,"o":"m -53 -122 q -16 -48 -47 -71 q 65 -18 15 -25 q 174 -11 115 -11 q 224 122 199 43 q 272 290 249 200 q 317 474 294 381 q 358 654 339 568 q 395 809 378 740 q 426 918 413 878 q 303 914 354 917 q 209 906 253 911 q 114 890 165 900 q 190 970 124 943 q 397 997 257 997 q 538 992 467 997 q 669 980 610 986 q 761 968 729 974 q 691 927 728 935 q 626 919 654 919 q 545 919 583 919 q 475 918 507 919 q 458 827 469 889 q 432 685 447 765 q 400 520 417 606 q 367 358 383 435 q 338 225 351 281 q 288 75 315 136 q 221 -12 260 14 q 375 -27 293 -17 q 522 -39 457 -37 q 438 -89 482 -79 q 365 -99 394 -99 q 256 -99 310 -99 q 151 -101 203 -100 q 48 -108 99 -103 q -53 -122 -3 -112 m 217 -281 q 147 -254 174 -281 q 121 -186 121 -228 q 151 -112 121 -140 q 221 -78 181 -83 q 185 -112 199 -93 q 171 -160 171 -132 q 188 -202 171 -183 q 239 -221 204 -221 q 275 -215 258 -221 q 308 -197 292 -210 q 282 -258 307 -236 q 217 -281 257 -281 z "},"":{"ha":638,"x_min":-53,"x_max":761,"o":"m -53 -122 q -16 -48 -47 -71 q 65 -18 15 -25 q 174 -11 115 -11 q 224 122 199 43 q 272 290 249 200 q 317 474 294 381 q 358 654 339 568 q 395 809 378 740 q 426 918 413 878 q 303 914 354 917 q 209 906 253 911 q 114 890 165 900 q 190 970 124 943 q 397 997 257 997 q 538 992 467 997 q 669 980 610 986 q 761 968 729 974 q 691 927 728 935 q 626 919 654 919 q 545 919 583 919 q 475 918 507 919 q 458 827 469 889 q 432 685 447 765 q 400 520 417 606 q 367 358 383 435 q 338 225 351 281 q 288 75 315 136 q 221 -12 260 14 q 375 -27 293 -17 q 522 -39 457 -37 q 438 -89 482 -79 q 365 -99 394 -99 q 256 -99 310 -99 q 151 -101 203 -100 q 48 -108 99 -103 q -53 -122 -3 -112 m 603 1057 q 525 1073 565 1057 q 444 1105 485 1089 q 360 1121 403 1121 q 322 1116 342 1121 q 285 1100 303 1111 q 343 1154 313 1139 q 406 1169 374 1169 q 486 1153 444 1169 q 574 1119 528 1136 q 669 1103 619 1103 q 717 1114 692 1103 q 662 1069 690 1082 q 603 1057 633 1057 z "},"":{"ha":571,"x_min":-43,"x_max":708,"o":"m 107 -119 q 40 -107 75 -119 q -19 -56 4 -94 q -43 61 -43 -17 q -31 169 -43 115 q 6 258 -18 222 q 63 294 31 294 q 101 283 79 294 q 64 164 76 219 q 51 61 51 108 q 74 -36 51 -1 q 139 -71 96 -71 q 203 -40 175 -71 q 263 75 232 -10 q 309 223 285 136 q 358 409 333 310 q 404 606 382 508 q 444 788 426 704 q 472 926 463 871 q 358 924 404 926 q 274 915 311 921 q 192 899 236 910 q 252 972 199 946 q 418 997 306 997 q 531 992 474 997 q 635 980 588 986 q 708 968 683 974 q 658 935 693 942 q 601 928 624 928 q 549 927 574 928 q 503 926 525 926 q 525 896 518 915 q 532 861 532 876 q 522 781 532 843 q 494 632 513 719 q 451 446 476 544 q 397 253 426 347 q 335 85 368 158 q 262 -42 299 1 q 187 -103 225 -86 q 107 -119 149 -119 m 640 1033 q 596 1102 621 1074 q 538 1161 571 1131 q 460 1128 494 1146 q 394 1082 426 1110 q 383 1095 386 1088 q 381 1108 381 1103 q 399 1150 381 1129 q 445 1190 418 1171 q 499 1219 472 1208 q 539 1231 525 1231 q 577 1215 556 1231 q 618 1176 599 1200 q 651 1125 638 1151 q 664 1076 664 1099 q 658 1051 664 1063 q 640 1033 653 1040 z "},"":{"ha":819,"x_min":42,"x_max":840,"o":"m 688 -121 q 617 -85 657 -121 q 531 11 576 -49 q 442 141 486 71 q 362 281 399 211 q 300 404 325 350 l 165 -32 q 135 -77 156 -64 q 90 -93 114 -90 q 42 -96 65 -96 q 78 -7 60 -57 q 123 114 97 43 q 183 286 149 185 q 266 528 218 388 q 379 860 314 669 q 390 891 383 871 q 397 928 397 911 q 390 952 397 943 q 364 961 383 961 q 299 934 331 961 q 244 865 268 907 q 206 779 219 824 q 192 700 192 735 q 199 653 192 674 q 134 676 153 653 q 115 732 115 699 q 143 826 115 779 q 215 913 171 874 q 306 976 258 953 q 393 1000 354 1000 q 444 979 431 1000 q 457 933 457 958 q 453 903 457 918 q 446 874 450 888 l 329 496 q 380 547 349 524 q 449 601 411 571 q 583 718 511 651 q 719 858 654 785 q 828 1000 785 932 q 838 971 835 992 q 840 939 840 950 q 805 844 840 896 q 713 738 769 793 q 588 630 656 683 q 453 529 519 576 q 335 447 388 482 q 416 313 376 376 q 502 188 456 249 q 611 63 549 126 q 763 -75 674 -1 q 732 -107 753 -93 q 688 -121 711 -121 m 286 -356 q 268 -335 274 -349 q 263 -304 263 -321 q 275 -241 263 -276 q 307 -181 288 -206 q 347 -156 326 -156 q 372 -167 361 -156 q 382 -194 382 -179 q 324 -275 343 -235 q 286 -356 306 -315 z "},"":{"ha":1363,"x_min":-103,"x_max":1500,"o":"m 551 -121 q 441 -100 501 -121 q 317 -49 381 -79 q 190 8 253 -19 q 118 -52 156 -31 q 36 -74 81 -74 q -40 -53 -8 -74 q -87 -3 -71 -32 q -103 47 -103 25 q -80 90 -103 72 q -1 108 -57 108 q 78 100 35 108 q 169 79 122 92 q 231 215 203 138 q 288 381 260 293 q 343 556 315 468 q 242 617 279 576 q 206 704 206 657 q 216 754 206 729 q 246 797 226 779 q 292 814 265 814 q 278 774 282 800 q 274 728 274 747 q 296 640 274 675 q 353 585 318 604 q 410 742 381 668 q 476 875 440 817 q 556 967 513 933 q 651 1000 599 1000 q 710 988 679 1000 q 764 944 742 975 q 786 858 786 914 q 767 756 786 811 q 707 652 747 701 q 604 572 667 603 q 457 539 542 540 q 451 539 456 539 q 431 539 446 539 q 372 367 403 454 q 306 201 340 279 q 231 61 271 122 q 360 22 294 42 q 486 -12 425 1 q 599 -25 547 -25 q 651 -19 628 -25 q 697 -3 675 -14 q 638 -94 675 -67 q 551 -121 601 -121 m 31 -33 q 88 -17 61 -33 q 138 31 115 0 q 53 60 94 49 q -21 72 13 72 q -57 65 -47 72 q -67 46 -67 58 q -40 -6 -67 22 q 31 -33 -12 -33 m 439 565 q 552 601 501 565 q 638 690 603 636 q 692 799 674 743 q 711 896 711 854 q 696 951 711 936 q 661 965 681 965 q 581 910 618 965 q 509 763 543 854 q 439 565 475 672 m 899 -119 q 831 -107 867 -119 q 772 -56 796 -94 q 749 61 749 -17 q 761 169 749 115 q 798 258 774 222 q 854 294 822 294 q 893 283 871 294 q 856 164 868 219 q 843 61 843 108 q 865 -36 843 -1 q 931 -71 888 -71 q 995 -40 967 -71 q 1054 75 1024 -10 q 1101 223 1076 136 q 1149 409 1125 310 q 1196 606 1174 508 q 1236 788 1218 704 q 1264 926 1254 871 q 1149 924 1196 926 q 1065 915 1103 921 q 983 899 1028 910 q 1044 972 990 946 q 1210 997 1097 997 q 1322 992 1265 997 q 1427 980 1379 986 q 1500 968 1475 974 q 1450 935 1485 942 q 1393 928 1415 928 q 1341 927 1365 928 q 1294 926 1317 926 q 1317 896 1310 915 q 1324 861 1324 876 q 1314 781 1324 843 q 1286 632 1304 719 q 1243 446 1268 544 q 1189 253 1218 347 q 1126 85 1160 158 q 1053 -42 1090 1 q 978 -103 1017 -86 q 899 -119 940 -119 z "},"":{"ha":792,"x_min":-103,"x_max":853,"o":"m 551 -121 q 441 -100 501 -121 q 317 -49 381 -79 q 190 8 253 -19 q 118 -52 156 -31 q 36 -74 81 -74 q -40 -53 -8 -74 q -87 -3 -71 -32 q -103 47 -103 25 q -80 90 -103 72 q -1 108 -57 108 q 78 100 35 108 q 169 79 122 92 q 231 215 203 138 q 288 381 260 293 q 343 556 315 468 q 242 617 279 576 q 206 704 206 657 q 216 754 206 729 q 246 797 226 779 q 292 814 265 814 q 278 774 282 800 q 274 728 274 747 q 296 640 274 675 q 353 585 318 604 q 410 742 381 668 q 476 875 440 817 q 556 967 513 933 q 651 1000 599 1000 q 710 988 679 1000 q 764 944 742 975 q 786 858 786 914 q 767 756 786 811 q 707 652 747 701 q 604 572 667 603 q 457 539 542 540 q 451 539 456 539 q 431 539 446 539 q 372 367 403 454 q 306 201 340 279 q 231 61 271 122 q 360 22 294 42 q 486 -12 425 1 q 599 -25 547 -25 q 651 -19 628 -25 q 697 -3 675 -14 q 638 -94 675 -67 q 551 -121 601 -121 m 31 -33 q 88 -17 61 -33 q 138 31 115 0 q 53 60 94 49 q -21 72 13 72 q -57 65 -47 72 q -67 46 -67 58 q -40 -6 -67 22 q 31 -33 -12 -33 m 439 565 q 552 601 501 565 q 638 690 603 636 q 692 799 674 743 q 711 896 711 854 q 696 951 711 936 q 661 965 681 965 q 581 910 618 965 q 509 763 543 854 q 439 565 475 672 m 697 1039 q 683 1057 688 1044 q 678 1075 678 1069 q 692 1115 678 1088 q 729 1172 707 1142 q 776 1222 751 1201 q 822 1243 801 1243 q 842 1234 833 1243 q 853 1200 851 1225 q 765 1118 803 1157 q 697 1039 728 1079 z "},"":{"ha":792,"x_min":-103,"x_max":974,"o":"m 551 -121 q 441 -100 501 -121 q 317 -49 381 -79 q 190 8 253 -19 q 118 -52 156 -31 q 36 -74 81 -74 q -40 -53 -8 -74 q -87 -3 -71 -32 q -103 47 -103 25 q -80 90 -103 72 q -1 108 -57 108 q 78 100 35 108 q 169 79 122 92 q 231 215 203 138 q 288 381 260 293 q 343 556 315 468 q 242 617 279 576 q 206 704 206 657 q 216 754 206 729 q 246 797 226 779 q 292 814 265 814 q 278 774 282 800 q 274 728 274 747 q 296 640 274 675 q 353 585 318 604 q 410 742 381 668 q 476 875 440 817 q 556 967 513 933 q 651 1000 599 1000 q 710 988 679 1000 q 764 944 742 975 q 786 858 786 914 q 767 756 786 811 q 707 652 747 701 q 604 572 667 603 q 457 539 542 540 q 451 539 456 539 q 431 539 446 539 q 372 367 403 454 q 306 201 340 279 q 231 61 271 122 q 360 22 294 42 q 486 -12 425 1 q 599 -25 547 -25 q 651 -19 628 -25 q 697 -3 675 -14 q 638 -94 675 -67 q 551 -121 601 -121 m 31 -33 q 88 -17 61 -33 q 138 31 115 0 q 53 60 94 49 q -21 72 13 72 q -57 65 -47 72 q -67 46 -67 58 q -40 -6 -67 22 q 31 -33 -12 -33 m 439 565 q 552 601 501 565 q 638 690 603 636 q 692 799 674 743 q 711 896 711 854 q 696 951 711 936 q 661 965 681 965 q 581 910 618 965 q 509 763 543 854 q 439 565 475 672 m 865 774 q 842 783 853 774 q 831 810 831 792 q 851 869 831 836 q 900 928 871 903 q 954 953 929 953 q 974 947 967 953 q 924 866 947 911 q 888 781 901 821 q 865 774 878 774 z "},"":{"ha":792,"x_min":-103,"x_max":786,"o":"m 551 -121 q 441 -100 501 -121 q 317 -49 381 -79 q 190 8 253 -19 q 118 -52 156 -31 q 36 -74 81 -74 q -40 -53 -8 -74 q -87 -3 -71 -32 q -103 47 -103 25 q -80 90 -103 72 q -1 108 -57 108 q 78 100 35 108 q 169 79 122 92 q 231 215 203 138 q 288 381 260 293 q 343 556 315 468 q 242 617 279 576 q 206 704 206 657 q 216 754 206 729 q 246 797 226 779 q 292 814 265 814 q 278 774 282 800 q 274 728 274 747 q 296 640 274 675 q 353 585 318 604 q 410 742 381 668 q 476 875 440 817 q 556 967 513 933 q 651 1000 599 1000 q 710 988 679 1000 q 764 944 742 975 q 786 858 786 914 q 767 756 786 811 q 707 652 747 701 q 604 572 667 603 q 457 539 542 540 q 451 539 456 539 q 431 539 446 539 q 372 367 403 454 q 306 201 340 279 q 231 61 271 122 q 360 22 294 42 q 486 -12 425 1 q 599 -25 547 -25 q 651 -19 628 -25 q 697 -3 675 -14 q 638 -94 675 -67 q 551 -121 601 -121 m 31 -33 q 88 -17 61 -33 q 138 31 115 0 q 53 60 94 49 q -21 72 13 72 q -57 65 -47 72 q -67 46 -67 58 q -40 -6 -67 22 q 31 -33 -12 -33 m 439 565 q 552 601 501 565 q 638 690 603 636 q 692 799 674 743 q 711 896 711 854 q 696 951 711 936 q 661 965 681 965 q 581 910 618 965 q 509 763 543 854 q 439 565 475 672 m 179 -325 q 161 -304 167 -318 q 156 -274 156 -290 q 168 -210 156 -246 q 200 -150 181 -175 q 240 -125 219 -125 q 265 -137 254 -125 q 275 -164 275 -149 q 217 -244 236 -204 q 179 -325 199 -285 z "},"":{"ha":792,"x_min":-103,"x_max":786,"o":"m 551 -121 q 441 -100 501 -121 q 317 -49 381 -79 q 190 8 253 -19 q 118 -52 156 -31 q 36 -74 81 -74 q -40 -53 -8 -74 q -87 -3 -71 -32 q -103 47 -103 25 q -80 90 -103 72 q -1 108 -57 108 q 78 100 35 108 q 169 79 122 92 q 231 215 203 138 q 288 381 260 293 q 343 556 315 468 q 242 617 279 576 q 206 704 206 657 q 216 754 206 729 q 246 797 226 779 q 292 814 265 814 q 278 774 282 800 q 274 728 274 747 q 296 640 274 675 q 353 585 318 604 q 410 742 381 668 q 476 875 440 817 q 556 967 513 933 q 651 1000 599 1000 q 710 988 679 1000 q 764 944 742 975 q 786 858 786 914 q 767 756 786 811 q 707 652 747 701 q 604 572 667 603 q 457 539 542 540 q 451 539 456 539 q 431 539 446 539 q 372 367 403 454 q 306 201 340 279 q 231 61 271 122 q 360 22 294 42 q 486 -12 425 1 q 599 -25 547 -25 q 651 -19 628 -25 q 697 -3 675 -14 q 638 -94 675 -67 q 551 -121 601 -121 m 31 -33 q 88 -17 61 -33 q 138 31 115 0 q 53 60 94 49 q -21 72 13 72 q -57 65 -47 72 q -67 46 -67 58 q -40 -6 -67 22 q 31 -33 -12 -33 m 439 565 q 552 601 501 565 q 638 690 603 636 q 692 799 674 743 q 711 896 711 854 q 696 951 711 936 q 661 965 681 965 q 581 910 618 965 q 509 763 543 854 q 439 565 475 672 m 615 331 q 584 340 597 331 q 571 368 571 349 q 583 397 571 383 q 615 417 596 410 q 651 425 633 425 q 678 418 668 425 q 688 392 688 411 q 677 364 688 378 q 650 340 667 350 q 615 331 633 331 z "},"":{"ha":1094,"x_min":-103,"x_max":1139,"o":"m 551 -121 q 441 -100 501 -121 q 317 -49 381 -79 q 190 8 253 -19 q 118 -52 156 -31 q 36 -74 81 -74 q -40 -53 -8 -74 q -87 -3 -71 -32 q -103 47 -103 25 q -80 90 -103 72 q -1 108 -57 108 q 78 100 35 108 q 169 79 122 92 q 231 215 203 138 q 288 381 260 293 q 343 556 315 468 q 242 617 279 576 q 206 704 206 657 q 216 754 206 729 q 246 797 226 779 q 292 814 265 814 q 278 774 282 800 q 274 728 274 747 q 296 640 274 675 q 353 585 318 604 q 410 742 381 668 q 476 875 440 817 q 556 967 513 933 q 651 1000 599 1000 q 710 988 679 1000 q 764 944 742 975 q 786 858 786 914 q 767 756 786 811 q 707 652 747 701 q 604 572 667 603 q 457 539 542 540 q 451 539 456 539 q 431 539 446 539 q 372 367 403 454 q 306 201 340 279 q 231 61 271 122 q 360 22 294 42 q 486 -12 425 1 q 599 -25 547 -25 q 651 -19 628 -25 q 697 -3 675 -14 q 638 -94 675 -67 q 551 -121 601 -121 m 31 -33 q 88 -17 61 -33 q 138 31 115 0 q 53 60 94 49 q -21 72 13 72 q -57 65 -47 72 q -67 46 -67 58 q -40 -6 -67 22 q 31 -33 -12 -33 m 439 565 q 552 601 501 565 q 638 690 603 636 q 692 799 674 743 q 711 896 711 854 q 696 951 711 936 q 661 965 681 965 q 581 910 618 965 q 509 763 543 854 q 439 565 475 672 m 597 -389 q 544 -369 563 -389 q 525 -318 525 -349 q 574 -206 525 -267 q 700 -101 624 -144 q 741 -81 719 -90 q 789 -57 763 -71 q 840 95 817 10 q 882 285 864 181 q 844 219 861 247 q 817 175 826 192 l 804 196 q 847 288 828 239 q 883 382 865 338 q 918 454 900 426 q 957 482 936 482 q 981 470 972 482 q 990 440 990 458 q 983 381 990 425 q 960 274 975 338 q 925 138 946 211 q 879 -11 904 64 q 960 38 919 13 q 1041 104 1000 63 q 1121 218 1082 146 l 1139 208 q 1056 78 1104 126 q 958 3 1008 31 q 865 -50 908 -25 q 794 -214 835 -136 q 703 -340 753 -292 q 597 -389 654 -389 m 585 -342 q 665 -281 613 -342 q 771 -101 717 -221 q 613 -208 665 -153 q 561 -308 561 -264 q 568 -334 561 -326 q 585 -342 575 -342 m 979 607 q 940 618 957 607 q 924 651 924 629 q 940 689 924 672 q 979 715 956 706 q 1025 725 1003 725 q 1058 715 1044 725 q 1071 686 1071 706 q 1042 631 1071 656 q 979 607 1014 607 z "},"":{"ha":793,"x_min":-103,"x_max":697,"o":"m 551 -121 q 441 -100 501 -121 q 317 -49 381 -79 q 190 8 253 -19 q 118 -52 156 -31 q 36 -74 81 -74 q -40 -53 -8 -74 q -87 -3 -71 -32 q -103 47 -103 25 q -80 90 -103 72 q -1 108 -57 108 q 78 100 35 108 q 169 79 122 92 q 226 204 199 129 q 281 369 253 279 q 339 549 308 458 q 401 717 368 636 q 471 861 433 797 q 553 963 508 925 q 651 1000 599 1000 q 549 833 608 946 q 436 556 490 719 q 372 369 400 447 q 320 235 343 290 q 276 138 297 179 q 231 61 254 97 q 360 22 294 42 q 486 -12 425 1 q 599 -25 547 -25 q 651 -19 628 -25 q 697 -3 675 -14 q 638 -94 675 -67 q 551 -121 601 -121 m 31 -33 q 88 -17 61 -33 q 138 31 115 0 q 53 60 94 49 q -21 72 13 72 q -57 65 -47 72 q -67 46 -67 58 q -40 -6 -67 22 q 31 -33 -12 -33 m 156 468 q 222 535 165 510 q 372 571 278 560 q 588 582 467 582 q 647 581 615 582 q 693 576 678 579 q 675 541 693 551 q 612 526 657 531 q 482 513 567 521 q 362 501 411 507 q 266 489 313 496 q 156 468 219 482 z "},"":{"ha":1453,"x_min":64,"x_max":1590,"o":"m 64 -121 q 106 28 81 -54 q 166 223 131 110 q 249 492 201 336 q 358 860 296 647 q 365 884 361 867 q 368 917 368 901 q 363 940 368 931 q 347 949 358 949 q 284 923 314 949 q 233 858 254 897 q 199 777 211 819 q 186 701 186 735 q 193 653 186 674 q 128 676 147 653 q 110 732 110 699 q 138 826 110 779 q 208 913 165 874 q 299 976 251 953 q 388 1000 347 1000 q 456 965 429 1000 q 500 867 483 929 q 528 728 517 806 q 549 567 539 650 q 565 428 557 497 q 582 298 574 360 q 597 185 590 236 q 610 100 604 133 q 638 248 619 165 q 680 420 657 331 q 728 595 703 510 q 774 752 753 681 q 812 872 796 824 q 833 932 828 919 q 865 975 840 950 q 921 1000 890 1000 q 867 844 897 936 q 807 644 838 751 q 747 424 776 536 q 695 208 718 313 q 659 19 672 104 q 644 -121 646 -67 q 574 -96 601 -121 q 536 -8 547 -71 q 519 91 529 28 q 497 232 508 154 q 472 394 485 310 q 448 558 460 478 q 426 706 436 639 q 410 818 417 774 q 296 412 343 578 q 216 141 249 246 q 158 -21 183 36 q 111 -99 133 -78 q 64 -121 89 -121 m 989 -119 q 922 -107 957 -119 q 863 -56 886 -94 q 839 61 839 -17 q 851 169 839 115 q 888 258 864 222 q 944 294 913 294 q 983 283 961 294 q 946 164 958 219 q 933 61 933 108 q 956 -36 933 -1 q 1021 -71 978 -71 q 1085 -40 1057 -71 q 1144 75 1114 -10 q 1191 223 1167 136 q 1240 409 1215 310 q 1286 606 1264 508 q 1326 788 1308 704 q 1354 926 1344 871 q 1240 924 1286 926 q 1156 915 1193 921 q 1074 899 1118 910 q 1134 972 1081 946 q 1300 997 1188 997 q 1413 992 1356 997 q 1517 980 1469 986 q 1590 968 1565 974 q 1540 935 1575 942 q 1483 928 1506 928 q 1431 927 1456 928 q 1385 926 1407 926 q 1407 896 1400 915 q 1414 861 1414 876 q 1404 781 1414 843 q 1376 632 1394 719 q 1333 446 1358 544 q 1279 253 1308 347 q 1217 85 1250 158 q 1144 -42 1181 1 q 1069 -103 1107 -86 q 989 -119 1031 -119 z "},"":{"ha":889,"x_min":64,"x_max":921,"o":"m 64 -121 q 106 28 81 -54 q 166 223 131 110 q 249 492 201 336 q 358 860 296 647 q 365 884 361 867 q 368 917 368 901 q 363 940 368 931 q 347 949 358 949 q 284 923 314 949 q 233 858 254 897 q 199 777 211 819 q 186 701 186 735 q 193 653 186 674 q 128 676 147 653 q 110 732 110 699 q 138 826 110 779 q 208 913 165 874 q 299 976 251 953 q 388 1000 347 1000 q 456 965 429 1000 q 500 867 483 929 q 528 728 517 806 q 549 567 539 650 q 565 428 557 497 q 582 298 574 360 q 597 185 590 236 q 610 100 604 133 q 638 248 619 165 q 680 420 657 331 q 728 595 703 510 q 774 752 753 681 q 812 872 796 824 q 833 932 828 919 q 865 975 840 950 q 921 1000 890 1000 q 867 844 897 936 q 807 644 838 751 q 747 424 776 536 q 695 208 718 313 q 659 19 672 104 q 644 -121 646 -67 q 574 -96 601 -121 q 536 -8 547 -71 q 519 91 529 28 q 497 232 508 154 q 472 394 485 310 q 448 558 460 478 q 426 706 436 639 q 410 818 417 774 q 296 412 343 578 q 216 141 249 246 q 158 -21 183 36 q 111 -99 133 -78 q 64 -121 89 -121 m 663 1039 q 648 1057 653 1044 q 643 1075 643 1069 q 658 1115 643 1088 q 694 1172 672 1142 q 742 1222 717 1201 q 788 1243 767 1243 q 808 1234 799 1243 q 818 1200 817 1225 q 731 1118 768 1157 q 663 1039 693 1079 z "},"":{"ha":889,"x_min":64,"x_max":921,"o":"m 64 -121 q 106 28 81 -54 q 166 223 131 110 q 249 492 201 336 q 358 860 296 647 q 365 884 361 867 q 368 917 368 901 q 363 940 368 931 q 347 949 358 949 q 284 923 314 949 q 233 858 254 897 q 199 777 211 819 q 186 701 186 735 q 193 653 186 674 q 128 676 147 653 q 110 732 110 699 q 138 826 110 779 q 208 913 165 874 q 299 976 251 953 q 388 1000 347 1000 q 456 965 429 1000 q 500 867 483 929 q 528 728 517 806 q 549 567 539 650 q 565 428 557 497 q 582 298 574 360 q 597 185 590 236 q 610 100 604 133 q 638 248 619 165 q 680 420 657 331 q 728 595 703 510 q 774 752 753 681 q 812 872 796 824 q 833 932 828 919 q 865 975 840 950 q 921 1000 890 1000 q 867 844 897 936 q 807 644 838 751 q 747 424 776 536 q 695 208 718 313 q 659 19 672 104 q 644 -121 646 -67 q 574 -96 601 -121 q 536 -8 547 -71 q 519 91 529 28 q 497 232 508 154 q 472 394 485 310 q 448 558 460 478 q 426 706 436 639 q 410 818 417 774 q 296 412 343 578 q 216 141 249 246 q 158 -21 183 36 q 111 -99 133 -78 q 64 -121 89 -121 m 658 1047 q 620 1063 642 1047 q 579 1102 599 1078 q 547 1153 560 1126 q 533 1201 533 1179 q 539 1227 533 1215 q 557 1244 544 1239 q 601 1177 576 1206 q 660 1117 626 1149 q 738 1150 703 1132 q 803 1196 772 1168 q 814 1183 811 1190 q 817 1169 817 1176 q 798 1128 817 1149 q 752 1088 779 1107 q 699 1058 725 1069 q 658 1047 672 1047 z "},"":{"ha":889,"x_min":64,"x_max":921,"o":"m 64 -121 q 106 28 81 -54 q 166 223 131 110 q 249 492 201 336 q 358 860 296 647 q 365 884 361 867 q 368 917 368 901 q 363 940 368 931 q 347 949 358 949 q 284 923 314 949 q 233 858 254 897 q 199 777 211 819 q 186 701 186 735 q 193 653 186 674 q 128 676 147 653 q 110 732 110 699 q 138 826 110 779 q 208 913 165 874 q 299 976 251 953 q 388 1000 347 1000 q 456 965 429 1000 q 500 867 483 929 q 528 728 517 806 q 549 567 539 650 q 565 428 557 497 q 582 298 574 360 q 597 185 590 236 q 610 100 604 133 q 638 248 619 165 q 680 420 657 331 q 728 595 703 510 q 774 752 753 681 q 812 872 796 824 q 833 932 828 919 q 865 975 840 950 q 921 1000 890 1000 q 867 844 897 936 q 807 644 838 751 q 747 424 776 536 q 695 208 718 313 q 659 19 672 104 q 644 -121 646 -67 q 574 -96 601 -121 q 536 -8 547 -71 q 519 91 529 28 q 497 232 508 154 q 472 394 485 310 q 448 558 460 478 q 426 706 436 639 q 410 818 417 774 q 296 412 343 578 q 216 141 249 246 q 158 -21 183 36 q 111 -99 133 -78 q 64 -121 89 -121 m 293 -322 q 275 -301 281 -315 q 269 -271 269 -287 q 282 -208 269 -243 q 314 -147 294 -172 q 354 -122 333 -122 q 378 -134 368 -122 q 389 -161 389 -146 q 331 -242 350 -201 q 293 -322 313 -282 z "},"":{"ha":917,"x_min":111,"x_max":889,"o":"m 336 -328 q 273 -321 297 -328 q 249 -304 249 -314 q 274 -292 249 -292 q 441 -238 369 -292 q 567 -85 513 -185 q 664 156 621 15 q 700 284 679 206 q 741 453 721 363 q 774 628 761 543 q 788 772 788 713 q 760 883 788 838 q 671 928 733 928 q 567 891 614 928 q 483 796 519 854 q 422 673 447 738 q 383 551 397 608 q 289 181 332 344 q 210 -137 246 18 q 148 -122 179 -137 q 117 -72 117 -107 q 130 13 117 -47 q 165 151 143 72 q 211 315 186 229 q 259 478 236 400 q 299 615 282 557 q 327 715 311 660 q 355 828 343 771 q 367 933 367 886 q 343 961 367 961 q 286 934 314 961 q 236 865 258 907 q 201 779 214 824 q 188 700 188 735 q 190 675 188 688 q 194 653 192 663 q 130 676 149 653 q 111 732 111 699 q 137 826 111 779 q 203 913 163 874 q 290 976 243 953 q 381 1000 338 1000 q 435 980 421 1000 q 450 933 450 960 q 442 858 450 904 q 418 747 435 811 q 544 921 472 858 q 708 983 615 983 q 844 929 799 983 q 889 794 889 875 q 876 655 889 739 q 844 478 864 571 q 801 298 824 385 q 761 149 779 211 q 694 -35 732 51 q 606 -187 657 -121 q 489 -290 556 -253 q 336 -328 422 -328 z "},"":{"ha":1169,"x_min":64,"x_max":1214,"o":"m 64 -121 q 106 28 81 -54 q 166 223 131 110 q 249 492 201 336 q 358 860 296 647 q 365 884 361 867 q 368 917 368 901 q 363 940 368 931 q 347 949 358 949 q 284 923 314 949 q 233 858 254 897 q 199 777 211 819 q 186 701 186 735 q 193 653 186 674 q 128 676 147 653 q 110 732 110 699 q 138 826 110 779 q 208 913 165 874 q 299 976 251 953 q 388 1000 347 1000 q 456 965 429 1000 q 500 867 483 929 q 528 728 517 806 q 549 567 539 650 q 565 428 557 497 q 582 298 574 360 q 597 185 590 236 q 610 100 604 133 q 638 248 619 165 q 680 420 657 331 q 728 595 703 510 q 774 752 753 681 q 812 872 796 824 q 833 932 828 919 q 865 975 840 950 q 921 1000 890 1000 q 867 844 897 936 q 807 644 838 751 q 747 424 776 536 q 695 208 718 313 q 659 19 672 104 q 644 -121 646 -67 q 574 -96 601 -121 q 536 -8 547 -71 q 519 91 529 28 q 497 232 508 154 q 472 394 485 310 q 448 558 460 478 q 426 706 436 639 q 410 818 417 774 q 296 412 343 578 q 216 141 249 246 q 158 -21 183 36 q 111 -99 133 -78 q 64 -121 89 -121 m 672 -389 q 619 -369 638 -389 q 600 -318 600 -349 q 649 -206 600 -267 q 775 -101 699 -144 q 816 -81 794 -90 q 864 -57 838 -71 q 915 95 892 10 q 957 285 939 181 q 919 219 936 247 q 892 175 901 192 l 879 196 q 922 288 903 239 q 958 382 940 338 q 993 454 975 426 q 1032 482 1011 482 q 1056 470 1047 482 q 1065 440 1065 458 q 1058 381 1065 425 q 1035 274 1050 338 q 1000 138 1021 211 q 954 -11 979 64 q 1035 38 994 13 q 1116 104 1075 63 q 1196 218 1157 146 l 1214 208 q 1131 78 1179 126 q 1033 3 1083 31 q 940 -50 983 -25 q 869 -214 910 -136 q 778 -340 828 -292 q 672 -389 729 -389 m 660 -342 q 740 -281 688 -342 q 846 -101 792 -221 q 688 -208 740 -153 q 636 -308 636 -264 q 643 -334 636 -326 q 660 -342 650 -342 m 1054 607 q 1015 618 1032 607 q 999 651 999 629 q 1015 689 999 672 q 1054 715 1031 706 q 1100 725 1078 725 q 1133 715 1119 725 q 1146 686 1146 706 q 1117 631 1146 656 q 1054 607 1089 607 z "},"":{"ha":889,"x_min":64,"x_max":921,"o":"m 64 -121 q 106 28 81 -54 q 166 223 131 110 q 249 492 201 336 q 358 860 296 647 q 365 884 361 867 q 368 917 368 901 q 363 940 368 931 q 347 949 358 949 q 284 923 314 949 q 233 858 254 897 q 199 777 211 819 q 186 701 186 735 q 193 653 186 674 q 128 676 147 653 q 110 732 110 699 q 138 826 110 779 q 208 913 165 874 q 299 976 251 953 q 388 1000 347 1000 q 456 965 429 1000 q 500 867 483 929 q 528 728 517 806 q 549 567 539 650 q 565 428 557 497 q 582 298 574 360 q 597 185 590 236 q 610 100 604 133 q 638 248 619 165 q 680 420 657 331 q 728 595 703 510 q 774 752 753 681 q 812 872 796 824 q 833 932 828 919 q 865 975 840 950 q 921 1000 890 1000 q 867 844 897 936 q 807 644 838 751 q 747 424 776 536 q 695 208 718 313 q 659 19 672 104 q 644 -121 646 -67 q 574 -96 601 -121 q 536 -8 547 -71 q 519 91 529 28 q 497 232 508 154 q 472 394 485 310 q 448 558 460 478 q 426 706 436 639 q 410 818 417 774 q 296 412 343 578 q 216 141 249 246 q 158 -21 183 36 q 111 -99 133 -78 q 64 -121 89 -121 m 782 1057 q 704 1073 744 1057 q 623 1105 664 1089 q 539 1121 582 1121 q 501 1116 521 1121 q 464 1100 482 1111 q 522 1154 492 1139 q 585 1169 553 1169 q 665 1153 624 1169 q 753 1119 707 1136 q 849 1103 799 1103 q 896 1114 871 1103 q 841 1069 869 1082 q 782 1057 813 1057 z "},"":{"ha":865,"x_min":29,"x_max":869,"o":"m 296 -121 q 157 -78 217 -121 q 63 42 97 -36 q 29 224 29 119 q 63 440 29 331 q 156 650 97 550 q 288 828 214 750 q 443 953 361 907 q 604 999 525 999 q 651 994 631 999 q 688 982 672 990 q 674 982 676 982 q 671 982 672 982 q 525 934 599 982 q 385 805 451 886 q 265 623 318 724 q 182 414 213 522 q 151 204 151 306 q 170 67 151 131 q 231 -35 189 3 q 338 -74 272 -74 q 483 -26 415 -74 q 606 104 551 22 q 701 287 661 186 q 762 495 740 388 q 783 701 783 603 q 778 785 783 740 q 758 861 772 829 q 721 893 744 893 q 667 862 696 893 q 610 783 638 831 q 563 685 583 736 q 533 596 542 635 q 483 623 499 604 q 467 664 467 642 q 492 747 467 701 q 558 834 518 792 q 640 903 597 876 q 718 931 683 931 q 777 904 754 931 q 813 837 800 878 q 831 749 826 796 q 836 663 836 703 q 802 387 836 511 q 710 168 768 263 q 582 9 653 74 q 437 -88 511 -56 q 296 -121 363 -121 m 714 1039 q 699 1057 704 1044 q 694 1075 694 1069 q 709 1115 694 1088 q 746 1172 724 1142 q 793 1222 768 1201 q 839 1243 818 1243 q 859 1234 850 1243 q 869 1200 868 1225 q 782 1118 819 1157 q 714 1039 744 1079 z "},"":{"ha":865,"x_min":29,"x_max":906,"o":"m 296 -121 q 157 -78 217 -121 q 63 42 97 -36 q 29 224 29 119 q 63 440 29 331 q 156 650 97 550 q 288 828 214 750 q 443 953 361 907 q 604 999 525 999 q 651 994 631 999 q 688 982 672 990 q 674 982 676 982 q 671 982 672 982 q 525 934 599 982 q 385 805 451 886 q 265 623 318 724 q 182 414 213 522 q 151 204 151 306 q 170 67 151 131 q 231 -35 189 3 q 338 -74 272 -74 q 483 -26 415 -74 q 606 104 551 22 q 701 287 661 186 q 762 495 740 388 q 783 701 783 603 q 778 785 783 740 q 758 861 772 829 q 721 893 744 893 q 667 862 696 893 q 610 783 638 831 q 563 685 583 736 q 533 596 542 635 q 483 623 499 604 q 467 664 467 642 q 492 747 467 701 q 558 834 518 792 q 640 903 597 876 q 718 931 683 931 q 777 904 754 931 q 813 837 800 878 q 831 749 826 796 q 836 663 836 703 q 802 387 836 511 q 710 168 768 263 q 582 9 653 74 q 437 -88 511 -56 q 296 -121 363 -121 m 756 1053 q 672 1074 703 1053 q 626 1126 640 1096 q 613 1181 613 1156 q 622 1222 613 1206 q 646 1249 631 1239 q 676 1162 650 1201 q 758 1122 701 1122 q 843 1149 811 1122 q 892 1206 875 1176 q 903 1185 900 1197 q 906 1164 906 1174 q 860 1085 906 1117 q 756 1053 815 1053 z "},"":{"ha":865,"x_min":29,"x_max":865,"o":"m 296 -121 q 157 -78 217 -121 q 63 42 97 -36 q 29 224 29 119 q 63 440 29 331 q 156 650 97 550 q 288 828 214 750 q 443 953 361 907 q 604 999 525 999 q 651 994 631 999 q 688 982 672 990 q 674 982 676 982 q 671 982 672 982 q 525 934 599 982 q 385 805 451 886 q 265 623 318 724 q 182 414 213 522 q 151 204 151 306 q 170 67 151 131 q 231 -35 189 3 q 338 -74 272 -74 q 483 -26 415 -74 q 606 104 551 22 q 701 287 661 186 q 762 495 740 388 q 783 701 783 603 q 778 785 783 740 q 758 861 772 829 q 721 893 744 893 q 667 862 696 893 q 610 783 638 831 q 563 685 583 736 q 533 596 542 635 q 483 623 499 604 q 467 664 467 642 q 492 747 467 701 q 558 834 518 792 q 640 903 597 876 q 718 931 683 931 q 777 904 754 931 q 813 837 800 878 q 831 749 826 796 q 836 663 836 703 q 802 387 836 511 q 710 168 768 263 q 582 9 653 74 q 437 -88 511 -56 q 296 -121 363 -121 m 842 1033 q 797 1102 822 1074 q 739 1161 772 1131 q 662 1128 696 1146 q 596 1082 628 1110 q 585 1095 588 1088 q 582 1108 582 1103 q 601 1150 582 1129 q 647 1190 619 1171 q 700 1219 674 1208 q 740 1231 726 1231 q 778 1215 757 1231 q 819 1176 800 1200 q 852 1125 839 1151 q 865 1076 865 1099 q 860 1051 865 1063 q 842 1033 854 1040 z "},"":{"ha":865,"x_min":29,"x_max":1017,"o":"m 296 -121 q 157 -78 217 -121 q 63 42 97 -36 q 29 224 29 119 q 63 440 29 331 q 156 650 97 550 q 288 828 214 750 q 443 953 361 907 q 604 999 525 999 q 651 994 631 999 q 688 982 672 990 q 674 982 676 982 q 671 982 672 982 q 525 934 599 982 q 385 805 451 886 q 265 623 318 724 q 182 414 213 522 q 151 204 151 306 q 170 67 151 131 q 231 -35 189 3 q 338 -74 272 -74 q 483 -26 415 -74 q 606 104 551 22 q 701 287 661 186 q 762 495 740 388 q 783 701 783 603 q 778 785 783 740 q 758 861 772 829 q 721 893 744 893 q 667 862 696 893 q 610 783 638 831 q 563 685 583 736 q 533 596 542 635 q 483 623 499 604 q 467 664 467 642 q 492 747 467 701 q 558 834 518 792 q 640 903 597 876 q 718 931 683 931 q 777 904 754 931 q 813 837 800 878 q 831 749 826 796 q 836 663 836 703 q 802 387 836 511 q 710 168 768 263 q 582 9 653 74 q 437 -88 511 -56 q 296 -121 363 -121 m 889 1165 q 868 1183 875 1172 q 861 1206 861 1194 q 874 1242 861 1219 q 906 1288 886 1265 q 947 1326 925 1311 q 986 1342 968 1342 q 1006 1333 997 1342 q 1017 1299 1015 1324 q 967 1253 990 1275 q 925 1209 944 1231 q 889 1165 906 1188 m 842 1033 q 797 1102 822 1074 q 739 1161 772 1131 q 662 1128 696 1146 q 596 1082 628 1110 q 585 1095 588 1088 q 582 1108 582 1103 q 601 1150 582 1129 q 647 1190 619 1171 q 700 1219 674 1208 q 740 1231 726 1231 q 778 1215 757 1231 q 819 1176 800 1200 q 852 1125 839 1151 q 865 1076 865 1099 q 860 1051 865 1063 q 842 1033 854 1040 z "},"":{"ha":865,"x_min":29,"x_max":865,"o":"m 296 -121 q 157 -78 217 -121 q 63 42 97 -36 q 29 224 29 119 q 63 440 29 331 q 156 650 97 550 q 288 828 214 750 q 443 953 361 907 q 604 999 525 999 q 651 994 631 999 q 688 982 672 990 q 674 982 676 982 q 671 982 672 982 q 525 934 599 982 q 385 805 451 886 q 265 623 318 724 q 182 414 213 522 q 151 204 151 306 q 170 67 151 131 q 231 -35 189 3 q 338 -74 272 -74 q 483 -26 415 -74 q 606 104 551 22 q 701 287 661 186 q 762 495 740 388 q 783 701 783 603 q 778 785 783 740 q 758 861 772 829 q 721 893 744 893 q 667 862 696 893 q 610 783 638 831 q 563 685 583 736 q 533 596 542 635 q 483 623 499 604 q 467 664 467 642 q 492 747 467 701 q 558 834 518 792 q 640 903 597 876 q 718 931 683 931 q 777 904 754 931 q 813 837 800 878 q 831 749 826 796 q 836 663 836 703 q 802 387 836 511 q 710 168 768 263 q 582 9 653 74 q 437 -88 511 -56 q 296 -121 363 -121 m 842 1033 q 797 1102 822 1074 q 739 1161 772 1131 q 662 1128 696 1146 q 596 1082 628 1110 q 585 1095 588 1088 q 582 1108 582 1103 q 601 1150 582 1129 q 647 1190 619 1171 q 700 1219 674 1208 q 740 1231 726 1231 q 778 1215 757 1231 q 819 1176 800 1200 q 852 1125 839 1151 q 865 1076 865 1099 q 860 1051 865 1063 q 842 1033 854 1040 m 233 -358 q 193 -347 208 -358 q 178 -312 178 -335 q 208 -263 178 -282 q 268 -244 238 -244 q 304 -256 292 -244 q 317 -290 317 -268 q 290 -337 317 -317 q 233 -358 264 -358 z "},"":{"ha":865,"x_min":29,"x_max":942,"o":"m 296 -121 q 157 -78 217 -121 q 63 42 97 -36 q 29 224 29 119 q 63 440 29 331 q 156 650 97 550 q 288 828 214 750 q 443 953 361 907 q 604 999 525 999 q 651 994 631 999 q 688 982 672 990 q 674 982 676 982 q 671 982 672 982 q 525 934 599 982 q 385 805 451 886 q 265 623 318 724 q 182 414 213 522 q 151 204 151 306 q 170 67 151 131 q 231 -35 189 3 q 338 -74 272 -74 q 483 -26 415 -74 q 606 104 551 22 q 701 287 661 186 q 762 495 740 388 q 783 701 783 603 q 778 785 783 740 q 758 861 772 829 q 721 893 744 893 q 667 862 696 893 q 610 783 638 831 q 563 685 583 736 q 533 596 542 635 q 483 623 499 604 q 467 664 467 642 q 492 747 467 701 q 558 834 518 792 q 640 903 597 876 q 718 931 683 931 q 777 904 754 931 q 813 837 800 878 q 831 749 826 796 q 836 663 836 703 q 802 387 836 511 q 710 168 768 263 q 582 9 653 74 q 437 -88 511 -56 q 296 -121 363 -121 m 913 1163 q 883 1210 900 1186 q 847 1258 867 1233 q 803 1310 826 1283 q 815 1341 806 1333 q 838 1349 825 1349 q 873 1332 854 1349 q 907 1291 892 1315 q 932 1243 922 1267 q 942 1204 942 1219 q 913 1163 942 1174 m 842 1033 q 797 1102 822 1074 q 739 1161 772 1131 q 662 1128 696 1146 q 596 1082 628 1110 q 585 1095 588 1088 q 582 1108 582 1103 q 601 1150 582 1129 q 647 1190 619 1171 q 700 1219 674 1208 q 740 1231 726 1231 q 778 1215 757 1231 q 819 1176 800 1200 q 852 1125 839 1151 q 865 1076 865 1099 q 860 1051 865 1063 q 842 1033 854 1040 z "},"":{"ha":865,"x_min":29,"x_max":1008,"o":"m 296 -121 q 157 -78 217 -121 q 63 42 97 -36 q 29 224 29 119 q 63 440 29 331 q 156 650 97 550 q 288 828 214 750 q 443 953 361 907 q 604 999 525 999 q 651 994 631 999 q 688 982 672 990 q 674 982 676 982 q 671 982 672 982 q 525 934 599 982 q 385 805 451 886 q 265 623 318 724 q 182 414 213 522 q 151 204 151 306 q 170 67 151 131 q 231 -35 189 3 q 338 -74 272 -74 q 483 -26 415 -74 q 606 104 551 22 q 701 287 661 186 q 762 495 740 388 q 783 701 783 603 q 778 785 783 740 q 758 861 772 829 q 721 893 744 893 q 667 862 696 893 q 610 783 638 831 q 563 685 583 736 q 533 596 542 635 q 483 623 499 604 q 467 664 467 642 q 492 747 467 701 q 558 834 518 792 q 640 903 597 876 q 718 931 683 931 q 777 904 754 931 q 813 837 800 878 q 831 749 826 796 q 836 663 836 703 q 802 387 836 511 q 710 168 768 263 q 582 9 653 74 q 437 -88 511 -56 q 296 -121 363 -121 m 926 1151 q 901 1156 913 1151 q 883 1167 890 1161 q 938 1184 913 1169 q 963 1228 963 1199 q 931 1275 963 1260 q 833 1290 899 1290 q 851 1335 833 1317 q 900 1354 869 1354 q 978 1320 947 1354 q 1008 1238 1008 1286 q 985 1175 1008 1199 q 926 1151 963 1151 m 842 1033 q 797 1102 822 1074 q 739 1161 772 1131 q 662 1128 696 1146 q 596 1082 628 1110 q 585 1095 588 1088 q 582 1108 582 1103 q 601 1150 582 1129 q 647 1190 619 1171 q 700 1219 674 1208 q 740 1231 726 1231 q 778 1215 757 1231 q 819 1176 800 1200 q 852 1125 839 1151 q 865 1076 865 1099 q 860 1051 865 1063 q 842 1033 854 1040 z "},"":{"ha":865,"x_min":29,"x_max":1014,"o":"m 296 -121 q 157 -78 217 -121 q 63 42 97 -36 q 29 224 29 119 q 63 440 29 331 q 156 650 97 550 q 288 828 214 750 q 443 953 361 907 q 604 999 525 999 q 651 994 631 999 q 688 982 672 990 q 674 982 676 982 q 671 982 672 982 q 525 934 599 982 q 385 805 451 886 q 265 623 318 724 q 182 414 213 522 q 151 204 151 306 q 170 67 151 131 q 231 -35 189 3 q 338 -74 272 -74 q 483 -26 415 -74 q 606 104 551 22 q 701 287 661 186 q 762 495 740 388 q 783 701 783 603 q 778 785 783 740 q 758 861 772 829 q 721 893 744 893 q 667 862 696 893 q 610 783 638 831 q 563 685 583 736 q 533 596 542 635 q 483 623 499 604 q 467 664 467 642 q 492 747 467 701 q 558 834 518 792 q 640 903 597 876 q 718 931 683 931 q 777 904 754 931 q 813 837 800 878 q 831 749 826 796 q 836 663 836 703 q 802 387 836 511 q 710 168 768 263 q 582 9 653 74 q 437 -88 511 -56 q 296 -121 363 -121 m 756 1053 q 672 1074 703 1053 q 626 1126 640 1096 q 613 1181 613 1156 q 622 1222 613 1206 q 646 1249 631 1239 q 676 1162 650 1201 q 758 1122 701 1122 q 843 1149 811 1122 q 892 1206 875 1176 q 903 1185 900 1197 q 906 1164 906 1174 q 860 1085 906 1117 q 756 1053 815 1053 m 900 1236 q 822 1252 863 1236 q 741 1284 782 1268 q 657 1300 700 1300 q 619 1295 639 1300 q 582 1279 600 1290 q 640 1333 610 1318 q 703 1349 671 1349 q 783 1332 742 1349 q 871 1299 825 1315 q 967 1282 917 1282 q 1014 1293 989 1282 q 959 1249 988 1261 q 900 1236 931 1236 z "},"":{"ha":865,"x_min":29,"x_max":836,"o":"m 296 -121 q 157 -78 217 -121 q 63 42 97 -36 q 29 224 29 119 q 63 440 29 331 q 156 650 97 550 q 288 828 214 750 q 443 953 361 907 q 604 999 525 999 q 651 994 631 999 q 688 982 672 990 q 674 982 676 982 q 671 982 672 982 q 525 934 599 982 q 385 805 451 886 q 265 623 318 724 q 182 414 213 522 q 151 204 151 306 q 170 67 151 131 q 231 -35 189 3 q 338 -74 272 -74 q 483 -26 415 -74 q 606 104 551 22 q 701 287 661 186 q 762 495 740 388 q 783 701 783 603 q 778 785 783 740 q 758 861 772 829 q 721 893 744 893 q 667 862 696 893 q 610 783 638 831 q 563 685 583 736 q 533 596 542 635 q 483 623 499 604 q 467 664 467 642 q 492 747 467 701 q 558 834 518 792 q 640 903 597 876 q 718 931 683 931 q 777 904 754 931 q 813 837 800 878 q 831 749 826 796 q 836 663 836 703 q 802 387 836 511 q 710 168 768 263 q 582 9 653 74 q 437 -88 511 -56 q 296 -121 363 -121 m 681 1038 q 619 1121 653 1078 q 547 1210 586 1164 q 565 1226 556 1219 q 588 1233 575 1233 q 624 1214 606 1233 q 659 1166 643 1194 q 685 1111 675 1138 q 696 1069 696 1085 q 681 1038 696 1049 m 772 1044 q 728 1122 754 1081 q 672 1201 703 1163 q 690 1229 681 1222 q 708 1236 699 1236 q 743 1219 726 1236 q 772 1176 760 1201 q 792 1126 785 1151 q 800 1086 800 1101 q 792 1056 800 1065 q 772 1044 783 1047 z "},"":{"ha":865,"x_min":29,"x_max":899,"o":"m 296 -121 q 157 -78 217 -121 q 63 42 97 -36 q 29 224 29 119 q 63 440 29 331 q 156 650 97 550 q 288 828 214 750 q 443 953 361 907 q 604 999 525 999 q 651 994 631 999 q 688 982 672 990 q 674 982 676 982 q 671 982 672 982 q 525 934 599 982 q 385 805 451 886 q 265 623 318 724 q 182 414 213 522 q 151 204 151 306 q 170 67 151 131 q 231 -35 189 3 q 338 -74 272 -74 q 483 -26 415 -74 q 606 104 551 22 q 701 287 661 186 q 762 495 740 388 q 783 701 783 603 q 778 785 783 740 q 758 861 772 829 q 721 893 744 893 q 667 862 696 893 q 610 783 638 831 q 563 685 583 736 q 533 596 542 635 q 483 623 499 604 q 467 664 467 642 q 492 747 467 701 q 558 834 518 792 q 640 903 597 876 q 718 931 683 931 q 777 904 754 931 q 813 837 800 878 q 831 749 826 796 q 836 663 836 703 q 802 387 836 511 q 710 168 768 263 q 582 9 653 74 q 437 -88 511 -56 q 296 -121 363 -121 m 817 1046 q 781 1056 796 1046 q 765 1088 765 1065 q 796 1133 765 1114 q 857 1153 826 1153 q 888 1144 876 1153 q 899 1114 899 1136 q 873 1068 899 1090 q 817 1046 847 1046 m 617 1075 q 581 1085 596 1075 q 565 1117 565 1094 q 596 1163 565 1143 q 657 1182 626 1182 q 688 1174 676 1182 q 699 1143 699 1165 q 673 1097 699 1119 q 617 1075 647 1075 z "},"":{"ha":865,"x_min":29,"x_max":1011,"o":"m 296 -121 q 157 -78 217 -121 q 63 42 97 -36 q 29 224 29 119 q 63 440 29 331 q 156 650 97 550 q 288 828 214 750 q 443 953 361 907 q 604 999 525 999 q 651 994 631 999 q 688 982 672 990 q 674 982 676 982 q 671 982 672 982 q 525 934 599 982 q 385 805 451 886 q 265 623 318 724 q 182 414 213 522 q 151 204 151 306 q 170 67 151 131 q 231 -35 189 3 q 338 -74 272 -74 q 483 -26 415 -74 q 606 104 551 22 q 701 287 661 186 q 762 495 740 388 q 783 701 783 603 q 778 785 783 740 q 758 861 772 829 q 721 893 744 893 q 667 862 696 893 q 610 783 638 831 q 563 685 583 736 q 533 596 542 635 q 483 623 499 604 q 467 664 467 642 q 492 747 467 701 q 558 834 518 792 q 640 903 597 876 q 718 931 683 931 q 777 904 754 931 q 813 837 800 878 q 831 749 826 796 q 836 663 836 703 q 802 387 836 511 q 710 168 768 263 q 582 9 653 74 q 437 -88 511 -56 q 296 -121 363 -121 m 817 1046 q 781 1056 796 1046 q 765 1088 765 1065 q 796 1133 765 1114 q 857 1153 826 1153 q 888 1144 876 1153 q 899 1114 899 1136 q 873 1068 899 1090 q 817 1046 847 1046 m 617 1075 q 581 1085 596 1075 q 565 1117 565 1094 q 596 1163 565 1143 q 657 1182 626 1182 q 688 1174 676 1182 q 699 1143 699 1165 q 673 1097 699 1119 q 617 1075 647 1075 m 958 1242 q 882 1249 928 1242 q 785 1267 836 1257 q 690 1287 735 1278 q 613 1299 644 1296 q 676 1335 626 1335 q 786 1324 728 1335 q 903 1299 844 1314 q 1011 1269 963 1285 q 958 1242 992 1242 z "},"":{"ha":865,"x_min":29,"x_max":1003,"o":"m 296 -121 q 157 -78 217 -121 q 63 42 97 -36 q 29 224 29 119 q 63 440 29 331 q 156 650 97 550 q 288 828 214 750 q 443 953 361 907 q 604 999 525 999 q 651 994 631 999 q 688 982 672 990 q 674 982 676 982 q 671 982 672 982 q 525 934 599 982 q 385 805 451 886 q 265 623 318 724 q 182 414 213 522 q 151 204 151 306 q 170 67 151 131 q 231 -35 189 3 q 338 -74 272 -74 q 483 -26 415 -74 q 606 104 551 22 q 701 287 661 186 q 762 495 740 388 q 783 701 783 603 q 778 785 783 740 q 758 861 772 829 q 721 893 744 893 q 667 862 696 893 q 610 783 638 831 q 563 685 583 736 q 533 596 542 635 q 483 623 499 604 q 467 664 467 642 q 492 747 467 701 q 558 834 518 792 q 640 903 597 876 q 718 931 683 931 q 777 904 754 931 q 813 837 800 878 q 831 749 826 796 q 836 663 836 703 q 802 387 836 511 q 710 168 768 263 q 582 9 653 74 q 437 -88 511 -56 q 296 -121 363 -121 m 721 1071 q 681 1083 696 1071 q 665 1117 665 1094 q 695 1166 665 1147 q 756 1185 725 1185 q 792 1173 779 1185 q 804 1139 804 1161 q 778 1092 804 1113 q 721 1071 751 1071 m 950 1232 q 874 1240 919 1232 q 777 1258 828 1247 q 681 1277 726 1268 q 604 1289 636 1286 q 668 1325 618 1325 q 778 1315 719 1325 q 895 1290 836 1304 q 1003 1260 954 1275 q 950 1232 983 1232 z "},"":{"ha":865,"x_min":29,"x_max":836,"o":"m 296 -121 q 157 -78 217 -121 q 63 42 97 -36 q 29 224 29 119 q 63 440 29 331 q 156 650 97 550 q 288 828 214 750 q 443 953 361 907 q 604 999 525 999 q 651 994 631 999 q 688 982 672 990 q 674 982 676 982 q 671 982 672 982 q 525 934 599 982 q 385 805 451 886 q 265 623 318 724 q 182 414 213 522 q 151 204 151 306 q 170 67 151 131 q 231 -35 189 3 q 338 -74 272 -74 q 483 -26 415 -74 q 606 104 551 22 q 701 287 661 186 q 762 495 740 388 q 783 701 783 603 q 778 785 783 740 q 758 861 772 829 q 721 893 744 893 q 667 862 696 893 q 610 783 638 831 q 563 685 583 736 q 533 596 542 635 q 483 623 499 604 q 467 664 467 642 q 492 747 467 701 q 558 834 518 792 q 640 903 597 876 q 718 931 683 931 q 777 904 754 931 q 813 837 800 878 q 831 749 826 796 q 836 663 836 703 q 802 387 836 511 q 710 168 768 263 q 582 9 653 74 q 437 -88 511 -56 q 296 -121 363 -121 m 233 -358 q 193 -347 208 -358 q 178 -312 178 -335 q 208 -263 178 -282 q 268 -244 238 -244 q 304 -256 292 -244 q 317 -290 317 -268 q 290 -337 317 -317 q 233 -358 264 -358 z "}}}
